<svg xmlns="http://www.w3.org/2000/svg" viewBox="0 0 200 200"><title>artDirection</title><path d="M59.895,137.454l4.991-4.99-7.422-7.422-4.99,4.991a1.031,1.031,0,0,0,.222,1.408l5.789,5.788A1.031,1.031,0,0,0,59.895,137.454Z" style="fill:none;stroke:#231f20;stroke-linecap:round;stroke-linejoin:round;stroke-width:4px"/><line x1="132.677" y1="49.829" x2="115.193" y2="67.313" style="fill:none;stroke:#231f20;stroke-linecap:round;stroke-linejoin:round;stroke-width:4px"/><line x1="122.791" y1="74.559" x2="140.098" y2="57.252" style="fill:none;stroke:#231f20;stroke-linecap:round;stroke-linejoin:round;stroke-width:4px"/><polyline points="102.887 79.619 57.464 125.042 64.886 132.464 111.013 86.337" style="fill:none;stroke:#231f20;stroke-linecap:round;stroke-linejoin:round;stroke-width:4px"/><path d="M135.759,54.167A18.269,18.269,0,0,0,140,57.341l5.918-13.336-13.331,5.924A18.258,18.258,0,0,0,135.759,54.167Z" style="fill:none;stroke:#231f20;stroke-linecap:round;stroke-linejoin:round;stroke-width:4px"/><rect x="59.676" y="120.371" width="9.039" height="10.636" transform="translate(-70.074 82.206) rotate(-45)" style="fill:none;stroke:#231f20;stroke-linecap:round;stroke-linejoin:round;stroke-width:4px"/><path d="M141.566,45.948c.345.4.695.807,1.085,1.2a17.466,17.466,0,0,0,1.348,1.2l1.92-4.345Z" style="fill:none;stroke:#231f20;stroke-miterlimit:10;stroke-width:4px"/><path d="M84.441,113.274a27.528,27.528,0,0,0,3.753,2.241l-.2,3.871,8.351,2.239,1.722-3.364a27.888,27.888,0,0,0,4.678,0l1.631,3.184,8.352-2.233-.187-3.671a27.276,27.276,0,0,0,4.048-2.441l3,1.942,6.115-6.112-2.078-3.211a27.254,27.254,0,0,0,2.14-4.025l3.8.192,2.236-8.351L128.021,91.6a27.989,27.989,0,0,0-.174-4.158l3.779-1.932-2.236-8.355-4.757.24a27.912,27.912,0,0,0-2-3.1l2.588-4-6.111-6.114-4.428,2.865a27.324,27.324,0,0,0-2.879-1.516l.265-5.211-8.352-2.236-2.557,5a27.894,27.894,0,0,0-2.969.069l-2.5-4.888L87.332,60.5l.288,5.672A28.158,28.158,0,0,0,85.1,67.659l-4.628-2.993-6.113,6.113,3,4.628a27.44,27.44,0,0,0-1.565,2.683L70.5,77.822,68.26,86.175l4.578,2.34a28.04,28.04,0,0,0-.045,3.456L68.437,94.2l2.236,8.352,4.642-.236a27.514,27.514,0,0,0,1.884,3.458M88.924,93.7a11.855,11.855,0,1,1,7.015,8" style="fill:none;stroke:#231f20;stroke-miterlimit:10;stroke-width:4px"/><path d="M59.895,137.454l4.991-4.99-7.422-7.422-4.99,4.991a1.031,1.031,0,0,0,.222,1.408l5.789,5.788A1.031,1.031,0,0,0,59.895,137.454Z" style="fill:none;stroke:#231f20;stroke-linecap:round;stroke-linejoin:round;stroke-width:4px"/><polyline points="96.646 85.86 57.464 125.042 64.886 132.464 104.067 93.283" style="fill:none;stroke:#231f20;stroke-linecap:round;stroke-linejoin:round;stroke-width:4px"/><rect x="59.676" y="120.371" width="9.039" height="10.636" transform="translate(-70.074 82.206) rotate(-45)" style="fill:none;stroke:#231f20;stroke-linecap:round;stroke-linejoin:round;stroke-width:4px"/><path d="M70.782,167.154h-4.2l-.951,2.6h-.819l3.5-9.242h.743l3.5,9.242H71.74Zm-3.954-.66h3.707l-1.854-5.034Z"/><path d="M76.908,163.529a2.865,2.865,0,0,0-.514-.045,1.854,1.854,0,0,0-1.2.4,2.167,2.167,0,0,0-.7,1.151v4.717h-.756v-6.868h.742l.014,1.092a2.019,2.019,0,0,1,1.936-1.219,1.24,1.24,0,0,1,.5.083Z"/><path d="M79.605,161.123v1.759h1.422v.622H79.605v4.582a1.434,1.434,0,0,0,.206.852.8.8,0,0,0,.689.279,4.774,4.774,0,0,0,.615-.063l.031.616a2.448,2.448,0,0,1-.812.107,1.355,1.355,0,0,1-1.136-.454,2.131,2.131,0,0,1-.355-1.336V163.5H77.581v-.622h1.263v-1.759Z"/><path d="M85.94,169.75v-9.242h2.584a4.01,4.01,0,0,1,2.037.518,3.58,3.58,0,0,1,1.406,1.482,4.67,4.67,0,0,1,.5,2.2v.852a4.67,4.67,0,0,1-.5,2.2,3.56,3.56,0,0,1-1.412,1.479,4.145,4.145,0,0,1-2.092.521Zm.781-8.582v7.922h1.752a3.013,3.013,0,0,0,2.342-.969A3.747,3.747,0,0,0,91.7,165.5v-.812a3.656,3.656,0,0,0-.87-2.554,2.964,2.964,0,0,0-2.292-.966Z"/><path d="M94.229,160.9a.511.511,0,0,1,.141-.363.5.5,0,0,1,.381-.148.5.5,0,0,1,.526.512.494.494,0,0,1-.143.359.515.515,0,0,1-.384.145.5.5,0,0,1-.381-.145A.5.5,0,0,1,94.229,160.9Zm.9,8.852h-.762v-6.868h.762Z"/><path d="M100.362,163.529a2.865,2.865,0,0,0-.514-.045,1.854,1.854,0,0,0-1.2.4,2.167,2.167,0,0,0-.7,1.151v4.717h-.756v-6.868h.742l.014,1.092a2.019,2.019,0,0,1,1.936-1.219,1.24,1.24,0,0,1,.5.083Z"/><path d="M104.1,169.877a2.988,2.988,0,0,1-1.584-.432,2.939,2.939,0,0,1-1.1-1.2,3.742,3.742,0,0,1-.394-1.729v-.272a4.044,4.044,0,0,1,.384-1.784,3.06,3.06,0,0,1,1.07-1.247,2.635,2.635,0,0,1,1.484-.454,2.481,2.481,0,0,1,1.984.854,3.466,3.466,0,0,1,.732,2.333v.426h-4.9v.146a2.877,2.877,0,0,0,.67,1.945,2.131,2.131,0,0,0,1.686.778,2.473,2.473,0,0,0,1.076-.223,2.391,2.391,0,0,0,.848-.711l.476.361A2.771,2.771,0,0,1,104.1,169.877Zm-.141-6.475a1.9,1.9,0,0,0-1.443.629,2.9,2.9,0,0,0-.715,1.688h4.12v-.082a2.523,2.523,0,0,0-.565-1.612A1.749,1.749,0,0,0,103.961,163.4Z"/><path d="M110.7,169.236a2,2,0,0,0,1.33-.448,1.573,1.573,0,0,0,.58-1.158h.73a2.152,2.152,0,0,1-.394,1.146,2.454,2.454,0,0,1-.962.81,2.9,2.9,0,0,1-1.285.292,2.652,2.652,0,0,1-2.143-.939,3.8,3.8,0,0,1-.79-2.526v-.229a4.284,4.284,0,0,1,.355-1.8,2.741,2.741,0,0,1,1.019-1.207,2.817,2.817,0,0,1,1.553-.425,2.644,2.644,0,0,1,1.862.673,2.455,2.455,0,0,1,.784,1.771h-.73a1.837,1.837,0,0,0-1.916-1.8,1.9,1.9,0,0,0-1.6.742,3.362,3.362,0,0,0-.568,2.082v.223a3.286,3.286,0,0,0,.568,2.051A1.909,1.909,0,0,0,110.7,169.236Z"/><path d="M116.034,161.123v1.759h1.422v.622h-1.422v4.582a1.434,1.434,0,0,0,.206.852.8.8,0,0,0,.689.279,4.774,4.774,0,0,0,.615-.063l.031.616a2.448,2.448,0,0,1-.812.107,1.355,1.355,0,0,1-1.136-.454,2.131,2.131,0,0,1-.355-1.336V163.5H114.01v-.622h1.263v-1.759Z"/><path d="M118.984,160.9a.511.511,0,0,1,.141-.363.5.5,0,0,1,.381-.148.5.5,0,0,1,.526.512.494.494,0,0,1-.143.359.515.515,0,0,1-.384.145.5.5,0,0,1-.381-.145A.5.5,0,0,1,118.984,160.9Zm.9,8.852h-.762v-6.868h.762Z"/><path d="M121.524,166.215a4.044,4.044,0,0,1,.384-1.784,2.887,2.887,0,0,1,2.676-1.676,2.824,2.824,0,0,1,2.222.962,3.7,3.7,0,0,1,.851,2.549v.158a4.08,4.08,0,0,1-.384,1.793,2.862,2.862,0,0,1-1.083,1.229,2.97,2.97,0,0,1-1.593.432,2.827,2.827,0,0,1-2.219-.962,3.694,3.694,0,0,1-.854-2.548Zm.762.209a3.119,3.119,0,0,0,.638,2.021,2.157,2.157,0,0,0,3.339,0,3.215,3.215,0,0,0,.638-2.085v-.146a3.5,3.5,0,0,0-.291-1.441,2.353,2.353,0,0,0-.819-1.013,2.091,2.091,0,0,0-1.206-.358,2.028,2.028,0,0,0-1.656.8,3.223,3.223,0,0,0-.642,2.085Z"/><path d="M129.948,162.882l.025,1.175a2.728,2.728,0,0,1,.965-.969,2.512,2.512,0,0,1,1.276-.333,2.061,2.061,0,0,1,1.644.622,2.805,2.805,0,0,1,.546,1.866v4.507h-.756v-4.514a2.1,2.1,0,0,0-.39-1.371,1.532,1.532,0,0,0-1.229-.45,1.921,1.921,0,0,0-1.247.441,2.572,2.572,0,0,0-.8,1.19v4.7h-.756v-6.868Z"/></svg>