<?xml version="1.0" encoding="utf-8"?>
<!-- Generator: Adobe Illustrator 21.1.0, SVG Export Plug-In . SVG Version: 6.00 Build 0)  -->
<svg version="1.1" id="Layer_1" xmlns="http://www.w3.org/2000/svg" xmlns:xlink="http://www.w3.org/1999/xlink" x="0px" y="0px"
	 viewBox="0 0 504 504" style="enable-background:new 0 0 504 504;" xml:space="preserve">
<style type="text/css">
	.st0{fill:#FFFFFF;}
</style>
<title>audible</title>
<g>
	<polygon class="st0" points="261.3,213.8 261.3,220.8 299.7,240.2 338.9,220.6 338.6,214.4 300.2,232.8 	"/>
	<path class="st0" d="M324,217l7-3.5c0,0-7.3-18.7-34.8-17.3c-11,1.4-20.7,8.3-25.5,18.4C270.7,214.7,302.1,184.9,324,217z"/>
	<path class="st0" d="M314,222l7.3-3.8c0,0-20.2-26.1-41.6,0.6C304.6,203,314,222,314,222z"/>
	<path class="st0" d="M304.6,227l7.3-3.5c0,0-10.3-16.4-23.1-0.6C304.6,219.1,304.6,227,304.6,227z"/>
	<path class="st0" d="M62.9,250.8l-12.8-1.4c0.3-2,1.1-3.8,2.1-5.6c1.1-1.4,2.4-2.7,3.9-3.5c1.6-0.9,3.3-1.4,5.1-1.6
		c2.3-0.4,4.6-0.6,7-0.6c3.3-0.1,6.5,0.2,9.7,0.7c2.3,0.4,4.4,1.4,6.1,3c1.2,1.2,2.2,2.8,2.7,4.4c0.7,1.7,1,3.5,1,5.5v16.2
		c0,1.3,0.1,2.7,0.3,4c0.3,1.3,0.8,2.6,1.3,3.7H76.7c-0.4-0.7-0.8-1.4-1-2.2s-0.4-1.5-0.5-2.3c-1.5,1.6-3.3,2.9-5.3,3.8
		c-2.6,1.1-5.5,1.5-8.2,1.5c-4.2,0-7.4-1.1-9.5-3.1c-2.1-1.9-3.3-4.7-3.3-7.5c-0.1-2.5,0.8-5,2.3-6.9c1.5-1.8,4.4-3.2,8.6-4
		c5-1.1,8.3-1.8,9.8-2.2c1.6-0.5,3.2-1.1,4.8-1.7c0-1.7-0.4-3-1.1-3.6c-0.7-0.7-1.9-1.1-3.5-1.1c-1.7-0.1-3.5,0.3-5,1.2
		C64,248.4,63.2,249.5,62.9,250.8z M74.5,258.2c-1.8,0.7-3.7,1.3-5.8,1.8c-2.7,0.8-4.4,1.5-5.2,2.2c-1.4,1.4-1.5,3.8-0.1,5.3l0,0
		c0.9,0.8,2.1,1.2,3.3,1.1c1.4,0,2.9-0.4,4.1-1.2c1.2-0.7,2.1-1.6,2.8-2.8c0.6-1.3,0.9-2.8,0.8-4.3L74.5,258.2z"/>
	<path class="st0" d="M128.5,275.7h-12.6v-5.9c-1.5,2.1-3.5,3.9-5.7,5.2c-2.2,1.1-4.6,1.6-7,1.5c-3.7,0-6.6-1.2-8.7-3.5
		c-2.1-2.3-3.2-5.8-3.2-10.7v-23.4h13.5v20.2c0,2.3,0.4,3.9,1.2,4.9c0.9,1,2.1,1.5,3.5,1.4c1.5,0,3-0.7,3.9-1.9
		c1.1-1.2,1.5-3.6,1.5-7v-17.6h13.4V275.7z"/>
	<path class="st0" d="M170.8,224.9v50.7h-12.6v-5.4c-1.2,1.8-2.9,3.5-4.8,4.7c-2,1.1-4.2,1.6-6.4,1.6c-4.4,0.2-8.5-2-10.9-5.8
		c-2.6-4.1-3.9-9-3.7-13.9c0-6.1,1.3-10.7,4.2-14c2.6-3.2,6.5-4.9,10.6-4.9c1.9,0,3.9,0.4,5.7,1.2c1.7,0.8,3.3,1.9,4.5,3.4V225
		L170.8,224.9L170.8,224.9z M157.4,257.2c0-2.9-0.6-5.1-1.7-6.4c-1.1-1.3-2.7-2.1-4.4-2.1c-1.5,0-3.1,0.8-3.9,2
		c-1.1,1.3-1.5,3.6-1.5,6.8c0,3,0.6,5.2,1.6,6.6c1,1.3,2.4,2.1,4,2.1c1.7,0,3.3-0.8,4.3-2.1C156.8,262.6,157.4,260.3,157.4,257.2z"
		/>
	<path class="st0" d="M175.4,224.9h13.4v9.6h-13.4V224.9z M175.4,238.9h13.4v36.7h-13.4V238.9z"/>
	<path class="st0" d="M193.4,224.9h13.5v17.5c1.2-1.4,2.8-2.6,4.6-3.4c1.8-0.8,3.7-1.2,5.7-1.2c4.1-0.1,8,1.7,10.5,4.8
		c2.8,3.3,4.2,7.9,4.2,13.9c0.1,3.6-0.6,7.2-1.9,10.6c-1.1,2.8-2.9,5.2-5.3,6.8c-2.2,1.5-4.8,2.3-7.5,2.3c-2.3,0-4.5-0.5-6.4-1.6
		c-1.9-1.2-3.5-2.8-4.8-4.7v5.5h-12.6L193.4,224.9z M206.8,257.2c0,3.2,0.6,5.5,1.7,6.9c1.1,1.3,2.6,2.1,4.3,2.1
		c1.6,0,3.1-0.8,4-2.1c1.1-1.4,1.6-3.7,1.6-7c0-2.9-0.6-5.1-1.6-6.4c-0.9-1.2-2.3-2-3.8-2c-1.7,0-3.4,0.8-4.5,2.1
		S206.8,254.3,206.8,257.2L206.8,257.2z"/>
	<path class="st0" d="M233.4,224.9h13.4v50.7h-13.4V224.9z"/>
	<path class="st0" d="M290.3,260.7h-26.8c0.1,1.8,0.7,3.5,1.7,5.1c1.2,1.5,3.1,2.4,5.1,2.4c1.3,0,2.6-0.4,3.7-1.1
		c1-0.6,1.7-1.4,2.3-2.3l13.2,1.2c-1.6,3.3-4.2,6-7.3,8c-2.9,1.6-7,2.4-12.3,2.4c-4.6,0-8.2-0.7-10.9-2c-2.8-1.5-5.1-3.7-6.6-6.5
		c-1.8-3.3-2.7-6.8-2.6-10.5c0-5.8,1.7-10.4,5.3-13.9s8.3-5.4,14.5-5.4c5,0,8.9,0.8,11.9,2.4c2.9,1.5,5.2,4,6.6,6.9
		c1.5,3.1,2.3,7,2.3,11.8L290.3,260.7z M276.6,254c-0.3-2.7-1-4.7-2.1-5.8c-1.2-1.2-2.8-1.8-4.5-1.7c-2,0-3.9,1-5.1,2.7
		c-1,1.5-1.4,3.2-1.5,5L276.6,254z"/>
	<path class="st0" d="M338.3,261.2l12.8,1.5c-0.7,2.6-1.8,5.1-3.5,7.3c-1.6,2.1-3.7,3.7-6.1,4.8c-3,1.2-6.2,1.8-9.5,1.7
		c-3.2,0.1-6.2-0.3-9.3-1.1c-2.4-0.7-4.5-1.9-6.4-3.5c-1.7-1.6-3.2-3.5-4.2-5.8c-1.2-2.8-1.6-5.8-1.5-8.7c-0.1-3.3,0.5-6.5,1.8-9.4
		c1.8-3.6,4.8-6.5,8.5-8.2c3.2-1.2,6.6-1.8,10.1-1.7c5.8,0,10.1,1.1,13,3.3c3.2,2.3,5.4,5.7,6.3,9.4l-12.7,1.7
		c-0.3-1.4-1.1-2.7-2.2-3.5c-1.2-0.9-2.7-1.2-4.2-1.2c-2.1-0.1-4.1,0.9-5.4,2.5c-1.3,1.6-2,4.2-2,7.6c0,3,0.7,5.3,2,6.9
		c1.2,1.5,3.2,2.4,5.2,2.4c1.6,0.1,3.2-0.5,4.4-1.4C337,264.5,337.9,262.9,338.3,261.2z"/>
	<path class="st0" d="M351.5,257.4c-0.2-5.2,1.8-10.2,5.4-13.9c3.6-3.6,8.4-5.5,14.6-5.5c7,0,12.3,2.1,15.9,6.4
		c3,3.5,4.4,8.1,4.3,12.7c0,5.7-1.8,10.3-5.4,13.9c-3.5,3.6-8.5,5.5-14.8,5.5c-5.7,0-10.2-1.5-13.6-4.5
		C353.7,268.3,351.3,262.9,351.5,257.4z M365,257.4c0,3.3,0.7,5.7,1.9,7.3c2,2.7,5.8,3.2,8.4,1.2c0.4-0.3,0.8-0.7,1.1-1.1
		c1.2-1.5,1.8-4,1.8-7.5c0-3.2-0.7-5.6-1.9-7.1c-1.1-1.4-2.8-2.3-4.6-2.3c-1.9,0-3.7,0.9-4.9,2.4C365.6,251.7,365,254.1,365,257.4
		L365,257.4z"/>
	<path class="st0" d="M395.6,238.9h12.6v5.4c1.4-1.9,3.4-3.5,5.5-4.8c2.1-1,4.3-1.4,6.6-1.4c2.3-0.1,4.6,0.4,6.6,1.5
		c1.7,1.2,3.1,2.8,4,4.6c1.6-2,3.5-3.6,5.8-4.9c2-1,4.2-1.3,6.4-1.3c3.7,0,6.7,1.2,8.8,3.5c2.1,2.3,3.2,6,3.2,11v23.1h-13.4v-20.9
		c0.1-1.3-0.2-2.6-1-3.7c-0.7-1.2-2-1.9-3.4-1.9c-1.4,0-2.9,0.7-3.8,1.8c-1,1.2-1.4,3.2-1.4,5.8v19h-13.4v-20.2
		c0.1-1.1,0-2.2-0.3-3.3c-0.3-0.9-0.8-1.6-1.5-2.2c-0.7-0.6-1.5-0.9-2.5-0.9c-1.5,0-2.9,0.7-3.8,1.8c-1,1.2-1.5,3.3-1.5,6v18.8
		h-13.4L395.6,238.9L395.6,238.9z"/>
	<circle class="st0" cx="300.1" cy="269.1" r="6.6"/>
	<path class="st0" d="M246.2,307.2l8.5-21.9h2.3l8.3,21.9h-2.1l-2.5-6.8h-10l-2.6,6.8H246.2z M251.7,298.6h8.5l-4.3-11.4
		L251.7,298.6z"/>
	<path class="st0" d="M268.5,285.5h2v13c0,2.7,0.5,4.7,1.5,5.8c1.1,1.2,2.6,1.8,4.9,1.8c1.1,0,2-0.1,3-0.5c0.8-0.3,1.4-0.8,2-1.4
		c0.6-0.7,0.9-1.5,1.1-2.4c0.2-1.2,0.4-2.2,0.3-3.4v-13h2v13.6c0,2.9-0.7,5-2.1,6.5s-3.5,2.3-6.3,2.3c-2.9,0-5-0.8-6.3-2.3
		c-1.5-1.8-2.2-4.1-2.1-6.5L268.5,285.5z"/>
	<path class="st0" d="M290.4,307.2v-21.9h7.5c0.6,0,1.2,0,1.8,0c0.6,0,1.2,0.1,1.7,0.2c0.6,0.1,1.2,0.3,1.6,0.5
		c0.6,0.2,1.1,0.5,1.5,0.9c0.7,0.5,1.3,1.2,1.8,1.9c0.5,0.8,0.9,1.5,1.2,2.4c0.3,0.9,0.5,1.7,0.6,2.6c0.2,1.5,0.2,3.1,0,4.6
		c-0.1,0.8-0.2,1.4-0.5,2.2c-0.2,0.7-0.5,1.4-0.8,2c-0.3,0.7-0.8,1.2-1.2,1.8c-0.5,0.6-1.1,1-1.6,1.3c-0.6,0.4-1.2,0.6-1.9,0.8
		s-1.3,0.3-2,0.4c-0.7,0.1-1.4,0.1-2.1,0.1L290.4,307.2z M292.5,305.5h4.9c0.9,0,1.7-0.1,2.6-0.2c0.9-0.1,1.7-0.4,2.5-0.9
		c0.7-0.4,1.3-0.9,1.8-1.4c0.5-0.7,0.9-1.3,1.2-2c0.3-0.8,0.5-1.5,0.6-2.3c0.1-0.8,0.2-1.5,0.2-2.3s-0.1-1.6-0.2-2.4
		c-0.1-0.8-0.3-1.6-0.6-2.3c-0.3-0.8-0.7-1.4-1.2-2c-0.5-0.7-1.2-1.2-1.9-1.5c-0.7-0.4-1.5-0.6-2.3-0.7c-0.9-0.1-1.8-0.2-2.7-0.2
		h-4.9L292.5,305.5z"/>
	<path class="st0" d="M313,307.2v-21.9h2v21.9H313z"/>
	<path class="st0" d="M319.8,296.4c0-1.5,0.2-3.1,0.7-4.5c0.4-1.3,1.1-2.6,1.9-3.6c0.9-1.1,1.9-1.9,3.2-2.5c1.3-0.7,2.9-1,4.3-0.9
		c1.5,0,3.1,0.3,4.5,0.9c1.2,0.6,2.3,1.4,3.3,2.5c0.9,1.1,1.5,2.3,1.9,3.6c0.5,1.4,0.7,3,0.7,4.5s-0.2,3-0.7,4.4
		c-0.4,1.3-1.1,2.6-1.9,3.6c-0.9,1.1-1.9,1.9-3.2,2.5c-2.8,1.2-6,1.2-8.8,0c-1.2-0.6-2.3-1.4-3.2-2.5c-0.9-1.1-1.5-2.3-1.9-3.6
		C320.1,299.4,319.8,297.8,319.8,296.4z M330.1,306.1c1.2,0,2.5-0.3,3.6-0.8c1-0.5,1.8-1.2,2.5-2.1c0.7-1,1.2-2,1.4-3.1
		c0.3-1.2,0.5-2.4,0.5-3.6c0-1.3-0.2-2.8-0.6-4c-0.3-1.2-0.9-2.2-1.6-3.1c-0.7-0.9-1.5-1.5-2.6-1.9c-1.1-0.5-2.2-0.7-3.4-0.7
		c-1.2,0-2.5,0.3-3.6,0.9c-1,0.5-1.8,1.2-2.5,2.2c-0.7,1-1.2,2-1.4,3.1c-0.7,2.4-0.7,5,0,7.4c0.3,1.2,0.8,2.2,1.4,3.1
		c0.7,0.9,1.5,1.6,2.5,2.1C327.5,305.8,328.7,306.1,330.1,306.1L330.1,306.1z"/>
	<path class="st0" d="M352.7,307.2v-21.9h7.9c1.2,0,2.2,0.1,3.3,0.4c0.8,0.2,1.5,0.6,2.2,1.2c0.6,0.5,1,1.1,1.2,1.7
		c0.3,0.7,0.4,1.4,0.4,2.2c0,0.7-0.1,1.3-0.3,2c-0.2,0.5-0.5,1-0.8,1.4c-0.3,0.4-0.7,0.7-1.2,0.9c-0.4,0.2-0.9,0.4-1.2,0.5v0.1
		c1.3,0.1,2.5,0.8,3.4,1.8c0.8,1.1,1.2,2.3,1.2,3.6c0,1-0.2,2-0.6,2.9c-0.3,0.8-0.9,1.4-1.4,1.9c-0.7,0.5-1.4,0.9-2.3,1.1
		c-1,0.2-1.9,0.3-2.9,0.3L352.7,307.2z M354.7,295.1h5.2c0.9,0,1.8-0.1,2.7-0.3c0.7-0.1,1.2-0.4,1.7-0.8c0.5-0.4,0.8-0.8,1-1.3
		c0.2-0.6,0.3-1.2,0.3-1.7s-0.1-1.2-0.3-1.7c-0.2-0.5-0.6-0.9-1.1-1.2c-0.6-0.3-1.2-0.6-1.9-0.7c-1-0.1-1.9-0.2-2.9-0.2h-4.8
		L354.7,295.1z M354.7,305.5h5.3c1,0,2,0,3-0.2c0.8-0.1,1.4-0.3,2.1-0.6c0.6-0.3,1-0.8,1.2-1.3c0.3-0.8,0.5-1.5,0.4-2.3
		c0-0.8-0.1-1.5-0.5-2.2c-0.3-0.6-0.8-1-1.3-1.2c-0.7-0.3-1.3-0.6-2-0.6c-0.9-0.1-1.7-0.2-2.6-0.2h-5.5L354.7,305.5L354.7,305.5z"/>
	<path class="st0" d="M372.1,296.4c0-1.5,0.2-3.1,0.7-4.5c0.4-1.3,1.1-2.6,1.9-3.6c0.9-1.1,1.9-1.9,3.2-2.5c1.3-0.7,2.9-1,4.3-0.9
		c1.5,0,3.1,0.3,4.5,0.9c1.2,0.6,2.3,1.4,3.3,2.5c0.9,1.1,1.5,2.3,1.9,3.6c0.5,1.4,0.7,3,0.7,4.5s-0.2,3-0.7,4.4
		c-0.4,1.3-1.1,2.6-1.9,3.6c-0.9,1.1-1.9,1.9-3.2,2.5c-2.8,1.2-6,1.2-8.8,0c-1.2-0.6-2.3-1.4-3.2-2.5s-1.5-2.3-1.9-3.6
		C372.2,299.4,372.1,297.8,372.1,296.4z M382.2,306.1c1.2,0,2.5-0.3,3.6-0.8c1-0.5,1.8-1.2,2.5-2.1c0.7-1,1.2-2,1.4-3.1
		c0.3-1.2,0.5-2.4,0.5-3.6c0-1.3-0.2-2.8-0.6-4c-0.3-1.2-0.9-2.2-1.6-3.1c-0.7-0.9-1.5-1.5-2.6-1.9c-1.1-0.5-2.2-0.7-3.4-0.7
		c-1.2,0-2.5,0.3-3.6,0.9c-1,0.5-1.8,1.2-2.5,2.2c-0.7,1-1.2,2-1.4,3.1c-0.7,2.4-0.7,5,0,7.4c0.3,1.2,0.8,2.2,1.4,3.1
		c0.7,0.9,1.5,1.6,2.5,2.1C379.7,305.8,381,306.1,382.2,306.1L382.2,306.1z"/>
	<path class="st0" d="M395.6,296.4c0-1.5,0.2-3.1,0.7-4.5c0.4-1.3,1.1-2.6,1.9-3.6c0.9-1.1,1.9-1.9,3.2-2.5c1.3-0.7,2.9-1,4.3-0.9
		c1.5,0,3.1,0.3,4.5,0.9c1.2,0.6,2.3,1.4,3.3,2.5c0.9,1.1,1.5,2.3,1.9,3.6c0.5,1.4,0.7,3,0.7,4.5s-0.2,3-0.7,4.4
		c-0.4,1.3-1.1,2.6-1.9,3.6c-0.9,1.1-1.9,1.9-3.2,2.5c-2.8,1.2-6,1.2-8.8,0c-1.2-0.6-2.3-1.4-3.2-2.5c-0.9-1.1-1.5-2.3-1.9-3.6
		C395.8,299.4,395.6,297.8,395.6,296.4z M405.8,306.1c1.2,0,2.5-0.3,3.6-0.8c1-0.5,1.8-1.2,2.5-2.1c0.7-1,1.2-2,1.4-3.1
		c0.3-1.2,0.5-2.4,0.5-3.6c0-1.3-0.2-2.8-0.6-4c-0.3-1.2-0.9-2.2-1.6-3.1c-0.7-0.9-1.5-1.5-2.6-1.9c-1.1-0.5-2.2-0.7-3.4-0.7
		c-1.2,0-2.5,0.3-3.6,0.9c-1,0.5-1.8,1.2-2.5,2.2c-0.7,1-1.2,2-1.4,3.1c-0.7,2.4-0.7,5,0,7.4c0.3,1.2,0.8,2.2,1.4,3.1
		c0.7,0.9,1.5,1.6,2.5,2.1C403.2,305.8,404.6,306.1,405.8,306.1L405.8,306.1z"/>
	<path class="st0" d="M420.2,307.2v-21.9h2v11.3l11.2-11.3h2.3l-8.6,8.7l10.2,13.1h-2.5l-9.1-11.9l-3.5,3.5v8.4L420.2,307.2z"/>
	<path class="st0" d="M441.1,300.7c0.1,0.9,0.3,1.7,0.7,2.5c0.3,0.7,0.8,1.2,1.3,1.6c0.6,0.5,1.2,0.8,1.9,1c0.8,0.2,1.5,0.3,2.3,0.3
		c0.9,0,1.7-0.1,2.5-0.4c0.7-0.2,1.2-0.6,1.7-1s0.8-0.9,1-1.4c0.2-0.6,0.3-1.2,0.3-1.7c0-0.8-0.2-1.4-0.6-2c-0.4-0.6-0.9-1-1.5-1.2
		c-0.7-0.4-1.3-0.7-2.1-0.8c-0.8-0.2-1.6-0.4-2.5-0.6c-0.9-0.2-1.6-0.4-2.5-0.7c-0.8-0.3-1.4-0.6-2.1-1.1c-0.6-0.5-1.2-1.1-1.5-1.7
		c-0.4-0.9-0.6-1.7-0.6-2.7c0-0.8,0.2-1.5,0.5-2.2c0.3-0.8,0.8-1.3,1.4-1.9c0.7-0.6,1.4-1.1,2.3-1.3c1.1-0.4,2.1-0.5,3.3-0.5
		c1.1,0,2.2,0.2,3.3,0.5c0.9,0.3,1.6,0.8,2.3,1.4c0.6,0.6,1.1,1.2,1.3,2.1c0.3,0.8,0.5,1.6,0.5,2.5h-1.8c0-0.8-0.1-1.4-0.5-2.1
		c-0.3-0.6-0.7-1.1-1.2-1.4s-1.1-0.7-1.7-0.9c-0.7-0.2-1.3-0.3-2-0.3c-0.9,0-1.8,0.1-2.7,0.5c-0.7,0.3-1.2,0.7-1.7,1.2
		c-0.4,0.5-0.7,1-0.9,1.5c-0.2,0.6-0.2,1.2-0.1,1.7c0.1,0.7,0.4,1.2,0.9,1.7c0.5,0.5,1.1,0.8,1.6,1.1c0.7,0.3,1.4,0.5,2.1,0.7
		c0.8,0.2,1.5,0.4,2.4,0.6c0.9,0.2,1.6,0.4,2.3,0.7c0.8,0.3,1.4,0.6,2,1.1c0.6,0.5,1.1,1.1,1.4,1.7c0.4,0.9,0.6,1.7,0.6,2.6
		c0.1,1.8-0.7,3.5-2.1,4.7c-1.7,1.2-3.7,1.8-5.8,1.6c-1.1,0-2.1-0.1-3.2-0.5c-1-0.3-1.8-0.8-2.5-1.3c-0.7-0.6-1.2-1.3-1.6-2.2
		c-0.4-1-0.6-2-0.6-3.1L441.1,300.7z"/>
</g>
</svg>
