<?xml version="1.0" encoding="utf-8"?>
<!-- Generator: Adobe Illustrator 21.1.0, SVG Export Plug-In . SVG Version: 6.00 Build 0)  -->
<svg version="1.1" id="Layer_1" xmlns="http://www.w3.org/2000/svg" xmlns:xlink="http://www.w3.org/1999/xlink" x="0px" y="0px"
	 viewBox="0 0 504 504" style="enable-background:new 0 0 504 504;" xml:space="preserve">
<style type="text/css">
	.st0{fill:#FFFFFF;}
</style>
<title>CAF</title>
<path class="st0" d="M182.3,214.1c1,0,1.9-0.2,2.8-0.5c0.9-0.4,1.7-1,2.4-1.7l2,2.1c-1.8,2.1-4.4,3.3-7.2,3.3
	c-2.6,0.1-5.1-0.9-7-2.7c-3.7-3.8-3.7-10,0.1-13.8c1.9-1.9,4.5-2.9,7.2-2.8c2.8-0.1,5.4,1.1,7.2,3.2l-2,2.2
	c-0.7-0.7-1.6-1.3-2.5-1.8c-0.9-0.4-1.8-0.5-2.8-0.5c-1.8,0-3.5,0.6-4.7,1.8c-1.3,1.2-2,2.9-1.9,4.7c0,1.8,0.6,3.5,1.9,4.7
	C179,213.4,180.6,214.1,182.3,214.1z"/>
<path class="st0" d="M198.7,217v-18.6h3.1v8.1h9.2v-8.1h3.1V217h-3.1v-7.6h-9.2v7.6H198.7z"/>
<path class="st0" d="M224.7,198.4h3.1V217h-3.1V198.4z"/>
<path class="st0" d="M246.8,214.1c1,0,1.9-0.2,2.8-0.5c0.9-0.4,1.7-1,2.4-1.7l2,2.1c-1.8,2.1-4.4,3.3-7.2,3.3
	c-2.6,0.1-5.1-0.9-7-2.7c-1.8-1.8-2.9-4.3-2.8-6.9c-0.1-2.6,1-5.1,2.8-6.9c1.9-1.9,4.5-2.9,7.2-2.8c2.8-0.1,5.4,1.1,7.2,3.2l-2,2.2
	c-0.7-0.7-1.6-1.3-2.5-1.8c-0.9-0.4-1.8-0.5-2.8-0.5c-1.8,0-3.5,0.6-4.7,1.8c-1.3,1.2-2,2.9-1.9,4.7c0,1.8,0.6,3.5,1.9,4.7
	C243.5,213.4,245.1,214.1,246.8,214.1z"/>
<path class="st0" d="M265.9,212.7L264,217h-3.4l8.2-18.6h3.4l8.2,18.6H277l-1.9-4.2H265.9z M273.9,209.8l-3.4-7.7l-3.4,7.7H273.9z"
	/>
<path class="st0" d="M301.2,207.9h3.1v6.4c-2,2-4.7,3.1-7.5,2.9c-2.6,0.1-5.1-0.9-6.9-2.7c-1.8-1.8-2.9-4.3-2.8-6.9
	c-0.1-2.6,1-5.1,2.8-6.9c1.8-1.8,4.3-2.8,6.8-2.8c2.4-0.1,4.8,0.8,6.7,2.3l-1.7,2.4c-0.6-0.6-1.4-1-2.2-1.3
	c-0.8-0.3-1.7-0.4-2.6-0.4c-1.8,0-3.5,0.6-4.7,1.8c-2.7,2.5-2.8,6.6-0.4,9.2c1.2,1.3,3,2.1,4.8,2.1c1.6,0.1,3.1-0.3,4.4-1.1
	L301.2,207.9z"/>
<path class="st0" d="M329.3,214.4c-3.9,3.7-10,3.7-13.9,0c-3.8-3.8-3.8-9.9,0-13.7c3.9-3.7,10-3.7,13.9,0
	C333,204.5,333,210.6,329.3,214.4z M327,202.8c-2.5-2.6-6.6-2.6-9.2-0.1c0,0-0.1,0.1-0.1,0.1c-2.5,2.7-2.5,6.9,0,9.5
	c2.5,2.6,6.6,2.6,9.2,0.1c0,0,0.1-0.1,0.1-0.1C329.5,209.6,329.5,205.4,327,202.8z"/>
<path class="st0" d="M55.1,256.1l-3.3,7.4H46L60.3,231h5.9l14.3,32.5h-5.9l-3.3-7.4L55.1,256.1z M69.2,251l-5.9-13.4L57.4,251H69.2z
	"/>
<path class="st0" d="M114.5,241.5c0,5.4-2.3,8.8-7,10.1l8.5,11.8h-7l-7.8-10.9H94v10.9h-5.5V231h12.1c5,0,8.5,0.8,10.7,2.5
	C113.4,235.2,114.5,237.8,114.5,241.5z M107.2,246.1c1.2-1.2,1.8-2.9,1.7-4.6c0.2-1.7-0.4-3.3-1.7-4.4c-1.9-1-4-1.4-6.1-1.2h-7v11.6
	h6.8C104,247.6,106.1,247.1,107.2,246.1z"/>
<path class="st0" d="M140.8,258.5c1.7,0,3.3-0.3,4.9-1c1.6-0.8,3-1.8,4.3-3l3.5,3.6c-3.1,3.7-7.7,5.8-12.5,5.7
	c-4.6,0.1-9-1.6-12.2-4.7c-6.5-6.7-6.5-17.4,0.1-24.1c3.3-3.2,7.9-5,12.5-4.8c4.8-0.1,9.5,2,12.6,5.6l-3.5,3.8
	c-1.3-1.3-2.8-2.3-4.4-3.1c-1.5-0.6-3.2-0.9-4.9-0.9c-3.1-0.1-6.1,1.1-8.3,3.2c-2.2,2.1-3.4,5.1-3.4,8.1c-0.1,3.1,1.1,6.1,3.3,8.3
	C134.9,257.3,137.8,258.5,140.8,258.5z"/>
<path class="st0" d="M163.7,263.5V231h5.5v14.1h16.1V231h5.5v32.5h-5.5v-13.3h-16.1v13.3H163.7z"/>
<path class="st0" d="M203.3,231h5.5v32.5h-5.5V231z"/>
<path class="st0" d="M233.6,236v27.5h-5.5V236h-9.9v-5h25.2v5H233.6z"/>
<path class="st0" d="M275.8,231v5.2h-17.4v8.6H274v4.9h-15.6v8.7h17.9v5.2h-23.4V231L275.8,231z"/>
<path class="st0" d="M301.7,258.5c1.7,0,3.3-0.3,4.9-1c1.6-0.8,3-1.8,4.3-3l3.5,3.6c-3.1,3.7-7.7,5.8-12.5,5.7
	c-4.6,0.1-9-1.6-12.2-4.7c-6.5-6.7-6.5-17.4,0.1-24.1c3.3-3.2,7.9-5,12.5-4.8c4.8-0.1,9.5,1.9,12.6,5.6l-3.5,3.8
	c-1.3-1.3-2.8-2.3-4.4-3.1c-1.5-0.6-3.2-0.9-4.9-0.9c-3.1-0.1-6.1,1.1-8.3,3.2c-2.2,2.1-3.4,5.1-3.4,8.1c-0.1,3.1,1.1,6.1,3.3,8.3
	C295.9,257.3,298.7,258.5,301.7,258.5z"/>
<path class="st0" d="M336.9,236v27.5h-5.5V236h-9.9v-5h25.2v5H336.9z"/>
<path class="st0" d="M363.5,256c3.2,3.3,8.4,3.5,11.8,0.3c0.1-0.1,0.2-0.2,0.3-0.3c1.6-2,2.4-4.5,2.2-7.1v-18h5.5v18.2
	c0,4.7-1.3,8.3-3.9,10.8c-5.6,5.1-14.2,5.1-19.8,0c-2.6-2.5-3.9-6.1-3.9-10.8V231h5.5v18C361.1,251.5,361.9,254,363.5,256z"/>
<path class="st0" d="M421.4,241.5c0,5.4-2.3,8.8-7,10.1l8.5,11.8h-7l-7.8-10.9h-7.2v10.9h-5.5V231h12.1c5,0,8.5,0.8,10.7,2.5
	C420.3,235.2,421.4,237.8,421.4,241.5z M414.1,246.1c1.2-1.2,1.8-2.9,1.7-4.6c0.2-1.7-0.4-3.3-1.7-4.4c-1.9-1-4-1.4-6.1-1.2h-7v11.6
	h6.8C410.9,247.6,413,247.1,414.1,246.1L414.1,246.1z"/>
<path class="st0" d="M455.7,231v5.2h-17.4v8.6h15.6v4.9h-15.6v8.7h17.9v5.2h-23.4V231L455.7,231z"/>
<path class="st0" d="M139.6,285.5v5.1h8.2v2.9h-8.2v7.7h-3.1v-18.6h12.4l0,2.9H139.6z"/>
<path class="st0" d="M173.4,298.6c-3.9,3.7-10,3.7-13.9,0c-3.8-3.8-3.8-9.9,0-13.7c3.9-3.7,10-3.7,13.9,0
	C177.2,288.7,177.2,294.8,173.4,298.6z M171.1,287c-2.5-2.6-6.6-2.6-9.2-0.1c0,0-0.1,0.1-0.1,0.1c-2.5,2.7-2.5,6.9,0,9.5
	c2.5,2.6,6.6,2.6,9.2,0.1c0,0,0.1-0.1,0.1-0.1C173.7,293.8,173.7,289.6,171.1,287z"/>
<path class="st0" d="M189.7,296.9c1.8,1.9,4.8,2,6.7,0.2c0.1-0.1,0.1-0.1,0.2-0.2c0.9-1.1,1.4-2.6,1.3-4v-10.3h3.1V293
	c0.1,2.3-0.7,4.5-2.2,6.2c-3.2,2.9-8.1,2.9-11.3,0c-1.6-1.7-2.4-3.9-2.2-6.2v-10.4h3.1v10.3C188.3,294.3,188.8,295.8,189.7,296.9z"
	/>
<path class="st0" d="M225.2,282.6h3.1v18.6h-3.4l-10.5-13.6v13.6h-3.1v-18.6h3.1l10.8,13.9L225.2,282.6z"/>
<path class="st0" d="M252.9,285c1.8,1.8,2.8,4.2,2.7,6.8c0.1,2.6-0.8,5-2.6,6.9c-1.7,1.7-4.4,2.5-8,2.5h-6.2v-18.6h6.4
	C248,282.4,250.7,283.3,252.9,285z M252.4,291.9c0-4.3-2.4-6.4-7.3-6.4H242v12.7h3.5c1.9,0.1,3.7-0.4,5.2-1.6
	C251.9,295.4,252.5,293.6,252.4,291.9z"/>
<path class="st0" d="M267.6,296.9l-1.9,4.2h-3.4l8.2-18.6h3.4l8.2,18.6h-3.3l-1.9-4.2H267.6z M275.6,294l-3.4-7.7l-3.4,7.7H275.6z"
	/>
<path class="st0" d="M295.6,285.5v15.7h-3.1v-15.7h-5.6v-2.9h14.4v2.9H295.6z"/>
<path class="st0" d="M309.9,282.6h3.1v18.6h-3.1V282.6z"/>
<path class="st0" d="M339.1,298.6c-3.9,3.7-10,3.7-13.9,0c-3.8-3.8-3.8-9.9,0-13.7c3.9-3.7,10-3.7,13.9,0
	C342.8,288.7,342.8,294.8,339.1,298.6z M336.8,287c-2.5-2.6-6.6-2.6-9.2-0.1c0,0-0.1,0.1-0.1,0.1c-2.5,2.7-2.5,6.9,0,9.5
	c2.5,2.6,6.6,2.6,9.2,0.1c0,0,0.1-0.1,0.1-0.1C339.3,293.8,339.3,289.6,336.8,287z"/>
<path class="st0" d="M365.1,282.6h3.1v18.6h-3.4l-10.5-13.6v13.6h-3.1v-18.6h3.1l10.8,13.9L365.1,282.6z"/>
<circle class="st0" cx="140.9" cy="246.9" r="6.9"/>
</svg>
