<svg xmlns="http://www.w3.org/2000/svg" viewBox="0 0 200 200"><title>design</title><path d="M89.372,75.846a30.429,30.429,0,0,1-.274,7.411,71.232,71.232,0,0,1-3.179,15.408c3.811,1.317,7.453,5.058,9.391,10.192a19.936,19.936,0,0,1,1.3,6.752h2.751v-.135" style="fill:none;stroke:#231f20;stroke-width:4px"/><path d="M100.642,115.475v.135h2.749a19.978,19.978,0,0,1,1.3-6.752c1.939-5.135,5.58-8.876,9.4-10.192A71.147,71.147,0,0,1,110.9,83.257a30.719,30.719,0,0,1-.274-7.411" style="fill:none;stroke:#231f20;stroke-width:4px"/><polyline points="89.003 46.569 89.003 69.571 110.998 69.571 110.998 46.569" style="fill:none;stroke:#231f20;stroke-width:4px"/><rect x="88.124" y="69.161" width="23.753" height="6.862" style="fill:none;stroke:#231f20;stroke-width:4px"/><path d="M138.407,92.934c0,21.213-17.195,34.967-38.408,34.967S61.593,114.147,61.593,92.934" style="fill:none;stroke:#231f20;stroke-width:4px"/><line x1="64.567" y1="127.633" x2="135.433" y2="127.633" style="fill:none;stroke:#231f20;stroke-width:4px"/><rect x="57.435" y="85.775" width="7.434" height="7.433" style="fill:none;stroke:#231f20;stroke-width:4px"/><rect x="135.132" y="85.775" width="7.434" height="7.433" style="fill:none;stroke:#231f20;stroke-width:4px"/><rect x="96.283" y="123.916" width="7.435" height="7.435" style="fill:#fff;stroke:#231f20;stroke-width:4px"/><rect x="57.785" y="123.916" width="7.434" height="7.435" style="fill:#fff;stroke:#231f20;stroke-width:4px"/><rect x="134.783" y="123.916" width="7.433" height="7.435" style="fill:#fff;stroke:#231f20;stroke-width:4px"/><line x1="100" y1="115.653" x2="100" y2="93.702" style="fill:none;stroke:#231f20;stroke-width:4px"/><circle cx="100" cy="91.191" r="2.367" style="fill:#231f20;stroke:#231f20;stroke-width:4px"/><path d="M81.63,169.75v-9.242h2.584a4.01,4.01,0,0,1,2.037.518,3.58,3.58,0,0,1,1.406,1.482,4.67,4.67,0,0,1,.5,2.2v.852a4.67,4.67,0,0,1-.5,2.2,3.56,3.56,0,0,1-1.412,1.479,4.145,4.145,0,0,1-2.092.521Zm.781-8.582v7.922h1.752a3.013,3.013,0,0,0,2.342-.969,3.747,3.747,0,0,0,.883-2.621v-.812a3.656,3.656,0,0,0-.87-2.554,2.964,2.964,0,0,0-2.292-.966Z"/><path d="M92.625,169.877a2.988,2.988,0,0,1-1.584-.432,2.939,2.939,0,0,1-1.1-1.2,3.742,3.742,0,0,1-.394-1.729v-.272a4.044,4.044,0,0,1,.384-1.784A3.06,3.06,0,0,1,91,163.209a2.635,2.635,0,0,1,1.484-.454,2.481,2.481,0,0,1,1.984.854,3.466,3.466,0,0,1,.732,2.333v.426H90.3v.146a2.877,2.877,0,0,0,.67,1.945,2.131,2.131,0,0,0,1.686.778,2.473,2.473,0,0,0,1.076-.223,2.391,2.391,0,0,0,.848-.711l.476.361A2.771,2.771,0,0,1,92.625,169.877Zm-.141-6.475a1.9,1.9,0,0,0-1.443.629,2.9,2.9,0,0,0-.715,1.688h4.12v-.082a2.523,2.523,0,0,0-.565-1.612A1.749,1.749,0,0,0,92.484,163.4Z"/><path d="M100.794,168a1.082,1.082,0,0,0-.454-.907,3.5,3.5,0,0,0-1.368-.536,6.156,6.156,0,0,1-1.418-.444,1.894,1.894,0,0,1-.749-.612,1.53,1.53,0,0,1-.245-.877,1.634,1.634,0,0,1,.68-1.342,2.743,2.743,0,0,1,1.739-.53,2.822,2.822,0,0,1,1.844.568,1.82,1.82,0,0,1,.7,1.481h-.762a1.227,1.227,0,0,0-.5-1,2.277,2.277,0,0,0-2.476-.067,1.028,1.028,0,0,0-.454.866.935.935,0,0,0,.378.8,3.985,3.985,0,0,0,1.378.518,6.461,6.461,0,0,1,1.5.5,1.939,1.939,0,0,1,.739.641,1.763,1.763,0,0,1-.46,2.3,3,3,0,0,1-1.832.521,3.075,3.075,0,0,1-1.945-.581,1.788,1.788,0,0,1-.746-1.47h.762a1.322,1.322,0,0,0,.563,1.038,2.292,2.292,0,0,0,1.367.372,2.164,2.164,0,0,0,1.283-.35A1.049,1.049,0,0,0,100.794,168Z"/><path d="M103.218,160.9a.511.511,0,0,1,.141-.363.5.5,0,0,1,.381-.148.5.5,0,0,1,.526.512.494.494,0,0,1-.143.359.515.515,0,0,1-.384.145.5.5,0,0,1-.381-.145A.5.5,0,0,1,103.218,160.9Zm.9,8.852h-.762v-6.868h.762Z"/><path d="M105.873,166.252a4.139,4.139,0,0,1,.714-2.555,2.306,2.306,0,0,1,1.939-.942,2.387,2.387,0,0,1,2.133,1.117l.038-.99h.711v6.729a2.912,2.912,0,0,1-.742,2.1,2.658,2.658,0,0,1-2.013.775,3.054,3.054,0,0,1-1.368-.321,2.662,2.662,0,0,1-1.025-.854l.426-.457a2.407,2.407,0,0,0,1.917.99,1.951,1.951,0,0,0,1.485-.562,2.245,2.245,0,0,0,.553-1.559v-.863a2.455,2.455,0,0,1-2.127,1.016,2.29,2.29,0,0,1-1.917-.952,4.148,4.148,0,0,1-.724-2.571Zm.768.134a3.576,3.576,0,0,0,.527,2.072,1.7,1.7,0,0,0,1.485.759,2.031,2.031,0,0,0,1.987-1.257v-3.192a2.174,2.174,0,0,0-.769-1.007,2.072,2.072,0,0,0-1.206-.346,1.727,1.727,0,0,0-1.492.752A3.829,3.829,0,0,0,106.64,166.386Z"/><path d="M114.112,162.882l.025,1.175a2.728,2.728,0,0,1,.965-.969,2.512,2.512,0,0,1,1.276-.333,2.061,2.061,0,0,1,1.644.622,2.805,2.805,0,0,1,.546,1.866v4.507h-.756v-4.514a2.1,2.1,0,0,0-.39-1.371,1.532,1.532,0,0,0-1.229-.45,1.921,1.921,0,0,0-1.247.441,2.572,2.572,0,0,0-.8,1.19v4.7h-.756v-6.868Z"/></svg>