<?xml version="1.0" encoding="utf-8"?>
<!-- Generator: Adobe Illustrator 21.1.0, SVG Export Plug-In . SVG Version: 6.00 Build 0)  -->
<svg version="1.1" id="Layer_1" xmlns="http://www.w3.org/2000/svg" xmlns:xlink="http://www.w3.org/1999/xlink" x="0px" y="0px"
	 viewBox="0 0 504 504" style="enable-background:new 0 0 504 504;" xml:space="preserve">
<style type="text/css">
	.st0{fill:#C4C4C4;}
</style>
<g>
	<title>hwd</title>
	<rect x="131" y="143.6" class="st0" width="8.9" height="118"/>
	<path class="st0" d="M322.5,264.6c66.6-25.9,77.6-62.4,57.4-72.9c-16.9-9-79.1,11.7-126.1,73.4c-2.7,3.5-5.2,7.2-7.4,11.1
		c-18.4,0.3-36.1-4.4-48.3-14.6c-1.8-1.5-3.5-3.2-5-5.1v-35.7c4-6.5,9.6-11.9,16.2-15.7c10.2-5.6,21.2-9.7,32.7-12v68.4h13.3V191
		c8.9-1.1,17.9-1.5,26.8-1c-0.5-0.2-11.3-2-26.8-0.8v-45.6H242V183h-48.9v-39.4h-44.7v118h44c1,1.1,2.1,2.1,3.3,3
		c13.6,11.1,30.5,14.6,48.6,15.2c-12.4,23-16.3,46.9-8.3,62.9c8.9,17.8,34.9,25.1,60.4,8.4c33.5-21.9,36.7-58.3,13.6-62.1
		c-31.4-5-51.2,33.5-49.7,38.5c0-0.3,18.6-39,49.1-35c20.4,2.9,13.6,35.8-13,54.5c-25.2,17.8-47.7,9.6-53.3-5
		c-4.7-12.2-3-35.3,14.5-62.9C257.7,279.1,286.7,278.3,322.5,264.6z M265.6,267.5c35.5-47.2,94.5-81.6,113.7-71.1
		c12.4,6.7,6.8,39-59.2,64.7c-22.8,8.7-42.9,13.4-60.7,14.6C259.4,275.6,263.3,270.7,265.6,267.5z M237.7,191.7
		c-10.5,2.2-20.7,6-30.1,11.1c-5.5,3-10.4,7-14.4,11.8v-22.9L237.7,191.7z"/>
</g>
</svg>
