<?xml version="1.0" encoding="utf-8"?>
<!-- Generator: Adobe Illustrator 21.1.0, SVG Export Plug-In . SVG Version: 6.00 Build 0)  -->
<svg version="1.1" id="Layer_1" xmlns="http://www.w3.org/2000/svg" xmlns:xlink="http://www.w3.org/1999/xlink" x="0px" y="0px"
	 viewBox="0 0 400 400" style="enable-background:new 0 0 400 400;" xml:space="preserve">
<style type="text/css">
	.st0{fill:#FFFFFF;}
</style>
<title>skills</title>
<path class="st0" d="M68.1,79c0-0.7-0.3-1.3-0.8-1.7c-0.9-0.6-1.8-1-2.8-1.3c-1.1-0.3-2.2-0.8-3.2-1.3c-2.2-1.2-3.2-2.7-3.2-4.7
	c0-1,0.3-1.9,0.9-2.7c0.6-0.9,1.5-1.5,2.5-1.9c1.2-0.5,2.4-0.7,3.6-0.7c1.2,0,2.5,0.2,3.6,0.7c1,0.4,1.9,1.2,2.5,2.1
	c0.6,0.9,0.9,2,0.9,3.1h-3.9c0-0.8-0.3-1.5-0.8-2c-0.7-0.5-1.5-0.8-2.3-0.7c-0.8,0-1.6,0.2-2.2,0.6c-0.5,0.4-0.8,1-0.8,1.6
	c0,0.6,0.4,1.2,0.9,1.6c0.9,0.5,1.8,0.9,2.7,1.2c1.8,0.4,3.5,1.3,4.9,2.5c1,1,1.6,2.3,1.5,3.7c0.1,1.5-0.6,3-1.9,3.9
	c-1.5,1-3.2,1.5-5,1.4c-1.4,0-2.7-0.3-4-0.8c-1.1-0.5-2.1-1.2-2.7-2.2c-0.6-1-1-2.1-0.9-3.2h3.9c0,2.1,1.3,3.1,3.8,3.1
	c0.8,0,1.5-0.2,2.2-0.6C67.9,80.2,68.2,79.6,68.1,79z"/>
<path class="st0" d="M79.6,78.3l-1.4,1.4v4.3h-3.8v-20h3.8V75l0.7-0.9l3.6-4.2h4.5L82,75.7l5.5,8.2h-4.3L79.6,78.3z"/>
<path class="st0" d="M88.7,66.2c0-0.5,0.2-1,0.6-1.4c0.9-0.7,2.2-0.7,3.1,0c0.8,0.8,0.8,2,0,2.8c-0.9,0.7-2.2,0.7-3.1,0
	C88.9,67.2,88.7,66.7,88.7,66.2z M92.7,83.9h-3.8V69.8h3.8L92.7,83.9z"/>
<path class="st0" d="M99.8,83.9H96v-20h3.8L99.8,83.9z"/>
<path class="st0" d="M106.9,83.9h-3.8v-20h3.8V83.9z"/>
<path class="st0" d="M117.7,80c0-0.5-0.3-0.9-0.7-1.1c-0.7-0.3-1.4-0.6-2.2-0.7c-3.4-0.7-5-2.1-5-4.3c0-1.2,0.6-2.4,1.6-3.1
	c1.2-0.9,2.6-1.3,4.1-1.3c1.5-0.1,3.1,0.4,4.3,1.3c1,0.8,1.6,2,1.6,3.3h-3.8c0-0.5-0.2-1-0.5-1.3c-0.5-0.4-1-0.6-1.6-0.5
	c-0.5,0-1,0.1-1.5,0.4c-0.3,0.3-0.5,0.7-0.5,1.1c0,0.4,0.2,0.8,0.6,1c0.6,0.3,1.3,0.6,2,0.7c0.8,0.2,1.6,0.4,2.4,0.6
	c2,0.7,3,2,3,3.8c0,1.3-0.6,2.4-1.7,3.1c-1.3,0.8-2.8,1.3-4.3,1.2c-1.1,0-2.2-0.2-3.2-0.6c-0.9-0.4-1.6-1-2.2-1.7
	c-0.5-0.7-0.8-1.5-0.8-2.4h3.6c0,0.6,0.3,1.2,0.7,1.5c0.5,0.4,1.2,0.6,1.9,0.5c0.6,0,1.1-0.1,1.6-0.4
	C117.5,80.9,117.7,80.5,117.7,80z"/>
<path class="st0" d="M87.3,175.2c-16.7,0-30.2-13.5-30.2-30.2c0-5,1.3-10,3.7-14.4l4,2.2c-6.8,12.5-2.2,28.1,10.3,34.9
	s28.1,2.2,34.9-10.3c6.8-12.5,2.2-28.1-10.3-34.9c-3.8-2.1-8-3.1-12.3-3.1v-4.5c16.7,0.2,30,13.9,29.8,30.6
	C116.9,161.8,103.7,175,87.3,175.2L87.3,175.2z"/>
<path class="st0" d="M80.3,141.7c0,0.9-0.6,1.8-1.4,2.1v0c1.1,0.3,1.8,1.3,1.8,2.4c0,1.9-1.9,2.8-3.5,2.8s-3.5-0.9-3.5-2.8
	c0-1.1,0.7-2.1,1.8-2.4v0c-0.9-0.3-1.5-1.1-1.4-2.1c0-1.8,1.6-2.6,3.1-2.6S80.3,140,80.3,141.7z M76.1,146c0,0.6,0.4,1.1,1,1.2
	c0.6,0,1.1-0.4,1.2-1c0-0.1,0-0.1,0-0.2c0-0.6-0.4-1.1-1-1.2c-0.6,0-1.1,0.4-1.2,1C76.1,145.8,76.1,145.9,76.1,146z M76.2,141.8
	c0,0.6,0.5,1,1,1c0.6,0,1-0.5,1-1c0-0.5-0.5-1-1-1C76.6,140.8,76.2,141.2,76.2,141.8C76.2,141.8,76.2,141.8,76.2,141.8L76.2,141.8z"
	/>
<path class="st0" d="M89.4,144.1c0,2.4-1.2,5-3.9,5s-3.9-2.6-3.9-5s1.2-5,3.9-5S89.4,141.7,89.4,144.1z M84,144.1
	c0,0.9,0.3,2.9,1.5,2.9s1.5-2,1.5-2.9s-0.3-2.8-1.5-2.8S84,143.2,84,144.1L84,144.1z"/>
<path class="st0" d="M95,141.6c0.2,1.4-0.8,2.6-2.2,2.8c-1.4,0.2-2.6-0.8-2.8-2.2c-0.2-1.4,0.8-2.6,2.2-2.8c0.1,0,0.2,0,0.3,0
	c1.2-0.1,2.4,0.7,2.5,2C95,141.4,95,141.5,95,141.6z M91.4,141.6c0,0.6,0.5,1,1,1c0.6,0,1-0.5,1-1c0-0.6-0.5-1-1-1
	S91.4,141,91.4,141.6C91.4,141.6,91.4,141.6,91.4,141.6z M98.9,139.5l-5.3,9.2h-1.2l5.3-9.2H98.9z M101.4,146.5
	c0.2,1.4-0.8,2.6-2.2,2.8c-1.4,0.2-2.6-0.8-2.8-2.2c-0.2-1.4,0.8-2.6,2.2-2.8c0.1,0,0.2,0,0.3,0c1.2-0.1,2.4,0.7,2.5,2
	C101.4,146.4,101.4,146.4,101.4,146.5L101.4,146.5z M97.8,146.6c0,0.6,0.5,1,1,1s1-0.5,1-1c0-0.6-0.5-1-1-1c0,0,0,0,0,0
	C98.3,145.5,97.8,146,97.8,146.6C97.8,146.5,97.8,146.5,97.8,146.6L97.8,146.6z"/>
<path class="st0" d="M40.3,183.2h0.8v6.8c0,0.8-0.2,1.6-0.8,2.2c-0.6,0.6-1.3,0.9-2.1,0.8c-0.8,0.1-1.6-0.2-2.2-0.7
	c-0.5-0.5-0.8-1.3-0.8-2h0.8c0,0.6,0.2,1.1,0.5,1.6c0.4,0.4,1,0.6,1.5,0.5c0.6,0,1.1-0.2,1.5-0.6c0.4-0.5,0.6-1,0.6-1.7L40.3,183.2z
	"/>
<path class="st0" d="M47.8,192.8c-0.1-0.3-0.1-0.7-0.2-1c-0.3,0.4-0.6,0.6-1.1,0.8c-0.4,0.2-0.9,0.3-1.4,0.3c-0.6,0-1.2-0.2-1.7-0.6
	c-0.4-0.4-0.7-0.9-0.6-1.5c0-0.7,0.3-1.3,0.9-1.7c0.7-0.4,1.6-0.7,2.4-0.6h1.4v-0.8c0-0.5-0.1-0.9-0.5-1.2c-0.4-0.3-0.9-0.5-1.4-0.4
	c-0.5,0-1,0.1-1.4,0.4c-0.3,0.2-0.5,0.6-0.5,1l-0.8,0c0-0.6,0.3-1.1,0.8-1.5c0.6-0.4,1.2-0.6,2-0.6c0.7,0,1.4,0.2,1.9,0.6
	c0.5,0.4,0.7,1,0.7,1.7v3.4c0,0.5,0,1.1,0.2,1.6v0.1L47.8,192.8z M45.3,192.3c0.5,0,1-0.1,1.4-0.4c0.4-0.2,0.7-0.6,0.9-1v-1.6h-1.4
	c-0.6,0-1.3,0.1-1.9,0.4c-0.4,0.2-0.7,0.7-0.7,1.2c0,0.4,0.2,0.8,0.4,1C44.5,192.1,44.9,192.3,45.3,192.3L45.3,192.3z"/>
<path class="st0" d="M52.7,191.7l2.2-6.1h0.8l-2.7,7.2h-0.6l-2.7-7.2h0.8L52.7,191.7z"/>
<path class="st0" d="M61.4,192.8c-0.1-0.3-0.1-0.7-0.2-1c-0.3,0.4-0.6,0.6-1.1,0.8c-0.4,0.2-0.9,0.3-1.4,0.3c-0.6,0-1.2-0.2-1.7-0.6
	c-0.4-0.4-0.7-0.9-0.6-1.5c0-0.7,0.3-1.3,0.9-1.7c0.7-0.4,1.6-0.7,2.4-0.6h1.4v-0.8c0-0.5-0.1-0.9-0.5-1.2c-0.4-0.3-0.9-0.5-1.4-0.4
	c-0.5,0-1,0.1-1.4,0.4c-0.3,0.2-0.5,0.6-0.5,1l-0.8,0c0-0.6,0.3-1.1,0.8-1.5c0.6-0.4,1.2-0.6,2-0.6c0.7,0,1.4,0.2,1.9,0.6
	c0.5,0.4,0.7,1,0.7,1.7v3.4c0,0.5,0,1.1,0.2,1.6v0.1L61.4,192.8z M58.9,192.3c0.5,0,1-0.1,1.4-0.4c0.4-0.2,0.7-0.6,0.9-1v-1.6h-1.4
	c-0.6,0-1.3,0.1-1.9,0.4c-0.4,0.2-0.7,0.7-0.7,1.2c0,0.4,0.2,0.8,0.4,1C58,192.1,58.5,192.3,58.9,192.3L58.9,192.3z"/>
<path class="st0" d="M68.4,191c0-0.4-0.2-0.7-0.5-0.9c-0.4-0.3-0.9-0.5-1.4-0.6c-0.5-0.1-1-0.2-1.5-0.5c-0.3-0.1-0.6-0.4-0.8-0.6
	c-0.2-0.3-0.3-0.6-0.3-0.9c0-0.6,0.3-1.1,0.7-1.4c0.5-0.4,1.2-0.6,1.8-0.6c0.7,0,1.4,0.2,1.9,0.6c0.5,0.4,0.7,0.9,0.7,1.5h-0.8
	c0-0.4-0.2-0.8-0.5-1c-0.8-0.5-1.8-0.6-2.6-0.1c-0.3,0.2-0.5,0.5-0.5,0.9c0,0.3,0.1,0.6,0.4,0.8c0.4,0.3,0.9,0.4,1.4,0.5
	c0.5,0.1,1.1,0.3,1.6,0.5c0.3,0.2,0.6,0.4,0.8,0.7c0.5,0.8,0.3,1.8-0.5,2.4c-0.6,0.4-1.2,0.6-1.9,0.5c-0.7,0-1.4-0.2-2-0.6
	c-0.5-0.4-0.8-0.9-0.8-1.5h0.8c0,0.4,0.2,0.8,0.6,1.1c0.4,0.3,0.9,0.4,1.4,0.4c0.5,0,0.9-0.1,1.3-0.4
	C68.2,191.7,68.4,191.4,68.4,191z"/>
<path class="st0" d="M73.6,192.3c0.5,0,1-0.1,1.4-0.5c0.4-0.3,0.6-0.7,0.6-1.2h0.8c0,0.4-0.2,0.8-0.4,1.2c-0.3,0.4-0.6,0.7-1,0.8
	c-0.4,0.2-0.9,0.3-1.3,0.3c-0.9,0-1.7-0.3-2.2-1c-0.6-0.7-0.9-1.7-0.8-2.6v-0.2c0-0.6,0.1-1.3,0.4-1.9c0.2-0.5,0.6-1,1.1-1.3
	c0.5-0.3,1-0.5,1.6-0.4c0.7,0,1.4,0.2,1.9,0.7c0.5,0.5,0.8,1.1,0.8,1.8h-0.8c0-1.1-0.9-1.9-2-1.9c0,0,0,0,0,0
	c-0.6,0-1.3,0.3-1.7,0.8c-0.4,0.6-0.6,1.4-0.6,2.2v0.2c0,0.8,0.2,1.5,0.6,2.1C72.3,192,72.9,192.3,73.6,192.3z"/>
<path class="st0" d="M81.2,186.3c-0.2,0-0.4,0-0.5,0c-0.5,0-0.9,0.1-1.3,0.4c-0.4,0.3-0.6,0.7-0.7,1.2v4.9h-0.8v-7.2h0.8l0,1.1
	c0.3-0.8,1.1-1.3,2-1.3c0.2,0,0.4,0,0.5,0.1L81.2,186.3z"/>
<path class="st0" d="M82.4,183.6c0-0.1,0-0.3,0.1-0.4c0.1-0.1,0.3-0.2,0.4-0.2c0.1,0,0.3,0,0.4,0.2c0.1,0.1,0.2,0.2,0.1,0.4
	c0,0.1-0.1,0.3-0.1,0.4c-0.1,0.1-0.3,0.2-0.4,0.2C82.7,184.2,82.5,183.9,82.4,183.6C82.4,183.6,82.4,183.6,82.4,183.6L82.4,183.6z
	 M83.4,192.8h-0.8v-7.2h0.8V192.8z"/>
<path class="st0" d="M91.3,189.3c0.1,0.9-0.2,1.9-0.7,2.7c-0.5,0.6-1.2,1-2,1c-0.9,0-1.7-0.3-2.2-1v3.6h-0.8v-9.9h0.7l0,1
	c0.5-0.8,1.3-1.2,2.2-1.1c0.8,0,1.5,0.3,2,1c0.5,0.8,0.8,1.7,0.7,2.7V189.3z M90.5,189.2c0-0.8-0.2-1.5-0.6-2.2
	c-0.4-0.5-0.9-0.8-1.6-0.8c-0.9,0-1.7,0.5-2,1.4v3.4c0.2,0.4,0.5,0.7,0.8,0.9c0.4,0.2,0.8,0.3,1.2,0.3c0.6,0,1.2-0.3,1.6-0.8
	C90.3,190.8,90.5,190,90.5,189.2L90.5,189.2z"/>
<path class="st0" d="M94.2,183.8v1.8h1.5v0.6h-1.5v4.8c0,0.3,0.1,0.6,0.2,0.9c0.2,0.2,0.4,0.3,0.7,0.3c0.2,0,0.4,0,0.6-0.1l0,0.6
	c-0.3,0.1-0.6,0.1-0.8,0.1c-0.4,0-0.9-0.1-1.2-0.5c-0.3-0.4-0.4-0.9-0.4-1.4v-4.8h-1.3v-0.6h1.3v-1.8L94.2,183.8z"/>
<path class="st0" d="M97.3,193.6h-0.7l4-10.4h0.7L97.3,193.6z"/>
<path class="st0" d="M103.6,185.7v8c0,0.5-0.1,1.1-0.5,1.5c-0.4,0.4-0.9,0.6-1.4,0.5c-0.2,0-0.5,0-0.7-0.1l0-0.6
	c0.2,0.1,0.4,0.1,0.6,0.1c0.8,0,1.2-0.5,1.2-1.4v-8L103.6,185.7z M103.2,183.1c0.3,0,0.5,0.2,0.5,0.5c0,0,0,0,0,0.1
	c0,0.1,0,0.3-0.1,0.4c-0.1,0.1-0.3,0.2-0.4,0.2c-0.1,0-0.3,0-0.4-0.2c-0.1-0.1-0.1-0.2-0.1-0.4c0-0.1,0-0.3,0.1-0.4
	C102.9,183.1,103.1,183.1,103.2,183.1L103.2,183.1z"/>
<path class="st0" d="M113.1,188.5c0,0.8-0.1,1.6-0.5,2.4c-0.3,0.6-0.8,1.2-1.4,1.5l1.8,1.5l-0.6,0.5l-2-1.7
	c-0.4,0.1-0.7,0.2-1.1,0.2c-1.4,0-2.7-0.8-3.3-2.1c-0.3-0.7-0.5-1.5-0.5-2.3v-1.1c0-0.8,0.1-1.6,0.5-2.3c0.6-1.3,1.9-2.1,3.3-2.1
	c0.7,0,1.4,0.2,2,0.5c0.6,0.4,1,0.9,1.3,1.6c0.3,0.7,0.5,1.5,0.5,2.3L113.1,188.5z M112.3,187.5c0.1-1-0.2-1.9-0.8-2.7
	c-1-1.2-2.8-1.3-4-0.3c-0.1,0.1-0.2,0.2-0.3,0.3c-0.6,0.8-0.9,1.8-0.8,2.8v1c-0.1,1,0.2,1.9,0.8,2.7c1,1.2,2.8,1.3,4,0.3
	c0.1-0.1,0.2-0.2,0.3-0.3c0.6-0.8,0.8-1.8,0.8-2.7L112.3,187.5z"/>
<path class="st0" d="M119.6,191.9c-0.5,0.7-1.4,1.1-2.3,1c-0.6,0-1.3-0.2-1.7-0.7c-0.4-0.6-0.7-1.3-0.6-2v-4.7h0.8v4.6
	c0,1.4,0.6,2,1.7,2c1,0.1,1.9-0.5,2.2-1.4v-5.2h0.8v7.2h-0.8L119.6,191.9z"/>
<path class="st0" d="M125.2,193c-0.6,0-1.2-0.1-1.6-0.4c-0.5-0.3-0.9-0.7-1.1-1.3c-0.3-0.6-0.4-1.2-0.4-1.8v-0.3
	c0-0.6,0.1-1.3,0.4-1.9c0.2-0.5,0.6-1,1.1-1.3c0.5-0.3,1-0.5,1.5-0.5c0.8,0,1.5,0.3,2.1,0.9c0.5,0.7,0.8,1.6,0.8,2.4v0.4h-5.1v0.2
	c0,0.7,0.2,1.5,0.7,2c0.4,0.5,1.1,0.8,1.8,0.8c0.4,0,0.8-0.1,1.1-0.2c0.3-0.2,0.6-0.4,0.9-0.7l0.5,0.4
	C127.2,192.5,126.2,193,125.2,193z M125,186.2c-0.6,0-1.1,0.2-1.5,0.7c-0.4,0.5-0.7,1.1-0.7,1.8h4.3v-0.1c0-0.6-0.2-1.2-0.6-1.7
	C126.1,186.4,125.6,186.2,125,186.2z"/>
<path class="st0" d="M132.7,186.3c-0.2,0-0.4,0-0.5,0c-0.5,0-0.9,0.1-1.3,0.4c-0.4,0.3-0.6,0.7-0.7,1.2v4.9h-0.8v-7.2h0.8l0,1.1
	c0.3-0.8,1.1-1.3,2-1.3c0.2,0,0.4,0,0.5,0.1L132.7,186.3z"/>
<path class="st0" d="M136.4,191.7l2.1-6h0.9l-3.1,8.4l-0.2,0.4c-0.3,0.8-1,1.3-1.8,1.3c-0.2,0-0.4,0-0.6-0.1l0-0.7l0.4,0
	c0.3,0,0.7-0.1,0.9-0.3c0.3-0.3,0.5-0.6,0.6-1l0.4-1l-2.7-7.1h0.9L136.4,191.7z"/>
<path class="st0" d="M203,175.3c-16.7,0-30.2-13.5-30.2-30.2c0-9.6,4.6-18.7,12.4-24.4l2.7,3.6c-11.4,8.4-13.9,24.5-5.6,35.9
	c8.4,11.4,24.5,13.9,35.9,5.6c11.4-8.4,13.9-24.5,5.6-35.9c-4.8-6.6-12.5-10.5-20.7-10.5v-4.5c16.7-0.2,30.4,13.1,30.6,29.8
	s-13.1,30.4-29.8,30.6C203.5,175.3,203.2,175.3,203,175.3z"/>
<path class="st0" d="M190.6,148.8l2.6-3.1l0,0c-1.5,0.7-3.3,0.1-4-1.4c-0.2-0.5-0.3-1-0.3-1.5c0-2.3,1.9-3.5,3.9-3.5
	c0.9,0,1.9,0.2,2.6,0.8c0.8,0.6,1.2,1.6,1.2,2.5c-0.1,1.3-0.6,2.6-1.5,3.7l-2,2.6L190.6,148.8z M191.4,142.6c0,0.8,0.6,1.5,1.4,1.5
	c0,0,0,0,0,0c0.8,0,1.5-0.7,1.5-1.5s-0.7-1.5-1.5-1.5l0,0C192.1,141.1,191.4,141.8,191.4,142.6C191.4,142.6,191.4,142.6,191.4,142.6
	L191.4,142.6z"/>
<path class="st0" d="M205.1,144.2c0,2.4-1.2,5-3.9,5s-3.9-2.6-3.9-5s1.2-5,3.9-5S205.1,141.8,205.1,144.2z M199.7,144.2
	c0,0.9,0.3,2.9,1.5,2.9s1.5-2,1.5-2.9s-0.3-2.8-1.5-2.8S199.7,143.3,199.7,144.2L199.7,144.2z"/>
<path class="st0" d="M210.6,141.7c0.2,1.4-0.8,2.6-2.2,2.8s-2.6-0.8-2.8-2.2s0.8-2.6,2.2-2.8c0.1,0,0.2,0,0.3,0
	c1.2-0.1,2.4,0.7,2.5,2C210.6,141.5,210.6,141.6,210.6,141.7z M207.1,141.7c0,0.6,0.5,1,1,1c0.6,0,1-0.5,1-1l0,0c0-0.6-0.5-1-1-1
	C207.5,140.7,207.1,141.2,207.1,141.7z M214.6,139.6l-5.3,9.2H208l5.3-9.2H214.6z M217,146.6c0.2,1.4-0.8,2.6-2.2,2.8
	s-2.6-0.8-2.8-2.2s0.8-2.6,2.2-2.8c0.1,0,0.2,0,0.3,0c1.2-0.1,2.4,0.7,2.5,2C217,146.5,217,146.6,217,146.6L217,146.6z M213.5,146.7
	c0,0.6,0.5,1,1,1c0.6,0,1-0.5,1-1c0-0.6-0.5-1-1-1C213.9,145.6,213.5,146.1,213.5,146.7C213.5,146.7,213.5,146.7,213.5,146.7
	L213.5,146.7z"/>
<path class="st0" d="M177.8,192.8H177v-4.6h-5.5v4.6h-0.8v-9.6h0.8v4.3h5.5v-4.3h0.8L177.8,192.8z"/>
<path class="st0" d="M186.6,183.9h-3.3v8.9h-0.8v-8.9h-3.3v-0.7h7.4L186.6,183.9z"/>
<path class="st0" d="M189.2,183.2l3.5,8.5l3.6-8.5h1.1v9.6h-0.8v-4.2l0.1-4.3l-3.6,8.5h-0.6l-3.6-8.5l0.1,4.2v4.2h-0.8v-9.6H189.2z"
	/>
<path class="st0" d="M200.7,192.1h4.8v0.7h-5.6v-9.6h0.8L200.7,192.1z"/>
<path class="st0" d="M206.7,193.6H206l4-10.4h0.7L206.7,193.6z"/>
<path class="st0" d="M219.2,189.8c0,0.9-0.4,1.7-1.1,2.3c-0.7,0.6-1.6,0.9-2.5,0.8c-0.7,0-1.3-0.2-1.9-0.5c-0.6-0.4-1-0.9-1.3-1.5
	c-0.3-0.7-0.5-1.5-0.5-2.2v-1.2c0-0.8,0.1-1.6,0.4-2.3c0.3-0.6,0.7-1.2,1.3-1.5c0.6-0.4,1.3-0.6,1.9-0.5c0.9,0,1.8,0.2,2.4,0.8
	c0.6,0.6,1,1.4,1,2.3h-0.8c0-1.4-1.1-2.5-2.4-2.5c-0.1,0-0.2,0-0.2,0c-0.8,0-1.6,0.3-2.1,1c-0.6,0.8-0.8,1.7-0.8,2.7v1.2
	c0,0.9,0.2,1.9,0.8,2.7c0.5,0.6,1.2,1,2,1c0.7,0.1,1.4-0.2,1.9-0.6c0.5-0.5,0.8-1.1,0.8-1.8L219.2,189.8z"/>
<path class="st0" d="M226.6,190.5c0-0.5-0.2-1-0.6-1.3c-0.6-0.4-1.3-0.7-2.1-0.9c-0.8-0.2-1.5-0.5-2.2-0.9c-1-0.7-1.3-2.1-0.6-3.1
	c0.1-0.2,0.3-0.4,0.5-0.6c0.7-0.5,1.5-0.7,2.3-0.7c0.6,0,1.2,0.1,1.7,0.4c0.5,0.2,0.9,0.6,1.2,1c0.3,0.4,0.4,1,0.4,1.5h-0.8
	c0-0.6-0.2-1.2-0.7-1.6c-0.5-0.4-1.2-0.6-1.8-0.6c-0.6,0-1.2,0.1-1.8,0.5c-0.4,0.3-0.7,0.8-0.7,1.3c0,0.5,0.2,0.9,0.6,1.2
	c0.6,0.4,1.2,0.7,1.9,0.8c0.7,0.2,1.3,0.4,2,0.7c0.4,0.2,0.7,0.5,1,0.9c0.2,0.4,0.3,0.8,0.3,1.2c0,0.7-0.3,1.4-0.9,1.8
	c-0.7,0.5-1.5,0.7-2.4,0.7c-0.6,0-1.3-0.1-1.9-0.4c-0.5-0.2-1-0.6-1.3-1c-0.3-0.4-0.4-1-0.4-1.5h0.8c0,0.6,0.3,1.2,0.8,1.6
	c0.6,0.4,1.3,0.6,2,0.6c0.6,0,1.3-0.1,1.8-0.5C226.4,191.5,226.6,191,226.6,190.5z"/>
<path class="st0" d="M234.6,190.5c0-0.5-0.2-1-0.6-1.3c-0.6-0.4-1.3-0.7-2.1-0.9c-0.8-0.2-1.5-0.5-2.2-0.9c-1-0.7-1.3-2.1-0.6-3.1
	c0.1-0.2,0.3-0.4,0.5-0.6c0.7-0.5,1.5-0.7,2.3-0.7c0.6,0,1.2,0.1,1.7,0.4c0.5,0.2,0.9,0.6,1.2,1c0.3,0.4,0.4,1,0.4,1.5h-0.8
	c0-0.6-0.2-1.2-0.7-1.6c-0.5-0.4-1.2-0.6-1.8-0.6c-0.6,0-1.2,0.1-1.8,0.5c-0.4,0.3-0.7,0.8-0.7,1.3c0,0.5,0.2,0.9,0.6,1.2
	c0.6,0.4,1.2,0.7,1.9,0.8c0.7,0.2,1.3,0.4,2,0.7c0.4,0.2,0.7,0.5,1,0.9c0.2,0.4,0.3,0.8,0.3,1.2c0,0.7-0.3,1.4-0.9,1.8
	c-0.7,0.5-1.5,0.7-2.4,0.7c-0.6,0-1.3-0.1-1.9-0.4c-0.5-0.2-1-0.6-1.3-1c-0.3-0.4-0.4-1-0.4-1.5h0.8c0,0.6,0.3,1.2,0.8,1.6
	c0.6,0.4,1.3,0.6,2,0.6c0.6,0,1.3-0.1,1.8-0.5C234.4,191.5,234.6,191,234.6,190.5z"/>
<path class="st0" d="M318.9,175.4c-16.7,0-30.2-13.5-30.2-30.2h4.5c0,14.2,11.5,25.7,25.7,25.7s25.7-11.5,25.7-25.7
	c0-14.2-11.5-25.7-25.7-25.7l0,0V115c16.7-0.2,30.4,13.1,30.6,29.8c0.2,16.7-13.1,30.4-29.8,30.6
	C319.4,175.4,319.1,175.4,318.9,175.4L318.9,175.4z"/>
<path class="st0" d="M305.4,140.6v-2h7.5l-5.3,9.2H305l4.2-7.2L305.4,140.6z"/>
<path class="st0" d="M316.6,140.6l-0.2,1l0.8-0.1c1.7-0.1,3.2,1.2,3.3,2.9c0,0.1,0,0.2,0,0.4c0,1-0.4,1.9-1.2,2.5
	c-0.8,0.5-1.7,0.8-2.7,0.8c-1.1,0-2.1-0.3-3-0.8l0.4-2.3c0.7,0.7,1.6,1,2.6,1.1c0.8,0,1.4-0.6,1.5-1.3c0,0,0,0,0,0
	c0-1.1-1.1-1.6-2-1.6c-0.6,0-1.2,0.1-1.8,0.4l0.8-5h4.8v2L316.6,140.6z"/>
<path class="st0" d="M326.5,140.7c0.2,1.4-0.8,2.6-2.2,2.8s-2.6-0.8-2.8-2.2s0.8-2.6,2.2-2.8c0.1,0,0.2,0,0.3,0
	c1.2-0.1,2.4,0.7,2.5,2C326.5,140.5,326.5,140.6,326.5,140.7z M323,140.7c0,0.6,0.5,1,1,1c0.6,0,1-0.5,1-1c0-0.6-0.5-1-1-1
	S323,140.1,323,140.7C323,140.7,323,140.7,323,140.7z M330.5,138.6l-5.3,9.2H324l5.3-9.2H330.5z M332.9,145.6
	c0.2,1.4-0.8,2.6-2.2,2.8s-2.6-0.8-2.8-2.2s0.8-2.6,2.2-2.8c0.1,0,0.2,0,0.3,0c1.2-0.1,2.4,0.7,2.5,2
	C332.9,145.5,332.9,145.5,332.9,145.6L332.9,145.6z M329.4,145.7c0,0.6,0.5,1,1,1c0.6,0,1-0.5,1-1c0-0.6-0.5-1-1-1
	C329.9,144.6,329.4,145.1,329.4,145.7C329.4,145.6,329.4,145.6,329.4,145.7L329.4,145.7z"/>
<path class="st0" d="M285.1,189.2h-2.8v4h-0.8v-9.6h3.1c0.9-0.1,1.7,0.2,2.4,0.7c1,1,1.2,2.6,0.3,3.7c-0.4,0.5-0.9,0.8-1.5,1
	l2.4,4.1v0.1h-0.9L285.1,189.2z M282.3,188.5h2.5c0.6,0,1.2-0.2,1.6-0.6c0.8-0.9,0.8-2.2,0-3.1c-0.5-0.4-1.2-0.6-1.8-0.6h-2.3
	L282.3,188.5z"/>
<path class="st0" d="M294.5,192.3c-0.5,0.7-1.4,1.1-2.3,1c-0.6,0-1.3-0.2-1.7-0.7c-0.4-0.6-0.7-1.3-0.6-2v-4.7h0.8v4.6
	c0,1.4,0.6,2,1.7,2c1,0.1,1.9-0.5,2.2-1.4v-5.2h0.8v7.2h-0.8L294.5,192.3z"/>
<path class="st0" d="M303.1,189.7c0.1,0.9-0.2,1.9-0.7,2.7c-0.5,0.6-1.2,1-2,1c-0.9,0-1.8-0.4-2.3-1.1l0,1h-0.7v-10.2h0.8v4
	c0.5-0.8,1.3-1.2,2.2-1.2c0.8,0,1.5,0.3,2,1c0.5,0.8,0.8,1.7,0.7,2.7L303.1,189.7z M302.3,189.6c0-0.8-0.1-1.5-0.5-2.2
	c-0.3-0.5-0.9-0.8-1.5-0.8c-0.5,0-0.9,0.1-1.3,0.4c-0.4,0.3-0.7,0.7-0.8,1.1v3.2c0.3,0.9,1.2,1.4,2.1,1.3c0.6,0,1.2-0.3,1.5-0.8
	C302.1,191.2,302.3,190.4,302.3,189.6z"/>
<path class="st0" d="M307,192.1l2.1-6h0.9l-3.1,8.4l-0.2,0.4c-0.3,0.8-1,1.3-1.8,1.3c-0.2,0-0.4,0-0.6-0.1l0-0.7l0.4,0
	c0.3,0,0.7-0.1,0.9-0.3c0.3-0.3,0.5-0.6,0.6-1l0.4-1l-2.7-7.1h0.9L307,192.1z"/>
<path class="st0" d="M311,194h-0.7l4-10.4h0.7L311,194z"/>
<path class="st0" d="M322.2,190.9c0-0.5-0.2-1-0.6-1.3c-0.6-0.4-1.3-0.7-2.1-0.9c-0.8-0.2-1.5-0.5-2.2-0.9c-1-0.7-1.3-2.1-0.6-3.1
	c0.1-0.2,0.3-0.4,0.5-0.6c0.7-0.5,1.5-0.7,2.3-0.7c0.6,0,1.2,0.1,1.7,0.4c0.5,0.2,0.9,0.6,1.2,1c0.3,0.4,0.4,1,0.4,1.5h-0.8
	c0-0.6-0.2-1.2-0.7-1.6c-0.5-0.4-1.2-0.6-1.8-0.6c-0.6,0-1.2,0.1-1.8,0.5c-0.4,0.3-0.7,0.8-0.7,1.3c0,0.5,0.2,0.9,0.6,1.2
	c0.6,0.4,1.2,0.7,1.9,0.8c0.7,0.2,1.3,0.4,2,0.7c0.4,0.2,0.7,0.5,1,0.9c0.2,0.4,0.3,0.8,0.3,1.2c0,0.7-0.3,1.4-0.9,1.8
	c-0.7,0.5-1.5,0.7-2.4,0.7c-0.6,0-1.3-0.1-1.9-0.4c-0.5-0.2-1-0.6-1.3-1c-0.3-0.4-0.4-1-0.4-1.5h0.8c0,0.6,0.3,1.2,0.8,1.6
	c0.6,0.4,1.3,0.6,2,0.6c0.6,0,1.3-0.1,1.8-0.5C321.9,191.9,322.2,191.4,322.2,190.9z"/>
<path class="st0" d="M324.5,184c0-0.1,0-0.3,0.1-0.4c0.1-0.1,0.3-0.2,0.4-0.2c0.1,0,0.3,0,0.4,0.2c0.1,0.1,0.2,0.2,0.1,0.4
	c0,0.1-0.1,0.3-0.1,0.4c-0.1,0.1-0.3,0.2-0.4,0.2C324.8,184.5,324.5,184.3,324.5,184C324.5,184,324.5,184,324.5,184z M325.4,193.2
	h-0.8v-7.1h0.8V193.2z"/>
<path class="st0" d="M328.3,186.1l0,1.2c0.2-0.4,0.6-0.8,1-1c0.4-0.2,0.9-0.4,1.3-0.3c0.6-0.1,1.3,0.2,1.7,0.6
	c0.4,0.6,0.6,1.2,0.6,1.9v4.7h-0.8v-4.7c0-0.5-0.1-1-0.4-1.4c-0.3-0.3-0.8-0.5-1.3-0.5c-0.5,0-0.9,0.2-1.3,0.5
	c-0.4,0.3-0.7,0.8-0.8,1.2v4.9h-0.8v-7.2H328.3z"/>
<path class="st0" d="M339.5,193.2c-0.1-0.3-0.1-0.7-0.2-1c-0.3,0.4-0.6,0.6-1.1,0.8c-0.4,0.2-0.9,0.3-1.4,0.3
	c-0.6,0-1.2-0.2-1.7-0.6c-0.4-0.4-0.7-0.9-0.6-1.5c0-0.7,0.3-1.3,0.9-1.7c0.7-0.4,1.6-0.7,2.4-0.6h1.4v-0.8c0-0.5-0.1-0.9-0.5-1.2
	c-0.4-0.3-0.9-0.5-1.4-0.4c-0.5,0-1,0.1-1.4,0.4c-0.3,0.2-0.5,0.6-0.5,1l-0.8,0c0-0.6,0.3-1.1,0.8-1.5c0.6-0.4,1.2-0.6,2-0.6
	c0.7,0,1.4,0.2,1.9,0.6c0.5,0.4,0.7,1,0.7,1.7v3.4c0,0.5,0,1.1,0.2,1.6v0.1L339.5,193.2z M337,192.7c0.5,0,1-0.1,1.4-0.4
	c0.4-0.2,0.7-0.6,0.9-1v-1.6H338c-0.6,0-1.3,0.1-1.9,0.4c-0.4,0.2-0.7,0.7-0.7,1.2c0,0.4,0.2,0.8,0.4,1
	C336.2,192.5,336.6,192.7,337,192.7L337,192.7z"/>
<path class="st0" d="M343.5,184.2v1.8h1.5v0.6h-1.5v4.8c0,0.3,0.1,0.6,0.2,0.9c0.2,0.2,0.4,0.3,0.7,0.3c0.2,0,0.4,0,0.6-0.1l0,0.6
	c-0.3,0.1-0.6,0.1-0.8,0.1c-0.4,0-0.9-0.1-1.2-0.5c-0.3-0.4-0.4-0.9-0.4-1.4v-4.8h-1.3v-0.6h1.3v-1.8L343.5,184.2z"/>
<path class="st0" d="M349.9,186.7c-0.2,0-0.4,0-0.5,0c-0.5,0-0.9,0.1-1.3,0.4c-0.4,0.3-0.6,0.7-0.7,1.2v4.9h-0.8v-7.2h0.8l0,1.1
	c0.3-0.8,1.1-1.3,2-1.3c0.2,0,0.4,0,0.5,0.1L349.9,186.7z"/>
<path class="st0" d="M355.4,193.2c-0.1-0.3-0.1-0.7-0.2-1c-0.3,0.4-0.6,0.6-1.1,0.8c-0.4,0.2-0.9,0.3-1.4,0.3
	c-0.6,0-1.2-0.2-1.7-0.6c-0.4-0.4-0.7-0.9-0.6-1.5c0-0.7,0.3-1.3,0.9-1.7c0.7-0.4,1.6-0.7,2.4-0.6h1.4v-0.8c0-0.5-0.1-0.9-0.5-1.2
	c-0.4-0.3-0.9-0.5-1.4-0.4c-0.5,0-1,0.1-1.4,0.4c-0.3,0.2-0.5,0.6-0.5,1l-0.8,0c0-0.6,0.3-1.1,0.8-1.5c0.6-0.4,1.2-0.6,2-0.6
	c0.7,0,1.4,0.2,1.9,0.6c0.5,0.4,0.7,1,0.7,1.7v3.4c0,0.5,0,1.1,0.2,1.6v0.1L355.4,193.2z M352.9,192.7c0.5,0,1-0.1,1.4-0.4
	c0.4-0.2,0.7-0.6,0.9-1v-1.6h-1.4c-0.6,0-1.3,0.1-1.9,0.4c-0.4,0.2-0.7,0.7-0.7,1.2c0,0.4,0.2,0.8,0.4,1
	C352.1,192.5,352.5,192.7,352.9,192.7L352.9,192.7z"/>
<path class="st0" d="M203.3,291.4v-4.5c14.2,0,25.7-11.5,25.7-25.7c0-14.2-11.5-25.7-25.7-25.7V231c16.7-0.2,30.4,13.1,30.6,29.8
	c0.2,16.7-13.1,30.4-29.8,30.6C203.8,291.4,203.6,291.4,203.3,291.4L203.3,291.4z"/>
<path class="st0" d="M192.7,258.1l-0.2,1l0.8-0.1c1.7-0.1,3.2,1.2,3.3,2.9c0,0.1,0,0.2,0,0.4c0,1-0.4,1.9-1.2,2.5
	c-0.8,0.5-1.7,0.8-2.7,0.8c-1.1,0-2.1-0.3-3-0.8l0.4-2.3c0.7,0.7,1.6,1,2.6,1.1c0.8,0,1.4-0.6,1.5-1.3c0,0,0,0,0,0
	c0-1.1-1.1-1.6-2-1.6c-0.6,0-1.2,0.1-1.8,0.4l0.8-5h4.8v2L192.7,258.1z"/>
<path class="st0" d="M205.4,260.7c0,2.4-1.2,5-3.9,5s-3.9-2.6-3.9-5s1.2-5,3.9-5S205.4,258.3,205.4,260.7z M200,260.7
	c0,0.9,0.3,2.9,1.5,2.9s1.5-2,1.5-2.9s-0.3-2.8-1.5-2.8S200,259.8,200,260.7z"/>
<path class="st0" d="M211,258.2c0.2,1.4-0.8,2.6-2.2,2.8s-2.6-0.8-2.8-2.2c-0.2-1.4,0.8-2.6,2.2-2.8c0.1,0,0.2,0,0.3,0
	c1.2-0.1,2.4,0.7,2.5,2C211,258,211,258.1,211,258.2z M207.4,258.2c0,0.6,0.5,1,1.1,1c0.5,0,1-0.5,1-1c0-0.6-0.5-1-1.1-1
	C207.9,257.2,207.4,257.7,207.4,258.2z M214.9,256.1l-5.3,9.2h-1.2l5.3-9.2H214.9z M217.4,263.1c0.2,1.4-0.8,2.6-2.2,2.8
	c-1.4,0.2-2.6-0.8-2.8-2.2s0.8-2.6,2.2-2.8c0.1,0,0.2,0,0.3,0c1.2-0.1,2.4,0.7,2.5,2C217.4,263,217.4,263.1,217.4,263.1L217.4,263.1
	z M213.8,263.2c0,0.6,0.5,1,1,1c0.6,0,1-0.5,1-1c0-0.6-0.5-1-1-1c0,0,0,0,0,0C214.3,262.1,213.8,262.6,213.8,263.2
	C213.8,263.1,213.8,263.2,213.8,263.2L213.8,263.2z"/>
<path class="st0" d="M87.9,291.4c-16.7,0-30.2-13.5-30.2-30.2h4.5c0,14.2,11.5,25.7,25.7,25.7s25.7-11.5,25.7-25.7
	c0-14.2-11.5-25.7-25.7-25.7c0,0,0,0,0,0V231c16.7-0.2,30.4,13.1,30.6,29.8c0.2,16.7-13.1,30.4-29.8,30.6
	C88.5,291.4,88.2,291.4,87.9,291.4L87.9,291.4z"/>
<path class="st0" d="M74.5,258.1v-2H82l-5.3,9.2h-2.6l4.2-7.2L74.5,258.1z"/>
<path class="st0" d="M85.7,258.1l-0.2,1l0.8-0.1c1.7-0.1,3.2,1.2,3.3,2.9c0,0.1,0,0.2,0,0.4c0,1-0.4,1.9-1.2,2.5
	c-0.8,0.5-1.7,0.8-2.7,0.8c-1.1,0-2.1-0.3-3-0.8l0.4-2.3c0.7,0.7,1.6,1,2.6,1.1c0.8,0,1.4-0.6,1.5-1.3c0,0,0,0,0,0
	c0-1.1-1.1-1.6-2-1.6c-0.6,0-1.2,0.1-1.8,0.4l0.8-5h4.8v2L85.7,258.1z"/>
<path class="st0" d="M95.6,258.2c0.2,1.4-0.8,2.6-2.2,2.8c-1.4,0.2-2.6-0.8-2.8-2.2c-0.2-1.4,0.8-2.6,2.2-2.8c0.1,0,0.2,0,0.3,0
	c1.2-0.1,2.4,0.7,2.5,2C95.6,258,95.6,258.1,95.6,258.2z M92.1,258.2c0,0.6,0.5,1,1,1s1-0.5,1-1c0-0.6-0.5-1-1-1c0,0,0,0,0,0
	C92.6,257.2,92.1,257.6,92.1,258.2C92.1,258.2,92.1,258.2,92.1,258.2L92.1,258.2z M99.6,256.1l-5.3,9.2h-1.2l5.3-9.2H99.6z
	 M102,263.1c0.2,1.4-0.8,2.6-2.2,2.8s-2.6-0.8-2.8-2.2s0.8-2.6,2.2-2.8c0.1,0,0.2,0,0.3,0c1.2-0.1,2.4,0.7,2.5,2
	C102,263,102,263.1,102,263.1L102,263.1z M98.5,263.2c0,0.6,0.5,1,1,1s1-0.5,1-1c0-0.6-0.5-1-1-1C99,262.1,98.5,262.6,98.5,263.2
	C98.5,263.1,98.5,263.2,98.5,263.2L98.5,263.2z"/>
<path class="st0" d="M168.7,310.4h-0.8l-5.5-8.2v8.2h-0.8v-9.6h0.8l5.5,8.2v-8.2h0.8L168.7,310.4z"/>
<path class="st0" d="M170.5,306.7c0-0.6,0.1-1.3,0.4-1.9c0.5-1.1,1.6-1.8,2.8-1.7c0.9,0,1.7,0.3,2.3,1c0.6,0.7,0.9,1.7,0.9,2.7v0.2
	c0,0.6-0.1,1.3-0.4,1.9c-0.2,0.5-0.6,1-1.1,1.3c-0.5,0.3-1.1,0.5-1.7,0.4c-0.9,0-1.7-0.3-2.3-1c-0.6-0.7-0.9-1.7-0.9-2.7V306.7z
	 M171.3,306.9c0,0.8,0.2,1.5,0.7,2.1c0.8,1,2.2,1.1,3.2,0.3c0.1-0.1,0.2-0.2,0.3-0.3c0.5-0.6,0.7-1.4,0.7-2.2v-0.2
	c0-0.5-0.1-1-0.3-1.5c-0.2-0.4-0.5-0.8-0.9-1.1c-0.4-0.3-0.8-0.4-1.3-0.4c-0.7,0-1.3,0.3-1.7,0.8c-0.5,0.6-0.7,1.4-0.7,2.2
	L171.3,306.9z"/>
<path class="st0" d="M178.2,306.7c0-0.9,0.2-1.9,0.7-2.7c0.5-0.6,1.2-1,2-1c0.9,0,1.7,0.4,2.2,1.1v-4h0.8v10.2h-0.7l0-1
	c-0.5,0.7-1.4,1.1-2.2,1.1c-0.8,0-1.5-0.4-2-1C178.4,308.7,178.2,307.8,178.2,306.7L178.2,306.7z M179,306.9c0,0.8,0.2,1.5,0.5,2.2
	c0.3,0.5,0.9,0.8,1.5,0.8c0.9,0,1.7-0.5,2.1-1.3v-3.4c-0.3-0.9-1.1-1.4-2.1-1.4c-0.6,0-1.2,0.3-1.6,0.8
	C179.2,305.2,179,306,179,306.9L179,306.9z"/>
<path class="st0" d="M188.8,310.5c-0.6,0-1.2-0.1-1.6-0.4c-0.5-0.3-0.9-0.7-1.1-1.3c-0.3-0.6-0.4-1.2-0.4-1.8v-0.3
	c0-0.6,0.1-1.3,0.4-1.9c0.2-0.5,0.6-1,1.1-1.3c0.5-0.3,1-0.5,1.5-0.5c0.8,0,1.5,0.3,2.1,0.9c0.5,0.7,0.8,1.6,0.8,2.4v0.4h-5.1v0.2
	c0,0.7,0.2,1.5,0.7,2c0.4,0.5,1.1,0.8,1.8,0.8c0.4,0,0.8-0.1,1.1-0.2c0.3-0.2,0.6-0.4,0.9-0.7l0.5,0.4
	C190.8,310.1,189.8,310.5,188.8,310.5z M188.7,303.7c-0.6,0-1.1,0.2-1.5,0.7c-0.4,0.5-0.7,1.1-0.7,1.8h4.3v-0.1
	c0-0.6-0.2-1.2-0.6-1.7C189.8,304,189.2,303.7,188.7,303.7L188.7,303.7z"/>
<path class="st0" d="M192.9,311.2h-0.7l4-10.4h0.7L192.9,311.2z"/>
<path class="st0" d="M203.9,305.7h-4.5v3.9h5.2v0.7h-6v-9.6h6v0.7h-5.1v3.6h4.5V305.7z"/>
<path class="st0" d="M208.4,306.1l1.9-2.9h0.9l-2.4,3.5l2.5,3.6h-0.9l-2-3l-2,3h-0.9l2.5-3.6l-2.4-3.5h0.9L208.4,306.1z"/>
<path class="st0" d="M218.5,306.9c0.1,0.9-0.2,1.9-0.7,2.7c-0.5,0.6-1.2,1-2,1c-0.9,0-1.7-0.3-2.2-1v3.6h-0.8v-9.9h0.7l0,1
	c0.5-0.8,1.3-1.2,2.2-1.1c0.8,0,1.5,0.3,2,1c0.5,0.8,0.8,1.7,0.7,2.7L218.5,306.9z M217.7,306.7c0-0.8-0.2-1.5-0.6-2.2
	c-0.4-0.5-0.9-0.8-1.6-0.8c-0.9,0-1.7,0.5-2,1.4v3.4c0.2,0.4,0.5,0.7,0.8,0.9c0.4,0.2,0.8,0.3,1.2,0.3c0.6,0,1.2-0.3,1.6-0.8
	C217.5,308.3,217.7,307.5,217.7,306.7L217.7,306.7z"/>
<path class="st0" d="M223.5,303.9c-0.2,0-0.4,0-0.5,0c-0.5,0-0.9,0.1-1.3,0.4c-0.4,0.3-0.6,0.7-0.7,1.2v4.9h-0.8v-7.2h0.8l0,1.1
	c0.3-0.8,1.1-1.3,2-1.3c0.2,0,0.4,0,0.5,0.1L223.5,303.9z"/>
<path class="st0" d="M227.4,310.5c-0.6,0-1.2-0.1-1.6-0.4c-0.5-0.3-0.9-0.7-1.1-1.3c-0.3-0.6-0.4-1.2-0.4-1.8v-0.3
	c0-0.6,0.1-1.3,0.4-1.9c0.2-0.5,0.6-1,1.1-1.3c0.5-0.3,1-0.5,1.5-0.5c0.8,0,1.5,0.3,2.1,0.9c0.5,0.7,0.8,1.6,0.8,2.4v0.4H225v0.2
	c0,0.7,0.2,1.5,0.7,2c0.4,0.5,1.1,0.8,1.8,0.8c0.4,0,0.8-0.1,1.1-0.2c0.3-0.2,0.6-0.4,0.9-0.7l0.5,0.4
	C229.4,310.1,228.4,310.5,227.4,310.5z M227.3,303.7c-0.6,0-1.1,0.2-1.5,0.7c-0.4,0.5-0.7,1.1-0.7,1.8h4.3v-0.1
	c0-0.6-0.2-1.2-0.6-1.7C228.4,304,227.8,303.7,227.3,303.7L227.3,303.7z"/>
<path class="st0" d="M235.9,308.5c0-0.4-0.2-0.7-0.5-0.9c-0.4-0.3-0.9-0.5-1.4-0.6c-0.5-0.1-1-0.2-1.5-0.5c-0.3-0.1-0.6-0.4-0.8-0.6
	c-0.2-0.3-0.3-0.6-0.3-0.9c0-0.6,0.3-1.1,0.7-1.4c0.5-0.4,1.2-0.6,1.8-0.6c0.7,0,1.4,0.2,1.9,0.6c0.5,0.4,0.7,0.9,0.7,1.5h-0.8
	c0-0.4-0.2-0.8-0.5-1c-0.8-0.5-1.8-0.6-2.6-0.1c-0.3,0.2-0.5,0.5-0.5,0.9c0,0.3,0.1,0.6,0.4,0.8c0.4,0.3,0.9,0.4,1.4,0.5
	c0.5,0.1,1.1,0.3,1.6,0.5c0.3,0.2,0.6,0.4,0.8,0.7c0.5,0.8,0.3,1.8-0.5,2.4c-0.6,0.4-1.2,0.6-1.9,0.5c-0.7,0-1.4-0.2-2-0.6
	c-0.5-0.4-0.8-0.9-0.8-1.5h0.8c0,0.4,0.2,0.8,0.6,1.1c0.4,0.3,0.9,0.4,1.4,0.4c0.5,0,0.9-0.1,1.3-0.4
	C235.7,309.3,235.9,308.9,235.9,308.5z"/>
<path class="st0" d="M242.8,308.5c0-0.4-0.2-0.7-0.5-0.9c-0.4-0.3-0.9-0.5-1.4-0.6c-0.5-0.1-1-0.2-1.5-0.5c-0.3-0.1-0.6-0.4-0.8-0.6
	c-0.2-0.3-0.3-0.6-0.3-0.9c0-0.6,0.3-1.1,0.7-1.4c0.5-0.4,1.2-0.6,1.8-0.6c0.7,0,1.4,0.2,1.9,0.6c0.5,0.4,0.7,0.9,0.7,1.5h-0.8
	c0-0.4-0.2-0.8-0.5-1c-0.8-0.5-1.8-0.6-2.6-0.1c-0.3,0.2-0.5,0.5-0.5,0.9c0,0.3,0.1,0.6,0.4,0.8c0.4,0.3,0.9,0.4,1.4,0.5
	c0.5,0.1,1.1,0.3,1.6,0.5c0.3,0.2,0.6,0.4,0.8,0.7c0.5,0.8,0.3,1.8-0.5,2.4c-0.6,0.4-1.2,0.6-1.9,0.5c-0.7,0-1.4-0.2-2-0.6
	c-0.5-0.4-0.8-0.9-0.8-1.5h0.8c0,0.4,0.2,0.8,0.6,1.1c0.4,0.3,0.9,0.4,1.4,0.4c0.5,0,0.9-0.1,1.3-0.4
	C242.6,309.3,242.8,308.9,242.8,308.5z"/>
<path class="st0" d="M31.1,300.1l3.5,8.5l3.6-8.5h1.1v9.6h-0.8v-4.2l0.1-4.3l-3.6,8.5h-0.6l-3.6-8.5l0.1,4.2v4.2H30v-9.6L31.1,300.1
	z"/>
<path class="st0" d="M41.1,306c0-0.6,0.1-1.3,0.4-1.9c0.5-1.1,1.6-1.8,2.8-1.7c0.9,0,1.7,0.3,2.3,1c0.6,0.7,0.9,1.7,0.9,2.7v0.2
	c0,0.6-0.1,1.3-0.4,1.9c-0.2,0.5-0.6,1-1.1,1.3c-0.5,0.3-1.1,0.5-1.7,0.4c-0.9,0-1.7-0.3-2.3-1c-0.6-0.7-0.9-1.7-0.9-2.7V306z
	 M41.9,306.2c0,0.8,0.2,1.5,0.7,2.1c0.8,1,2.2,1.1,3.2,0.3c0.1-0.1,0.2-0.2,0.3-0.3c0.5-0.6,0.7-1.4,0.7-2.2V306
	c0-0.5-0.1-1-0.3-1.5c-0.2-0.4-0.5-0.8-0.9-1.1c-0.4-0.3-0.8-0.4-1.3-0.4c-0.7,0-1.3,0.3-1.7,0.8c-0.5,0.6-0.7,1.4-0.7,2.2
	L41.9,306.2z"/>
<path class="st0" d="M49.9,302.5l0,1.2c0.2-0.4,0.6-0.8,1-1c0.4-0.2,0.9-0.4,1.3-0.3c0.6-0.1,1.3,0.2,1.7,0.6
	c0.4,0.6,0.6,1.2,0.6,1.9v4.7h-0.8V305c0-0.5-0.1-1-0.4-1.4c-0.3-0.3-0.8-0.5-1.3-0.5c-0.5,0-0.9,0.2-1.3,0.5
	c-0.4,0.3-0.7,0.8-0.8,1.2v4.9h-0.8v-7.2L49.9,302.5z"/>
<path class="st0" d="M56.2,306c-0.1-0.9,0.2-1.9,0.7-2.7c0.5-0.6,1.2-1,2-1c0.9,0,1.7,0.4,2.2,1.2l0-1H62v7c0,0.8-0.2,1.6-0.8,2.2
	c-0.6,0.6-1.3,0.8-2.1,0.8c-0.5,0-1-0.1-1.4-0.3c-0.4-0.2-0.8-0.5-1.1-0.9l0.4-0.5c0.5,0.6,1.2,1,2,1c0.6,0,1.1-0.2,1.5-0.6
	c0.4-0.4,0.6-1,0.6-1.6v-0.9c-0.5,0.7-1.3,1.1-2.2,1.1c-0.8,0-1.5-0.3-2-1c-0.5-0.8-0.8-1.7-0.8-2.7L56.2,306z M57,306.2
	c0,0.8,0.2,1.5,0.5,2.2c0.3,0.5,0.9,0.8,1.5,0.8c0.9,0,1.7-0.5,2.1-1.3v-3.3c-0.2-0.4-0.4-0.8-0.8-1c-0.4-0.2-0.8-0.4-1.3-0.4
	c-0.6,0-1.2,0.3-1.6,0.8C57.2,304.6,57,305.4,57,306.2L57,306.2z"/>
<path class="st0" d="M63.6,306c0-0.6,0.1-1.3,0.4-1.9c0.5-1.1,1.6-1.8,2.8-1.7c0.9,0,1.7,0.3,2.3,1c0.6,0.7,0.9,1.7,0.9,2.7v0.2
	c0,0.6-0.1,1.3-0.4,1.9c-0.2,0.5-0.6,1-1.1,1.3c-0.5,0.3-1.1,0.5-1.7,0.4c-0.9,0-1.7-0.3-2.3-1c-0.6-0.7-0.9-1.7-0.9-2.7L63.6,306z
	 M64.4,306.2c0,0.8,0.2,1.5,0.7,2.1c0.8,1,2.2,1.1,3.2,0.3c0.1-0.1,0.2-0.2,0.3-0.3c0.5-0.6,0.7-1.4,0.7-2.2V306
	c0-0.5-0.1-1-0.3-1.5c-0.2-0.4-0.5-0.8-0.9-1.1c-0.4-0.3-0.8-0.4-1.3-0.4c-0.7,0-1.3,0.3-1.7,0.8c-0.5,0.6-0.7,1.4-0.7,2.2
	L64.4,306.2z"/>
<path class="st0" d="M71.5,310.5h-0.7l4-10.4h0.7L71.5,310.5z"/>
<path class="st0" d="M78,305.8v3.9h-0.8v-9.6h3.3c0.9,0,1.7,0.2,2.4,0.8c1.1,1.2,1.2,3,0,4.2c-0.7,0.5-1.6,0.8-2.4,0.7L78,305.8z
	 M78,305.1h2.5c0.6,0,1.3-0.2,1.8-0.6c0.4-0.4,0.7-1,0.6-1.6c0-0.6-0.2-1.2-0.6-1.6c-0.5-0.4-1.1-0.6-1.8-0.6H78V305.1z"/>
<path class="st0" d="M84.8,306c0-0.6,0.1-1.3,0.4-1.9c0.5-1.1,1.6-1.8,2.8-1.7c0.9,0,1.7,0.3,2.3,1c0.6,0.7,0.9,1.7,0.9,2.7v0.2
	c0,0.6-0.1,1.3-0.4,1.9c-0.2,0.5-0.6,1-1.1,1.3c-0.5,0.3-1.1,0.5-1.7,0.4c-0.9,0-1.7-0.3-2.3-1c-0.6-0.7-0.9-1.7-0.9-2.7L84.8,306z
	 M85.6,306.2c0,0.8,0.2,1.5,0.7,2.1c0.8,1,2.2,1.1,3.2,0.3c0.1-0.1,0.2-0.2,0.3-0.3c0.5-0.6,0.7-1.4,0.7-2.2V306
	c0-0.5-0.1-1-0.3-1.5c-0.2-0.4-0.5-0.8-0.9-1.1c-0.4-0.3-0.8-0.4-1.3-0.4c-0.7,0-1.3,0.3-1.7,0.8c-0.5,0.6-0.7,1.4-0.7,2.2
	L85.6,306.2z"/>
<path class="st0" d="M97.1,307.9c0-0.4-0.2-0.7-0.5-0.9c-0.4-0.3-0.9-0.5-1.4-0.6c-0.5-0.1-1-0.2-1.5-0.5c-0.3-0.1-0.6-0.4-0.8-0.6
	c-0.2-0.3-0.3-0.6-0.3-0.9c0-0.6,0.3-1.1,0.7-1.4c0.5-0.4,1.2-0.6,1.8-0.6c0.7,0,1.4,0.2,1.9,0.6c0.5,0.4,0.7,0.9,0.7,1.5h-0.8
	c0-0.4-0.2-0.8-0.5-1c-0.8-0.5-1.8-0.6-2.6-0.1c-0.3,0.2-0.5,0.5-0.5,0.9c0,0.3,0.1,0.6,0.4,0.8c0.4,0.3,0.9,0.4,1.4,0.5
	c0.5,0.1,1.1,0.3,1.6,0.5c0.3,0.2,0.6,0.4,0.8,0.7c0.5,0.8,0.3,1.8-0.5,2.4c-0.6,0.4-1.2,0.6-1.9,0.5c-0.7,0-1.4-0.2-2-0.6
	c-0.5-0.4-0.8-0.9-0.8-1.5h0.8c0,0.4,0.2,0.8,0.6,1.1c0.4,0.3,0.9,0.4,1.4,0.4c0.5,0,0.9-0.1,1.3-0.4
	C96.9,308.6,97.1,308.2,97.1,307.9z"/>
<path class="st0" d="M100.9,300.7v1.8h1.5v0.6h-1.5v4.8c0,0.3,0.1,0.6,0.2,0.9c0.2,0.2,0.4,0.3,0.7,0.3c0.2,0,0.4,0,0.6-0.1l0,0.6
	c-0.3,0.1-0.6,0.1-0.8,0.1c-0.4,0-0.9-0.1-1.2-0.5c-0.3-0.4-0.4-0.9-0.4-1.4v-4.8h-1.3v-0.6h1.3v-1.8H100.9z"/>
<path class="st0" d="M103.7,306c-0.1-0.9,0.2-1.9,0.7-2.7c0.5-0.6,1.2-1,2-1c0.9,0,1.7,0.4,2.2,1.2l0-1h0.7v7c0,0.8-0.2,1.6-0.8,2.2
	c-0.6,0.6-1.3,0.8-2.1,0.8c-0.5,0-1-0.1-1.4-0.3c-0.4-0.2-0.8-0.5-1.1-0.9l0.4-0.5c0.5,0.6,1.2,1,2,1c0.6,0,1.1-0.2,1.5-0.6
	c0.4-0.4,0.6-1,0.6-1.6v-0.9c-0.5,0.7-1.3,1.1-2.2,1.1c-0.8,0-1.5-0.3-2-1c-0.5-0.8-0.8-1.7-0.8-2.7L103.7,306z M104.5,306.2
	c0,0.8,0.2,1.5,0.5,2.2c0.3,0.5,0.9,0.8,1.5,0.8c0.9,0,1.7-0.5,2.1-1.3v-3.3c-0.2-0.4-0.4-0.8-0.8-1c-0.4-0.2-0.8-0.4-1.3-0.4
	c-0.6,0-1.2,0.3-1.6,0.8C104.7,304.6,104.5,305.4,104.5,306.2L104.5,306.2z"/>
<path class="st0" d="M114.8,303.2c-0.2,0-0.4,0-0.5,0c-0.5,0-0.9,0.1-1.3,0.4c-0.4,0.3-0.6,0.7-0.7,1.2v4.9h-0.8v-7.2h0.8l0,1.1
	c0.3-0.8,1.1-1.3,2-1.3c0.2,0,0.4,0,0.5,0.1L114.8,303.2z"/>
<path class="st0" d="M118.7,309.8c-0.6,0-1.2-0.1-1.6-0.4c-0.5-0.3-0.9-0.7-1.1-1.3c-0.3-0.6-0.4-1.2-0.4-1.8V306
	c0-0.6,0.1-1.3,0.4-1.9c0.2-0.5,0.6-1,1.1-1.3c0.5-0.3,1-0.5,1.5-0.5c0.8,0,1.5,0.3,2.1,0.9c0.5,0.7,0.8,1.6,0.8,2.4v0.4h-5.1v0.2
	c0,0.7,0.2,1.5,0.7,2c0.4,0.5,1.1,0.8,1.8,0.8c0.4,0,0.8-0.1,1.1-0.2c0.3-0.2,0.6-0.4,0.9-0.7l0.5,0.4
	C120.7,309.4,119.7,309.9,118.7,309.8z M118.6,303.1c-0.6,0-1.1,0.2-1.5,0.7c-0.4,0.5-0.7,1.1-0.7,1.8h4.3v-0.1
	c0-0.6-0.2-1.2-0.6-1.7C119.7,303.3,119.2,303.1,118.6,303.1L118.6,303.1z"/>
<path class="st0" d="M128.6,307.3c0-0.5-0.2-1-0.6-1.3c-0.6-0.4-1.3-0.7-2.1-0.9c-0.8-0.2-1.5-0.5-2.2-0.9c-1-0.7-1.3-2.1-0.6-3.1
	c0.1-0.2,0.3-0.4,0.5-0.6c0.7-0.5,1.5-0.7,2.3-0.7c0.6,0,1.2,0.1,1.7,0.4c0.5,0.2,0.9,0.6,1.2,1c0.3,0.4,0.4,1,0.4,1.5h-0.8
	c0-0.6-0.2-1.2-0.7-1.6c-0.5-0.4-1.2-0.6-1.8-0.6c-0.6,0-1.2,0.1-1.8,0.5c-0.4,0.3-0.7,0.8-0.7,1.3c0,0.5,0.2,0.9,0.6,1.2
	c0.6,0.4,1.2,0.7,1.9,0.8c0.7,0.2,1.3,0.4,2,0.7c0.4,0.2,0.7,0.5,1,0.9c0.2,0.4,0.3,0.8,0.3,1.2c0,0.7-0.3,1.4-0.9,1.8
	c-0.7,0.5-1.5,0.7-2.4,0.7c-0.6,0-1.3-0.1-1.9-0.4c-0.5-0.2-1-0.6-1.3-1c-0.3-0.4-0.4-1-0.4-1.5h0.8c0,0.6,0.3,1.2,0.8,1.6
	c0.6,0.4,1.3,0.6,2,0.6c0.6,0,1.3-0.1,1.8-0.5C128.3,308.3,128.6,307.8,128.6,307.3z"/>
<path class="st0" d="M138.2,305.4c0,0.8-0.1,1.6-0.5,2.4c-0.3,0.6-0.8,1.2-1.4,1.5l1.8,1.5l-0.6,0.5l-2-1.7
	c-0.4,0.1-0.7,0.2-1.1,0.2c-1.4,0-2.7-0.8-3.3-2.1c-0.3-0.7-0.5-1.5-0.5-2.3v-1.1c0-0.8,0.1-1.6,0.5-2.3c0.6-1.3,1.9-2.1,3.3-2.1
	c0.7,0,1.4,0.2,2,0.5c0.6,0.4,1,0.9,1.3,1.6c0.3,0.7,0.5,1.5,0.5,2.3L138.2,305.4z M137.4,304.3c0.1-1-0.2-1.9-0.8-2.7
	c-1-1.2-2.8-1.3-4-0.3c-0.1,0.1-0.2,0.2-0.3,0.3c-0.6,0.8-0.9,1.8-0.8,2.8v1c-0.1,1,0.2,1.9,0.8,2.7c1,1.2,2.8,1.3,4,0.3
	c0.1-0.1,0.2-0.2,0.3-0.3c0.6-0.8,0.8-1.8,0.8-2.7L137.4,304.3z"/>
<path class="st0" d="M141.1,309h4.8v0.7h-5.6v-9.6h0.8L141.1,309z"/>
<path class="st0" d="M319,292.3c-16.7,0-30.2-13.5-30.2-30.2s13.5-30.2,30.2-30.2c16.7,0,30.2,13.5,30.2,30.2
	C349.2,278.8,335.6,292.3,319,292.3z M319,236.4c-14.2,0-25.7,11.5-25.7,25.7c0,14.2,11.5,25.7,25.7,25.7
	c14.2,0,25.7-11.5,25.7-25.7C344.6,247.9,333.1,236.4,319,236.4L319,236.4z"/>
<path class="st0" d="M303.6,259.5v-2h3.7v9.2h-2.4v-7.2L303.6,259.5z"/>
<path class="st0" d="M316.3,262.1c0,2.4-1.2,5-3.9,5s-3.9-2.6-3.9-5s1.2-5,3.9-5S316.3,259.7,316.3,262.1z M310.9,262.1
	c0,0.9,0.3,2.9,1.5,2.9s1.5-2,1.5-2.9s-0.3-2.8-1.5-2.8S310.9,261.2,310.9,262.1z"/>
<path class="st0" d="M324.7,262.1c0,2.4-1.2,5-3.9,5s-3.9-2.6-3.9-5s1.2-5,3.9-5S324.7,259.7,324.7,262.1z M319.3,262.1
	c0,0.9,0.3,2.9,1.5,2.9s1.5-2,1.5-2.9s-0.3-2.8-1.5-2.8S319.3,261.2,319.3,262.1L319.3,262.1z"/>
<path class="st0" d="M330.2,259.6c0.2,1.4-0.8,2.6-2.2,2.8s-2.6-0.8-2.8-2.2c-0.2-1.4,0.8-2.6,2.2-2.8c0.1,0,0.2,0,0.3,0
	c1.2-0.1,2.4,0.7,2.5,2C330.2,259.4,330.2,259.5,330.2,259.6z M326.7,259.6c0,0.6,0.5,1,1,1c0.6,0,1-0.5,1-1c0-0.6-0.5-1-1-1
	C327.1,258.6,326.7,259.1,326.7,259.6z M334.2,257.5l-5.3,9.2h-1.2l5.3-9.2H334.2z M336.6,264.5c0.2,1.4-0.8,2.6-2.2,2.8
	c-1.4,0.2-2.6-0.8-2.8-2.2s0.8-2.6,2.2-2.8c0.1,0,0.2,0,0.3,0c1.2-0.1,2.4,0.7,2.5,2C336.6,264.4,336.6,264.5,336.6,264.5
	L336.6,264.5z M333.1,264.6c0,0.6,0.5,1,1,1s1-0.5,1-1c0-0.6-0.5-1-1-1C333.5,263.5,333.1,264,333.1,264.6
	C333.1,264.6,333.1,264.6,333.1,264.6L333.1,264.6z"/>
<path class="st0" d="M264.2,307.4h-4.4l-1,2.7H258l3.6-9.6h0.8l3.6,9.6h-0.8L264.2,307.4z M260.1,306.7h3.9l-1.9-5.2L260.1,306.7z"
	/>
<path class="st0" d="M267,306.5c0-0.9,0.2-1.9,0.7-2.7c0.5-0.6,1.2-1,2-1c0.9,0,1.7,0.4,2.2,1.1v-4h0.8v10.2H272l0-1
	c-0.5,0.7-1.4,1.1-2.2,1.1c-0.8,0-1.5-0.4-2-1C267.2,308.5,266.9,307.5,267,306.5L267,306.5z M267.8,306.6c0,0.8,0.2,1.5,0.5,2.2
	c0.3,0.5,0.9,0.8,1.5,0.8c0.9,0,1.7-0.5,2.1-1.3v-3.4c-0.3-0.9-1.1-1.4-2.1-1.4c-0.6,0-1.2,0.3-1.6,0.8
	C267.9,305,267.7,305.8,267.8,306.6L267.8,306.6z"/>
<path class="st0" d="M274.4,306.4c0-0.6,0.1-1.3,0.4-1.9c0.5-1.1,1.6-1.8,2.8-1.7c0.9,0,1.7,0.3,2.3,1c0.6,0.7,0.9,1.7,0.9,2.7v0.2
	c0,0.6-0.1,1.3-0.4,1.9c-0.2,0.5-0.6,1-1.1,1.3c-0.5,0.3-1.1,0.5-1.7,0.4c-0.9,0-1.7-0.3-2.3-1c-0.6-0.7-0.9-1.7-0.9-2.7
	L274.4,306.4z M275.2,306.7c0,0.8,0.2,1.5,0.7,2.1c0.8,1,2.2,1.1,3.2,0.3c0.1-0.1,0.2-0.2,0.3-0.3c0.5-0.6,0.7-1.4,0.7-2.2v-0.2
	c0-0.5-0.1-1-0.3-1.5c-0.2-0.4-0.5-0.8-0.9-1.1c-0.4-0.3-0.8-0.4-1.3-0.4c-0.7,0-1.3,0.3-1.7,0.8c-0.5,0.6-0.7,1.4-0.7,2.2
	L275.2,306.7z"/>
<path class="st0" d="M288.1,306.6c0.1,0.9-0.2,1.9-0.7,2.7c-0.5,0.6-1.2,1-2,1c-0.9,0-1.8-0.4-2.3-1.1l0,1h-0.7V300h0.8v4
	c0.5-0.8,1.3-1.2,2.2-1.2c0.8,0,1.5,0.3,2,1c0.5,0.8,0.8,1.7,0.7,2.7L288.1,306.6z M287.3,306.5c0-0.8-0.1-1.5-0.5-2.2
	c-0.3-0.5-0.9-0.8-1.5-0.8c-0.5,0-0.9,0.1-1.3,0.4c-0.4,0.3-0.7,0.7-0.8,1.1v3.2c0.3,0.9,1.2,1.4,2.1,1.3c0.6,0,1.2-0.3,1.5-0.8
	C287.2,308.1,287.4,307.3,287.3,306.5L287.3,306.5z"/>
<path class="st0" d="M292.6,310.3c-0.6,0-1.2-0.1-1.6-0.4c-0.5-0.3-0.9-0.7-1.1-1.3c-0.3-0.6-0.4-1.2-0.4-1.8v-0.3
	c0-0.6,0.1-1.3,0.4-1.9c0.2-0.5,0.6-1,1.1-1.3c0.5-0.3,1-0.5,1.5-0.5c0.8,0,1.5,0.3,2.1,0.9c0.5,0.7,0.8,1.6,0.8,2.4v0.4h-5.1v0.2
	c0,0.7,0.2,1.5,0.7,2c0.4,0.5,1.1,0.8,1.8,0.8c0.4,0,0.8-0.1,1.1-0.2c0.3-0.2,0.6-0.4,0.9-0.7l0.5,0.4
	C294.6,309.8,293.7,310.3,292.6,310.3z M292.5,303.5c-0.6,0-1.1,0.2-1.5,0.7c-0.4,0.5-0.7,1.1-0.7,1.8h4.3v-0.1
	c0-0.6-0.2-1.2-0.6-1.7C293.6,303.7,293.1,303.5,292.5,303.5L292.5,303.5z"/>
<path class="st0" d="M307.2,307.1c0,0.9-0.4,1.7-1.1,2.3c-0.7,0.6-1.6,0.9-2.5,0.8c-0.7,0-1.3-0.2-1.9-0.5c-0.6-0.4-1-0.9-1.3-1.5
	c-0.3-0.7-0.5-1.5-0.5-2.2v-1.2c0-0.8,0.1-1.6,0.4-2.3c0.3-0.6,0.7-1.2,1.3-1.5c0.6-0.4,1.3-0.6,1.9-0.5c0.9,0,1.8,0.2,2.4,0.8
	c0.6,0.6,1,1.4,1,2.3h-0.8c0-1.4-1.1-2.5-2.4-2.5c-0.1,0-0.2,0-0.2,0c-0.8,0-1.6,0.3-2.1,1c-0.6,0.8-0.8,1.7-0.8,2.7v1.2
	c0,0.9,0.2,1.9,0.8,2.7c0.5,0.6,1.2,1,2,1c0.7,0.1,1.4-0.2,1.9-0.6c0.5-0.5,0.8-1.1,0.8-1.8L307.2,307.1z"/>
<path class="st0" d="M312.3,303.7c-0.2,0-0.4,0-0.5,0c-0.5,0-0.9,0.1-1.3,0.4c-0.4,0.3-0.6,0.7-0.7,1.2v4.9H309V303h0.8l0,1.1
	c0.3-0.8,1.1-1.3,2-1.3c0.2,0,0.4,0,0.5,0.1L312.3,303.7z"/>
<path class="st0" d="M316.2,310.3c-0.6,0-1.2-0.1-1.6-0.4c-0.5-0.3-0.9-0.7-1.1-1.3c-0.3-0.6-0.4-1.2-0.4-1.8v-0.3
	c0-0.6,0.1-1.3,0.4-1.9c0.2-0.5,0.6-1,1.1-1.3c0.5-0.3,1-0.5,1.5-0.5c0.8,0,1.5,0.3,2.1,0.9c0.5,0.7,0.8,1.6,0.8,2.4v0.4h-5.1v0.2
	c0,0.7,0.2,1.5,0.7,2c0.4,0.5,1.1,0.8,1.8,0.8c0.4,0,0.8-0.1,1.1-0.2c0.3-0.2,0.6-0.4,0.9-0.7l0.5,0.4
	C318.1,309.8,317.2,310.3,316.2,310.3z M316,303.5c-0.6,0-1.1,0.2-1.5,0.7c-0.4,0.5-0.7,1.1-0.7,1.8h4.3v-0.1c0-0.6-0.2-1.2-0.6-1.7
	C317.1,303.7,316.6,303.5,316,303.5L316,303.5z"/>
<path class="st0" d="M324.9,310.1c-0.1-0.3-0.1-0.7-0.2-1c-0.3,0.4-0.6,0.6-1.1,0.8c-0.4,0.2-0.9,0.3-1.4,0.3
	c-0.6,0-1.2-0.2-1.7-0.6c-0.4-0.4-0.7-0.9-0.6-1.5c0-0.7,0.3-1.3,0.9-1.7c0.7-0.4,1.6-0.7,2.4-0.6h1.4v-0.8c0-0.5-0.1-0.9-0.5-1.2
	c-0.4-0.3-0.9-0.5-1.4-0.4c-0.5,0-1,0.1-1.4,0.4c-0.3,0.2-0.5,0.6-0.5,1l-0.8,0c0-0.6,0.3-1.1,0.8-1.5c0.6-0.4,1.2-0.6,2-0.6
	c0.7,0,1.4,0.2,1.9,0.6c0.5,0.4,0.7,1,0.7,1.7v3.4c0,0.5,0,1.1,0.2,1.6v0.1L324.9,310.1z M322.4,309.6c0.5,0,1-0.1,1.4-0.4
	c0.4-0.2,0.7-0.6,0.9-1v-1.6h-1.4c-0.6,0-1.3,0.1-1.9,0.4c-0.4,0.2-0.7,0.7-0.7,1.2c0,0.4,0.2,0.8,0.4,1
	C321.6,309.4,322,309.6,322.4,309.6L322.4,309.6z"/>
<path class="st0" d="M328.9,301.1v1.8h1.5v0.6h-1.5v4.8c0,0.3,0.1,0.6,0.2,0.9c0.2,0.2,0.4,0.3,0.7,0.3c0.2,0,0.4,0,0.6-0.1l0,0.6
	c-0.3,0.1-0.6,0.1-0.8,0.1c-0.4,0-0.9-0.1-1.2-0.5c-0.3-0.4-0.4-0.9-0.4-1.4v-4.8h-1.3V303h1.3v-1.8L328.9,301.1z"/>
<path class="st0" d="M331.9,300.9c0-0.1,0-0.3,0.1-0.4c0.1-0.1,0.3-0.2,0.4-0.2c0.1,0,0.3,0,0.4,0.2c0.1,0.1,0.2,0.2,0.1,0.4
	c0,0.1-0.1,0.3-0.1,0.4c-0.1,0.1-0.3,0.2-0.4,0.2C332.2,301.5,331.9,301.2,331.9,300.9C331.9,300.9,331.9,300.9,331.9,300.9
	L331.9,300.9z M332.9,310.1h-0.8V303h0.8V310.1z"/>
<path class="st0" d="M337.2,309l2.2-6.1h0.8l-2.7,7.2h-0.6l-2.7-7.2h0.8L337.2,309z"/>
<path class="st0" d="M344.2,310.3c-0.6,0-1.2-0.1-1.6-0.4c-0.5-0.3-0.9-0.7-1.1-1.3c-0.3-0.6-0.4-1.2-0.4-1.8v-0.3
	c0-0.6,0.1-1.3,0.4-1.9c0.2-0.5,0.6-1,1.1-1.3c0.5-0.3,1-0.5,1.5-0.5c0.8,0,1.5,0.3,2.1,0.9c0.5,0.7,0.8,1.6,0.8,2.4v0.4h-5.1v0.2
	c0,0.7,0.2,1.5,0.7,2c0.4,0.5,1.1,0.8,1.8,0.8c0.4,0,0.8-0.1,1.1-0.2c0.3-0.2,0.6-0.4,0.9-0.7l0.5,0.4
	C346.2,309.8,345.2,310.3,344.2,310.3z M344.1,303.5c-0.6,0-1.1,0.2-1.5,0.7c-0.4,0.5-0.7,1.1-0.7,1.8h4.3v-0.1
	c0-0.6-0.2-1.2-0.6-1.7C345.2,303.7,344.6,303.5,344.1,303.5L344.1,303.5z"/>
<path class="st0" d="M357.3,307.8c0-0.5-0.2-1-0.6-1.3c-0.6-0.4-1.3-0.7-2.1-0.9c-0.8-0.2-1.5-0.5-2.2-0.9c-1-0.7-1.3-2.1-0.6-3.1
	c0.1-0.2,0.3-0.4,0.5-0.6c0.7-0.5,1.5-0.7,2.3-0.7c0.6,0,1.2,0.1,1.7,0.4c0.5,0.2,0.9,0.6,1.2,1c0.3,0.4,0.4,1,0.4,1.5h-0.8
	c0-0.6-0.2-1.2-0.7-1.6c-0.5-0.4-1.2-0.6-1.8-0.6c-0.6,0-1.2,0.1-1.8,0.5c-0.4,0.3-0.7,0.8-0.7,1.3c0,0.5,0.2,0.9,0.6,1.2
	c0.6,0.4,1.2,0.7,1.9,0.8c0.7,0.2,1.3,0.4,2,0.7c0.4,0.2,0.7,0.5,1,0.9c0.2,0.4,0.3,0.8,0.3,1.2c0,0.7-0.3,1.4-0.9,1.8
	c-0.7,0.5-1.5,0.7-2.4,0.7c-0.6,0-1.3-0.1-1.9-0.4c-0.5-0.2-1-0.6-1.3-1c-0.3-0.4-0.4-1-0.4-1.5h0.8c0,0.6,0.3,1.2,0.8,1.6
	c0.6,0.4,1.3,0.6,2,0.6c0.6,0,1.3-0.1,1.8-0.5C357.1,308.8,357.4,308.3,357.3,307.8z"/>
<path class="st0" d="M364.3,309.2c-0.5,0.7-1.4,1.1-2.3,1c-0.6,0-1.3-0.2-1.7-0.7c-0.4-0.6-0.7-1.3-0.6-2V303h0.8v4.6
	c0,1.4,0.6,2,1.7,2c1,0.1,1.9-0.5,2.2-1.4V303h0.8v7.2h-0.8L364.3,309.2z"/>
<path class="st0" d="M367.1,300.9c0-0.1,0-0.3,0.1-0.4c0.1-0.1,0.3-0.2,0.4-0.2c0.1,0,0.3,0,0.4,0.2c0.1,0.1,0.2,0.2,0.1,0.4
	c0,0.1-0.1,0.3-0.1,0.4c-0.1,0.1-0.3,0.2-0.4,0.2C367.4,301.5,367.1,301.2,367.1,300.9C367.1,300.9,367.1,300.9,367.1,300.9
	L367.1,300.9z M368.1,310.1h-0.8V303h0.8V310.1z"/>
<path class="st0" d="M371.4,301.1v1.8h1.5v0.6h-1.5v4.8c0,0.3,0.1,0.6,0.2,0.9c0.2,0.2,0.4,0.3,0.7,0.3c0.2,0,0.4,0,0.6-0.1l0,0.6
	c-0.3,0.1-0.6,0.1-0.8,0.1c-0.4,0-0.9-0.1-1.2-0.5c-0.3-0.4-0.4-0.9-0.4-1.4v-4.8h-1.3V303h1.3v-1.8L371.4,301.1z"/>
<path class="st0" d="M377.3,310.3c-0.6,0-1.2-0.1-1.6-0.4c-0.5-0.3-0.9-0.7-1.1-1.3c-0.3-0.6-0.4-1.2-0.4-1.8v-0.3
	c0-0.6,0.1-1.3,0.4-1.9c0.2-0.5,0.6-1,1.1-1.3c0.5-0.3,1-0.5,1.5-0.5c0.8,0,1.5,0.3,2.1,0.9c0.5,0.7,0.8,1.6,0.8,2.4v0.4h-5.1v0.2
	c0,0.7,0.2,1.5,0.7,2c0.4,0.5,1.1,0.8,1.8,0.8c0.4,0,0.8-0.1,1.1-0.2c0.3-0.2,0.6-0.4,0.9-0.7l0.5,0.4
	C379.3,309.8,378.3,310.3,377.3,310.3z M377.2,303.5c-0.6,0-1.1,0.2-1.5,0.7c-0.4,0.5-0.7,1.1-0.7,1.8h4.3v-0.1
	c0-0.6-0.2-1.2-0.6-1.7C378.3,303.7,377.7,303.5,377.2,303.5L377.2,303.5z"/>
</svg>
