<?xml version="1.0" encoding="utf-8"?>
<!-- Generator: Adobe Illustrator 21.1.0, SVG Export Plug-In . SVG Version: 6.00 Build 0)  -->
<svg version="1.1" id="Layer_1" xmlns="http://www.w3.org/2000/svg" xmlns:xlink="http://www.w3.org/1999/xlink" x="0px" y="0px"
	 viewBox="0 0 392.6 409.2" style="enable-background:new 0 0 392.6 409.2;" xml:space="preserve">
<style type="text/css">
	.st0{display:none;fill:#FFFFFF;}
	.st1{display:none;}
	.st2{fill:#FFFFFF;}
	.st3{fill:#6D6D6D;}
	.st4{fill:#B3B3B3;}
	.st5{fill:#BCBCBC;}
	.st6{fill:#EDEDED;}
	.st7{fill:#A3A3A3;}
	.st8{fill:#BBBBBB;}
	.st9{fill:#F2F2F2;}
	.st10{fill:#5F5F5F;}
	.st11{fill:#757575;}
	.st12{fill:#6B6B6B;}
	.st13{fill:#A4A4A4;}
	.st14{fill:#8F8F8F;}
	.st15{fill:#A1A1A1;}
	.st16{fill:url(#SVGID_1_);}
	.st17{fill:url(#SVGID_2_);}
	.st18{fill:url(#SVGID_3_);}
	.st19{fill:url(#SVGID_4_);}
	.st20{fill:url(#SVGID_5_);}
	.st21{fill:url(#SVGID_6_);}
	.st22{fill:#CBCBCB;}
	.st23{fill:url(#SVGID_7_);}
	.st24{fill:url(#SVGID_8_);}
	.st25{fill:url(#SVGID_9_);}
	.st26{fill:url(#SVGID_10_);}
	.st27{fill:url(#SVGID_11_);}
	.st28{fill:url(#SVGID_12_);}
	.st29{fill:url(#SVGID_13_);}
	.st30{fill:url(#SVGID_14_);}
	.st31{fill:url(#SVGID_15_);}
	.st32{fill:url(#SVGID_16_);}
	.st33{fill:url(#SVGID_17_);}
	.st34{fill:url(#SVGID_18_);}
	.st35{fill:#3D3D3D;}
	.st36{fill:url(#SVGID_19_);}
	.st37{fill:url(#SVGID_20_);}
	.st38{fill:url(#SVGID_21_);}
	.st39{fill:url(#SVGID_22_);}
	.st40{fill:url(#shadow_2_);}
	.st41{fill:url(#brim_2_);}
	.st42{fill:#CFCFCF;}
	.st43{fill:url(#crown_2_);}
	.st44{fill:url(#side-dent_2_);}
	.st45{fill:url(#gutter-dent_2_);}
	.st46{fill:url(#ribbon_2_);}
	.st47{fill:#575757;}
</style>
<path class="st0" d="M48.4,69.4h-6.3v16.2h-3.7V69.4h-6.3v-3.3h16.3V69.4z"/>
<path class="st0" d="M53.9,85.8c-1.1,0-2.2-0.2-3.2-0.6c-0.9-0.4-1.7-0.9-2.4-1.7c-0.6-0.7-1.2-1.5-1.5-2.4
	c-0.4-0.9-0.5-1.9-0.5-2.8c0-1,0.1-1.9,0.5-2.9c0.4-0.9,0.9-1.7,1.5-2.4s1.5-1.2,2.4-1.7c1-0.4,2.1-0.6,3.2-0.6
	c1.1,0,2.2,0.2,3.2,0.6c0.9,0.4,1.7,0.9,2.4,1.7c0.6,0.7,1.2,1.5,1.5,2.4c0.4,0.9,0.5,1.9,0.5,2.9c0,0.9-0.1,1.9-0.5,2.8
	s-0.9,1.7-1.5,2.4c-0.6,0.7-1.4,1.3-2.4,1.7C56.1,85.7,55,85.9,53.9,85.8z M50.2,78.4c0,0.6,0.1,1.2,0.3,1.7
	c0.1,0.5,0.4,0.9,0.8,1.4c0.4,0.4,0.7,0.6,1.2,0.9c0.9,0.4,2,0.4,3,0c0.4-0.2,0.9-0.5,1.2-0.9c0.4-0.4,0.6-0.9,0.8-1.4
	c0.2-0.6,0.3-1.2,0.3-1.7s-0.1-1.2-0.3-1.7c-0.1-0.5-0.4-0.9-0.8-1.4c-0.4-0.4-0.7-0.6-1.2-0.9c-0.4-0.2-1-0.3-1.5-0.3
	s-1,0.1-1.5,0.4c-0.4,0.2-0.9,0.5-1.2,0.9c-0.4,0.4-0.6,0.9-0.8,1.4C50.2,77.2,50.2,77.8,50.2,78.4z"/>
<path class="st0" d="M70.6,85.8c-1.1,0-2.2-0.2-3.2-0.6c-0.9-0.4-1.7-0.9-2.4-1.7c-0.6-0.7-1.2-1.5-1.5-2.4
	c-0.4-0.9-0.5-1.9-0.5-2.8c0-1,0.1-1.9,0.5-2.9c0.4-0.9,0.9-1.7,1.5-2.4c0.6-0.7,1.5-1.2,2.4-1.7c1-0.4,2.1-0.6,3.2-0.6
	s2.2,0.2,3.2,0.6c0.9,0.4,1.7,0.9,2.4,1.7s1.2,1.5,1.5,2.4c0.4,0.9,0.5,1.9,0.5,2.9c0,0.9-0.1,1.9-0.5,2.8s-0.9,1.7-1.5,2.4
	c-0.6,0.7-1.4,1.3-2.4,1.7C72.8,85.7,71.7,85.9,70.6,85.8z M66.8,78.4c0,0.6,0.1,1.2,0.3,1.7c0.1,0.5,0.4,0.9,0.8,1.4
	c0.4,0.4,0.7,0.6,1.2,0.9c0.9,0.4,2,0.4,3,0c0.4-0.2,0.9-0.5,1.2-0.9c0.4-0.4,0.6-0.9,0.8-1.4c0.2-0.6,0.3-1.2,0.3-1.7
	s-0.1-1.2-0.3-1.7c-0.1-0.5-0.4-0.9-0.8-1.4c-0.4-0.4-0.7-0.6-1.2-0.9c-0.4-0.2-1-0.3-1.5-0.3s-1,0.1-1.5,0.4
	c-0.4,0.2-0.9,0.5-1.2,0.9c-0.4,0.4-0.6,0.9-0.8,1.4C67,77.2,66.8,77.8,66.8,78.4z"/>
<path class="st0" d="M80.6,65.5h3.7V81c0,0.4,0.1,0.9,0.4,1.2c0.3,0.3,0.7,0.4,1.1,0.4c0.2,0,0.5-0.1,0.7-0.1
	c0.3-0.1,0.5-0.1,0.8-0.3l0.5,2.8c-0.6,0.3-1.2,0.4-1.7,0.6s-1.2,0.2-1.8,0.2c-1,0.1-1.9-0.3-2.7-0.9c-0.6-0.7-1-1.7-0.9-2.6
	L80.6,65.5z"/>
<rect class="st1" width="392.6" height="409.2"/>
<path class="st0" d="M94.8,85.8c-1.2,0-2.4-0.2-3.5-0.6s-2.1-0.9-3-1.7l1.4-2.3c0.8,0.6,1.7,1.1,2.6,1.4c0.8,0.3,1.7,0.5,2.5,0.5
	c0.6,0,1.2-0.1,1.7-0.4c0.4-0.2,0.6-0.7,0.6-1.2s-0.3-0.9-0.7-1.2c-0.8-0.4-1.6-0.6-2.4-0.8c-0.9-0.3-1.7-0.5-2.4-0.7
	C91,78.6,90.5,78.4,90,78c-0.4-0.3-0.6-0.6-0.9-1.1c-0.2-0.4-0.3-0.9-0.3-1.4c0-0.6,0.1-1.4,0.4-2s0.7-1.1,1.2-1.5s1.2-0.7,1.8-0.9
	c0.7-0.2,1.5-0.4,2.2-0.4c1,0,2.1,0.1,3,0.5c0.9,0.3,1.9,0.9,2.6,1.5l-1.5,2.2c-0.6-0.5-1.4-0.9-2.2-1.2c-0.6-0.2-1.4-0.4-2-0.4
	s-1.1,0.1-1.6,0.4c-0.4,0.3-0.6,0.7-0.6,1.2c0,0.2,0.1,0.4,0.1,0.6c0.1,0.2,0.3,0.4,0.5,0.4c0.3,0.1,0.6,0.3,0.9,0.4
	c0.4,0.1,0.8,0.2,1.4,0.4c1,0.3,1.9,0.5,2.5,0.8c0.6,0.2,1.2,0.5,1.7,0.9c0.4,0.3,0.8,0.7,1,1.2s0.4,1,0.3,1.6
	c0.1,1.3-0.5,2.5-1.6,3.3C97.8,85.5,96.3,86,94.8,85.8z"/>
<g>
	<g>
		<polygon class="st2" points="73,76.1 73,70.9 60.8,70.9 60.8,86.1 73,86.1 73,80.9 66,80.9 66,76.1 		"/>
		<polygon class="st2" points="90.6,70.9 78.2,70.9 78.2,76.2 83.4,80.9 78.2,80.9 78.2,86.1 90.6,86.1 90.6,81 86,76.1 90.6,76.1 
					"/>
		<polygon class="st2" points="108.6,70.9 96.2,70.9 96.2,76.2 101.3,80.9 96.2,80.9 96.2,86.1 108.6,86.1 108.6,81 103.8,76.1 
			108.6,76.1 		"/>
		<polygon class="st3" points="52,174.5 44.8,93 124.6,93 117.4,174.4 84.6,183.6 		"/>
		<polygon class="st4" points="84.8,176.5 111.1,169.3 117.3,99.8 84.8,99.8 		"/>
		<polygon class="st5" points="61.4,129.6 62.2,139.6 84.8,129.6 84.8,119.6 		"/>
		<polygon class="st6" points="109.7,109 84.8,119.6 84.8,129.6 108.7,119 		"/>
		<polygon class="st6" points="84.8,155.7 84.6,155.9 73.6,152.8 72.8,144.8 62.8,144.8 64.1,160.5 84.6,166.3 84.8,166.3 		"/>
		<polygon class="st2" points="84.8,129.6 84.8,139.6 97,139.6 95.8,152.7 84.8,155.9 84.8,166.3 105.1,160.5 107.9,129.6 		"/>
		<polygon class="st6" points="84.8,129.6 61.4,129.6 62.2,139.6 84.8,139.6 		"/>
		<polygon class="st6" points="84.8,119 84.8,109 84.6,109 59.6,109 60.5,119 		"/>
		<polygon class="st2" points="84.8,109 84.8,118.8 84.8,119 108.7,119 109.7,109 		"/>
	</g>
	<g>
		<polygon class="st7" points="254.1,66.9 202.9,66.9 202.9,66.9 151.9,66.9 161.5,170.6 202.9,182.5 202.9,182.5 202.9,182.5 
			202.9,182.5 202.9,182.5 244.5,170.6 		"/>
		<polygon class="st8" points="202.9,75.3 202.9,173.7 202.9,173.7 236.6,164.1 244.7,75.3 		"/>
		<polygon class="st2" points="229.7,88.1 178,88.1 174.4,127 174.4,126.7 218.4,126.7 216.9,143.1 202.9,147.2 188.7,143.1 
			187.9,133.1 174.9,133.1 176.8,153.1 202.9,160.4 229,153.1 232.6,113.9 186.1,113.9 186.7,101 219,101 219.4,108.4 232.5,108.4 
					"/>
		<g>
			<path class="st9" d="M202.9,88.1H178l-3.6,38.9l0.1-0.3H203V114h-15l0.5-13.1H203L202.9,88.1L202.9,88.1z M187.9,133.1H175
				l1.9,19.8l26.1,7.5v-13.2l-14.3-4.1L187.9,133.1z"/>
		</g>
		<g>
			<polygon class="st2" points="193.1,51.6 183.9,51.6 183.9,58.1 193.1,58.1 197.9,58.1 199.5,58.1 199.5,38.6 193.1,38.6 			"/>
			<path class="st2" d="M222,38.8h-15.9c0,0,0,3.5,0,6.8c2.1,2.1,3.2,3.2,6.3,6.3c-1.7,0-6.3,0-6.3,0v6.3H222v-6.3l-6.4-6.3h6.4
				V38.8z"/>
		</g>
	</g>
	<g>
		<polygon class="st10" points="288.7,173.8 281.5,92.9 360.9,92.9 353.7,173.8 321.2,182.9 		"/>
		<polygon class="st11" points="321.2,176 347.4,168.6 353.6,99.5 321.2,99.5 		"/>
		<polygon class="st9" points="321.2,129.5 308,129.5 307.1,119.4 321.2,119.4 321.2,109.4 321.2,109.4 296.3,109.4 296.6,112 
			299,139.5 321.2,139.5 		"/>
		<polygon class="st9" points="321.2,155.3 321.2,155.3 310.1,152.4 309.3,144.4 304,144.4 299.4,144.4 300.8,160 321.2,165.7 
			321.2,165.7 		"/>
		<path class="st2" d="M288.8,70.9h5.1v4.9h4.7v-4.9h5.1V86h-5.1v-5.1h-4.7V86h-5.1V70.9L288.8,70.9z"/>
		<path class="st2" d="M310.3,75.8h-4.4v-5.1h14v5.1h-4.4v10.1h-5.1L310.3,75.8L310.3,75.8z"/>
		<path class="st2" d="M322,70.9h5.3l3.2,5.3l3.2-5.3h5.3V86h-5v-7.5l-3.5,5.3h-0.1l-3.5-5.3V86H322V70.9L322,70.9z"/>
		<path class="st2" d="M341.5,70.9h5.1V81h7.1v4.9h-12.1L341.5,70.9L341.5,70.9z"/>
		<polygon class="st2" points="321.2,129.5 321.2,139.5 333.5,139.5 332.3,152.4 321.2,155.3 321.2,165.7 341.6,160 341.7,158.4 
			344,132.1 344.3,129.5 341.6,129.5 		"/>
		<polygon class="st2" points="321.2,109.4 321.2,115.6 321.2,119.4 321.2,119.4 345.2,119.4 345.2,119.4 345.2,119.4 345.3,117.1 
			345.8,112 346.1,109.4 		"/>
	</g>
</g>
<g>
	<g>
		<g>
			<path class="st8" d="M177.9,337.3c-0.2,0-0.5,0.1-0.7,0.2l-6.7,3.9c-0.4,0.2-0.7,0.7-0.7,1.2v7.7c0,0.5,0.3,1,0.7,1.2l1.7,1
				c0.8,0.4,1.1,0.4,1.5,0.4c1.2,0,2-0.8,2-2.1v-7.6c0-0.1-0.1-0.2-0.2-0.2h-0.8c-0.1,0-0.2,0.1-0.2,0.2v7.6c0,0.6-0.6,1.2-1.6,0.7
				l-1.8-1.1c-0.1,0-0.1-0.1-0.1-0.2v-7.7c0-0.1,0-0.1,0.1-0.2l6.7-3.9c0.1,0,0.1,0,0.2,0l6.7,3.9c0.1,0,0.1,0.1,0.1,0.2v7.7
				c0,0.1,0,0.1-0.1,0.2l-6.7,3.9c-0.1,0-0.1,0-0.2,0l-1.7-1c-0.1,0-0.1,0-0.2,0c-0.5,0.3-0.6,0.3-1,0.4c-0.1,0-0.3,0.1,0.1,0.3
				l2.2,1.3c0.2,0.1,0.4,0.2,0.7,0.2c0.2,0,0.5-0.1,0.7-0.2l6.7-3.9c0.4-0.2,0.7-0.7,0.7-1.2v-7.7c0-0.5-0.3-1-0.7-1.2l-6.7-3.9
				C178.4,337.4,178.2,337.3,177.9,337.3L177.9,337.3z"/>
			<path class="st8" d="M179.7,342.9c-1.9,0-3,0.8-3,2.1c0,1.4,1.1,1.8,2.9,2c2.2,0.2,2.3,0.5,2.3,1c0,0.7-0.6,1.1-2,1.1
				c-1.7,0-2.1-0.4-2.3-1.3c0-0.1-0.1-0.2-0.2-0.2h-0.9c-0.1,0-0.2,0.1-0.2,0.2c0,1.1,0.6,2.4,3.5,2.4c2.1,0,3.3-0.8,3.3-2.3
				c0-1.4-1-1.8-3-2.1c-2.1-0.3-2.2-0.4-2.2-0.9c0-0.4,0.2-0.9,1.7-0.9c1.4,0,1.9,0.3,2.1,1.2c0,0.1,0.1,0.2,0.2,0.2h0.9
				c0.1,0,0.1,0,0.1-0.1l0.1-0.1C182.9,343.6,181.8,342.9,179.7,342.9L179.7,342.9z"/>
		</g>
		<path class="st2" d="M138.5,327.2c-0.1,0-0.1,0-0.2,0.1c-0.1,0.1-0.2,0.2-0.2,0.4v10.8c0,0.1,0,0.2-0.1,0.3
			c-0.1,0.1-0.2,0.1-0.3,0l-1.8-1c-0.3-0.2-0.6-0.2-0.8,0l-7.1,4.1c-0.3,0.2-0.4,0.4-0.4,0.7v8.2c0,0.3,0.2,0.6,0.4,0.7l7.1,4.1
			c0.3,0.2,0.6,0.2,0.8,0l7.1-4.1c0.3-0.2,0.4-0.4,0.4-0.7v-20.5c0-0.3-0.2-0.6-0.4-0.7l-4.3-2.3
			C138.6,327.2,138.5,327.2,138.5,327.2L138.5,327.2z M92.8,337.4c-0.1,0-0.3,0-0.4,0.1l-7.1,4.1c-0.3,0.2-0.4,0.4-0.4,0.7v11.1
			c0,0.2,0.1,0.3,0.2,0.4s0.3,0.1,0.4,0l4.3-2.4c0.3-0.2,0.4-0.4,0.4-0.7v-5.2c0-0.3,0.2-0.6,0.4-0.7l1.8-1c0.1-0.1,0.3-0.1,0.4-0.1
			s0.3,0,0.4,0.1l1.8,1c0.3,0.1,0.4,0.4,0.4,0.7v5.2c0,0.3,0.2,0.6,0.4,0.7l4.3,2.4c0.1,0.1,0.3,0.1,0.4,0s0.2-0.2,0.2-0.4v-11.1
			c0-0.3-0.2-0.6-0.4-0.7l-7.1-4.1C93.2,337.4,93,337.4,92.8,337.4L92.8,337.4z M156.7,337.5c-0.1,0-0.3,0-0.4,0.1l-7.1,4.1
			c-0.3,0.2-0.4,0.4-0.4,0.7v8.2c0,0.3,0.2,0.6,0.4,0.7l7,4.1c0.3,0.1,0.6,0.2,0.8,0l4.3-2.3c0.1-0.1,0.2-0.2,0.2-0.4
			c0-0.2-0.1-0.3-0.2-0.4l-7.1-4.1c-0.1-0.1-0.2-0.2-0.2-0.4v-2.5c0-0.2,0.1-0.3,0.2-0.4l2.2-1.3c0.1-0.1,0.3-0.1,0.4,0l2.2,1.3
			c0.1,0.1,0.2,0.2,0.2,0.4v2c0,0.2,0.1,0.3,0.2,0.4c0.1,0.1,0.3,0.1,0.4,0l4.3-2.4c0.3-0.2,0.4-0.4,0.4-0.7v-2
			c0-0.3-0.2-0.6-0.4-0.7l-7.1-4.1C157,337.5,156.8,337.5,156.7,337.5L156.7,337.5z M135.4,343.6h0.1l2.4,1.4c0.1,0,0.1,0.1,0.1,0.2
			v2.8c0,0.1,0,0.1-0.1,0.2l-2.4,1.4c-0.1,0-0.1,0-0.2,0l-2.4-1.4c-0.1,0-0.1-0.1-0.1-0.2v-2.8c0-0.1,0-0.1,0.1-0.2L135.4,343.6
			C135.3,343.7,135.4,343.6,135.4,343.6L135.4,343.6L135.4,343.6z"/>
		<path class="st8" d="M114.2,337.5c-0.1,0-0.3,0-0.4,0.1l-7.1,4.1c-0.3,0.2-0.4,0.4-0.4,0.7v8.2c0,0.3,0.2,0.6,0.4,0.7l7.1,4.1
			c0.3,0.2,0.6,0.2,0.8,0l7.1-4.1c0.3-0.2,0.4-0.4,0.4-0.7v-8.2c0-0.3-0.2-0.6-0.4-0.7l-7.1-4.1
			C114.4,337.5,114.3,337.5,114.2,337.5L114.2,337.5z M156.6,344.8L156.6,344.8l-1.4,0.8c-0.1,0-0.1,0.1-0.1,0.1v1.5
			c0,0.1,0,0.1,0.1,0.1l1.3,0.8c0.1,0,0.1,0,0.2,0l1.3-0.8c0.1,0,0.1-0.1,0.1-0.1v-1.5c0-0.1,0-0.1-0.1-0.1L156.6,344.8
			C156.7,344.8,156.7,344.8,156.6,344.8L156.6,344.8z"/>
	</g>
	<g>
		<g>
			<path class="st12" d="M337.5,336c-0.1,0-0.3,0.3-0.3,0.5c0,1-0.1,3.8-0.1,5.7c0,0.1,0.1,0.2,0.2,0.2c0.4,0,1.3,0.1,2.1,0.1
				c1.1,0,1.7-0.2,2.1-0.3c0.9-0.5,1.4-1.5,1.4-2.6c0-2.5-1.7-3.4-4.4-3.4C338.4,335.9,337.8,335.9,337.5,336L337.5,336z
				 M344.1,347.7c0-2.5-1.9-4.1-5.4-4.1c-0.2,0-1.2,0-1.5,0c-0.1,0-0.2,0.1-0.2,0.2c0,1.8,0,4.8,0.1,5.9c0.1,0.5,0.4,1.2,0.8,1.4
				c0.5,0.3,1.5,0.3,2.2,0.3C342.3,351.4,344.1,350.3,344.1,347.7L344.1,347.7z M332.1,334.6c0.3,0,1,0.1,3,0.1
				c1.9,0,3.4-0.1,5.3-0.1c2.2,0,5.4,0.8,5.4,4.2c0,1.6-1.2,3-2.7,3.7c-0.1,0-0.1,0.1,0,0.1c2.2,0.5,4.2,1.9,4.2,4.5
				s-1.5,4.1-3.9,5.1c-1.4,0.6-3.1,0.8-4.9,0.8c-1.3,0-4.9-0.2-6.9-0.1c-0.2-0.1,0.2-1,0.4-1.2c0.5,0,0.8-0.1,1.3-0.2
				c0.7-0.2,0.8-0.4,0.9-1.4c0.1-0.9,0.1-4.2,0.1-6.4c0-3.1,0-5.3,0-6.3c0-0.8-0.3-1.1-0.9-1.2c-0.4-0.1-1.2-0.2-1.7-0.3
				C331.5,335.6,332,334.7,332.1,334.6L332.1,334.6z M317.1,350.7c0.6,0.5,1.8,0.7,2.9,0.7c1.4,0,2.8-0.3,4.2-1.5
				c1.4-1.2,2.3-3.1,2.3-6.3c0-2.9-1.1-5.4-3.4-6.7c-1.3-0.8-2.9-1.1-4.9-1.1c-0.6,0-1.1,0-1.4,0.2c-0.1,0.1-0.3,0.3-0.3,0.4
				c-0.1,0.5-0.1,4.6-0.1,6.9c0,2.4,0,5.8,0.1,6.2C316.6,349.9,316.7,350.5,317.1,350.7L317.1,350.7z M311.2,334.6
				c0.5,0,2.4,0.1,3.3,0.1c1.6,0,2.8-0.1,5.9-0.1c2.6,0,4.8,0.7,6.4,2c1.9,1.6,2.8,3.9,2.8,6.7c0,4-1.8,6.2-3.5,7.5
				c-1.8,1.3-4.2,2.1-7.5,2.1c-1.7,0-4.8-0.1-7.3-0.1l0,0c-0.1-0.2,0.2-1.1,0.4-1.2c0.7-0.1,0.8-0.1,1.2-0.2
				c0.5-0.2,0.6-0.5,0.7-1.4c0.1-1.8,0.1-4,0.1-6.4c0-1.7,0-5.2,0-6.3c-0.1-0.9-0.5-1.1-1.2-1.3c-0.4-0.1-0.9-0.2-1.6-0.3
				C310.6,335.5,311.1,334.7,311.2,334.6L311.2,334.6z"/>
			<path class="st2" d="M279.8,351.7c-0.6-0.1-1.1-0.2-1.7-0.4c-0.1-0.1-0.2-0.3-0.2-0.4c-0.1-0.9-0.1-3.5-0.1-5.3
				c0-1.4-0.2-2.6-0.8-3.4c-0.7-1-1.7-1.5-3-1.5c-1.1,0-2.6,0.8-4,1.8c0,0-0.2,0.2-0.2-0.1c0-0.3,0.1-0.8,0.1-1.2
				c0-0.4-0.2-0.5-0.2-0.5c-0.8,0.4-3.1,0.9-4.1,1c-0.6,0.1-0.8,0.7-0.1,0.9l0,0c0.7,0.2,1.2,0.4,1.5,0.7c0.3,0.2,0.2,0.5,0.2,0.7
				c0,1.9,0,5-0.1,6.6c0,0.6-0.2,0.9-0.7,1h0.1c-0.4,0.1-0.6,0.2-1.1,0.2c-0.2,0.2-0.2,1,0,1.2c0.3,0,1.8-0.1,3-0.1
				c1.7,0,2.6,0.1,3,0.1c0.2-0.2,0.2-1,0.1-1.2c-0.5,0-0.8-0.1-1.2-0.2c-0.5-0.1-0.6-0.3-0.6-0.9c-0.1-1.4-0.1-4.3-0.1-6.3
				c0-0.5,0.2-0.8,0.3-0.9c0.6-0.5,1.5-0.9,2.4-0.9c0.8,0,1.4,0.3,1.8,0.6c0.6,0.5,0.7,1.1,0.8,1.6c0.1,1.1,0.1,3.3,0.1,5.3
				c0,1-0.1,1.3-0.5,1.4c-0.2,0.1-0.6,0.2-1.2,0.2c-0.2,0.2-0.1,1,0,1.2c0.7,0,1.6-0.1,2.9-0.1c1.6,0,2.6,0.1,3,0.1
				C279.8,352.7,279.9,351.9,279.8,351.7L279.8,351.7z M287,341.8c-1.4,0-2.2,1.1-2.2,2.7c0,1.7,0.7,3.7,2.8,3.7
				c0.4,0,1-0.2,1.3-0.5c0.5-0.5,0.8-1.4,0.8-2.4C289.8,343.1,288.7,341.8,287,341.8L287,341.8z M286.8,353.3
				c-0.5,0-0.9,0.2-1.1,0.3c-1.1,0.7-1.6,1.4-1.6,2.2c0,0.7,0.3,1.3,0.9,1.8c0.7,0.6,1.8,0.9,3.1,0.9c2.6,0,3.9-1.4,3.9-2.8
				c0-1-0.5-1.6-1.5-2C289.7,353.4,288.4,353.3,286.8,353.3L286.8,353.3z M287,360c-1.6,0-2.7-0.3-3.8-1.1c-0.9-0.7-1.4-1.8-1.4-2.5
				c0-0.2,0.1-0.8,0.5-1.3c0.3-0.3,0.9-0.9,2.4-1.9c0.1,0,0.1-0.1,0.1-0.1c0-0.1-0.1-0.1-0.1-0.1c-1.2-0.5-1.6-1.2-1.7-1.6v-0.1
				c0-0.2-0.1-0.3,0.2-0.5c0.2-0.1,0.4-0.3,0.7-0.5c0.4-0.3,0.9-0.5,1.2-0.8c0.1-0.1,0.1-0.1,0.1-0.2s-0.1-0.1-0.1-0.1
				c-1.8-0.6-2.7-1.9-2.7-4c0-1.3,0.6-2.5,1.6-3.2c0.7-0.6,2.5-1.3,3.8-1.3h0.1c1.2,0,1.9,0.3,2.8,0.6c0.5,0.2,1,0.3,1.7,0.3
				c1,0,1.4-0.3,1.8-0.7c0,0.1,0.1,0.2,0.1,0.5s-0.1,0.8-0.3,1.2c-0.2,0.3-0.7,0.5-1.1,0.5h-0.1c-0.5-0.1-0.7-0.1-0.7-0.1l-0.1,0
				c0,0.1,0,0.1,0,0.2v0.1c0.1,0.2,0.2,0.9,0.2,1.1c0,2.1-0.8,3-1.7,3.8c-0.9,0.6-1.9,1.1-3,1.2c0,0-0.1,0-0.4,0c-0.1,0-0.3,0-0.3,0
				l0,0c-0.2,0.1-0.7,0.3-0.7,0.7s0.2,0.8,1.3,0.9c0.2,0,0.5,0,0.7,0.1c1.5,0.1,3.3,0.2,4.2,0.5c1.2,0.4,1.9,1.5,1.9,2.7
				c0,1.9-1.4,3.8-3.7,4.9C289.3,359.8,288.2,360,287,360L287,360z M301.8,342c-0.5,0-1,0.1-1.4,0.4c-1,0.6-1.5,1.8-1.5,3.7
				c0,3.4,1.7,5.8,4.2,5.8c0.7,0,1.3-0.2,1.8-0.6c0.7-0.6,1.1-1.8,1.1-3.7C305.9,344.2,304.2,342,301.8,342L301.8,342z M302.3,353
				c-4.5,0-6-3.2-6-6.3c0-2.1,0.8-3.8,2.5-5c1.2-0.7,2.6-1.2,4-1.2c3.3,0,5.8,2.4,5.8,5.9c0,2.3-0.9,4.3-2.7,5.4
				C304.9,352.5,303.5,353,302.3,353L302.3,353L302.3,353z M255.8,342c-0.5,0-1,0.1-1.4,0.4c-1,0.6-1.5,1.8-1.5,3.7
				c0,3.4,1.7,5.8,4.2,5.8c0.7,0,1.3-0.2,1.8-0.6c0.7-0.6,1.1-1.8,1.1-3.7C260,344.2,258.4,342,255.8,342L255.8,342z M256.3,353
				c-4.5,0-6-3.2-6-6.3c0-2.1,0.8-3.8,2.5-5c1.2-0.7,2.6-1.2,4-1.2c3.3,0,5.8,2.4,5.8,5.9c0,2.3-0.9,4.3-2.7,5.4
				C259.1,352.5,257.6,353,256.3,353L256.3,353z M226.6,352.8c-0.1-0.1-0.1-0.3-0.1-0.6c0-0.2,0.1-0.3,0.1-0.4
				c0.5-0.1,0.8-0.2,1.1-0.2c0.5-0.1,0.7-0.4,0.7-1.1c0.1-1.5,0.1-4.6,0.1-6.6v-0.1c0-0.2,0-0.5-0.3-0.7c-0.4-0.3-0.9-0.5-1.5-0.7
				c-0.2-0.1-0.4-0.2-0.4-0.4s0.2-0.3,0.5-0.4c0.8-0.1,3.1-0.6,4-1c0.1,0.1,0.1,0.2,0.1,0.4v0.3c0,0.3-0.1,0.6-0.1,0.9
				c0,0.1,0.1,0.2,0.2,0.2c0.1,0,0.1,0,0.2-0.1c1.6-1.3,3.1-1.7,4-1.7c1.3,0,2.2,0.6,3,1.8c0.1,0.1,0.1,0.1,0.2,0.1
				c0.1,0,0.1,0,0.2-0.1c1.5-1.2,3-1.8,4.1-1.8c2.4,0,3.9,1.8,3.9,4.9c0,0.8,0,1.9,0,3c0,0.9,0,1.7,0,2.3c0,0.1,0.2,0.5,0.5,0.6
				c0.4,0.2,0.8,0.3,1.5,0.4l0,0c0.1,0.2-0.1,0.8-0.2,1c-0.2,0-0.4,0-0.6,0c-0.6,0-1.3-0.1-1.9-0.1c-1.6,0-2.4,0-3.2,0.1
				c-0.1-0.2-0.1-0.8,0-1c0.5-0.1,0.7-0.2,1-0.2c0.5-0.2,0.6-0.4,0.7-1.1c0-0.5,0.1-4.7-0.1-5.7c-0.2-1-0.9-2.2-2.6-2.2
				c-0.6,0-1.6,0.3-2.6,1c-0.1,0.1-0.1,0.2-0.1,0.3l0,0c0.1,0.5,0.1,1.2,0.1,2.1v1.7c0,1.2,0,2.2,0,3.1c0,0.6,0.3,0.7,0.6,0.8
				c0.2,0,0.3,0.1,0.4,0.1c0.2,0.1,0.5,0.1,0.8,0.2c0.1,0.1,0.1,0.4,0,0.7c0,0.2-0.1,0.2-0.1,0.3c-0.9,0-1.8-0.1-3.1-0.1
				c-0.4,0-1.1,0-1.6,0s-0.9,0-1.2,0c0-0.1-0.1-0.2-0.1-0.5c0-0.2,0.1-0.4,0.1-0.5c0.1,0,0.2-0.1,0.4-0.1c0.3-0.1,0.6-0.1,0.8-0.2
				c0.4-0.1,0.6-0.4,0.6-0.9c0.1-1.3,0.2-5.1,0-6c-0.3-1.5-1.2-2.2-2.5-2.2c-0.8,0-1.8,0.4-2.6,1c-0.1,0.1-0.2,0.4-0.2,0.6v1.5
				c0,1.8,0,4.3,0,5.3c0,0.3,0.1,0.7,0.7,0.8c0.1,0,0.3,0.1,0.6,0.1l0.5,0.1c0.1,0.2,0,0.8-0.1,1c-0.3,0-0.6,0-0.9,0
				c-0.5,0-1.2-0.1-2-0.1c-0.9,0-1.5,0-2.1,0.1C227.2,352.8,226.9,352.8,226.6,352.8L226.6,352.8z"/>
			<path class="st2" d="M212.9,359l-1.1-0.4c0,0,0.1-5.5-1.8-5.8c-1.3-1.5,0.2-64,4.9-0.2c0,0-1.6,0.8-1.9,2.2
				C212.7,356.2,212.9,359,212.9,359L212.9,359z"/>
			<path class="st13" d="M212.9,359l-1.1-0.4c0,0,0.1-5.5-1.8-5.8c-1.3-1.5,0.2-64,4.9-0.2c0,0-1.6,0.8-1.9,2.2
				C212.7,356.2,212.9,359,212.9,359L212.9,359z"/>
			<path class="st2" d="M213.6,353.9c0,0,9.3-6.2,7.2-18.9c-2.1-9.3-7.1-12.4-7.6-13.5c-0.6-0.8-1.2-2.3-1.2-2.3l0.4,25.9
				C212.2,344.9,211.4,352.8,213.6,353.9"/>
			<path class="st14" d="M213.6,353.9c0,0,9.3-6.2,7.2-18.9c-2.1-9.3-7.1-12.4-7.6-13.5c-0.6-0.8-1.2-2.3-1.2-2.3l0.4,25.9
				C212.2,344.9,211.4,352.8,213.6,353.9"/>
			<path class="st2" d="M211.3,354.2c0,0-8.7-6-8.2-16.5s6.7-15.7,7.9-16.6c0.8-0.8,0.8-1.1,0.8-1.9c0.5,1.2,0.4,17.5,0.5,19.5
				C212.5,345.8,211.9,352.7,211.3,354.2z"/>
			<path class="st15" d="M211.3,354.2c0,0-8.7-6-8.2-16.5s6.7-15.7,7.9-16.6c0.8-0.8,0.8-1.1,0.8-1.9c0.5,1.2,0.4,17.5,0.5,19.5
				C212.5,345.8,211.9,352.7,211.3,354.2z"/>
		</g>
	</g>
</g>
<g>
	<g>
		<g>
			
				<linearGradient id="SVGID_1_" gradientUnits="userSpaceOnUse" x1="-222.6899" y1="-0.1171" x2="-222.6531" y2="-7.791791e-02" gradientTransform="matrix(805.551 0 0 795.189 179444.0469 301.6449)">
				<stop  offset="0" style="stop-color:#A6A6A6"/>
				<stop  offset="1" style="stop-color:#A1A1A1"/>
			</linearGradient>
			<path class="st16" d="M84.8,238.8c0-0.2,0-0.5,0.1-0.7c0-0.3-15.5-15-15.5-15H69C69,223.2,84.7,239.8,84.8,238.8L84.8,238.8z"/>
			
				<linearGradient id="SVGID_2_" gradientUnits="userSpaceOnUse" x1="-222.2759" y1="-2.5865" x2="-222.2055" y2="-2.5178" gradientTransform="matrix(392.6759 0 0 394.6426 87313.75 1235.0291)">
				<stop  offset="0" style="stop-color:#A6A6A6"/>
				<stop  offset="1" style="stop-color:#A1A1A1"/>
			</linearGradient>
			<path class="st17" d="M51.6,233.7C51.6,233.7,51.6,233.8,51.6,233.7c-0.1,0.2-0.1,0.2-0.2,0.3c-0.5,1,7,8.3,7.5,7.4l0.1-0.1
				l0.1-0.1C59.7,240.4,51.9,233.2,51.6,233.7L51.6,233.7z"/>
			
				<linearGradient id="SVGID_3_" gradientUnits="userSpaceOnUse" x1="-223.5265" y1="-3.9354" x2="-223.4639" y2="-3.8636" gradientTransform="matrix(400.7761 0 0 389.963 89628.1641 1758.4558)">
				<stop  offset="0" style="stop-color:#A6A6A6"/>
				<stop  offset="1" style="stop-color:#A1A1A1"/>
			</linearGradient>
			<path class="st18" d="M62.1,243.9c0,0-0.2,0.3-0.3,0.5l7.2,7.2h0.7C69.8,251.6,62.9,244.2,62.1,243.9z"/>
			
				<linearGradient id="SVGID_4_" gradientUnits="userSpaceOnUse" x1="-220.8732" y1="1.0121" x2="-220.8591" y2="1.0307" gradientTransform="matrix(2498.3396 0 0 2363.3909 551858.0625 -2188.3931)">
				<stop  offset="0" style="stop-color:#818181"/>
				<stop  offset="1" style="stop-color:#A6A6A6"/>
			</linearGradient>
			<path class="st19" d="M84.9,238c-0.4,7.5-6.6,13.6-14.2,13.6h-1l-7.6-7.5c0.7-0.8,1.2-1.8,1.7-2.7h7c2.2,0,3.9-1.8,3.9-3.9
				c0-2.2-1.8-3.9-3.9-3.9h-4.1c0.3-1.7,0.5-3.4,0.5-5.1c0-1.8-0.2-3.5-0.5-5.2h2.5l15.7,15.4C84.9,238.4,84.9,238.2,84.9,238
				L84.9,238z M39.7,204.9h-4.1v10.2h4.1c7.2,0,13.2,5.9,13.2,13.2c0,2-0.5,3.9-1.2,5.5l7.5,7.4c2.4-3.7,3.9-8.2,3.9-13
				C63.1,215.5,52.6,204.9,39.7,204.9z"/>
			
				<linearGradient id="SVGID_5_" gradientUnits="userSpaceOnUse" x1="-221.3796" y1="1.0184" x2="-221.359" y2="1.0319" gradientTransform="matrix(1569.598 0 0 1707.1244 347535.7188 -1532.0955)">
				<stop  offset="0" style="stop-color:#4E4E4E"/>
				<stop  offset="1" style="stop-color:#999999"/>
			</linearGradient>
			<path class="st20" d="M70.7,204.9H53.9c4.1,2.5,7.5,6,9.8,10.2h7c2.2,0,3.9,1.8,3.9,3.9s-1.8,3.9-3.9,3.9h-1.6l15.7,15.6
				c0-0.4,0.1-0.8,0.1-1.3c0-3.5-1.2-6.7-3.3-9.1c2.1-2.4,3.3-5.6,3.3-9.1C84.9,211.3,78.5,204.9,70.7,204.9z"/>
			
				<linearGradient id="SVGID_6_" gradientUnits="userSpaceOnUse" x1="-220.8108" y1="-0.5473" x2="-220.8098" y2="-0.5229" gradientTransform="matrix(1726.1868 0 0 904.572 381212.2812 733.1079)">
				<stop  offset="0" style="stop-color:#A6A6A6"/>
				<stop  offset="1" style="stop-color:#A1A1A1"/>
			</linearGradient>
			<path class="st21" d="M69.7,251.6H54.1c3.1-2,5.8-4.5,8-7.5L69.7,251.6L69.7,251.6z M59.1,241.3l-7.5-7.4
				c-2.1,4.5-6.7,7.6-11.9,7.6h-4.1v10.2h4.1C47.8,251.6,54.9,247.5,59.1,241.3z"/>
		</g>
		<g>
			<path class="st2" d="M95.5,225.7c0,4.6,4.5,8.9,11.6,11.3c-1.4,7.1-0.3,12.9,3.7,15c3.9,2.3,9.9,0.8,15.5-4.2
				c5.4,4.7,11,6.6,14.9,4.3c3.9-2.3,5.2-8.5,3.8-15.8c7.3-2.4,11.5-6.1,11.5-10.7c0-4.5-4.5-8.4-11.5-10.8
				c1.6-7.6,0.3-13.2-3.8-15.5c-3.9-2.3-9.5-0.3-15,4.5c-5.8-5.2-11.4-6.7-15.4-4.4c-3.9,2.3-5,8.1-3.6,15.3
				C100.2,217.2,95.5,221.2,95.5,225.7z"/>
			<path class="st22" d="M143.4,217.2c-0.6-0.2-1.1-0.4-1.8-0.6c0.1-0.4,0.2-0.8,0.3-1.2c1.3-6.4,0.5-11.6-2.4-13.2
				c-2.8-1.6-7.4,0.1-12.1,4.1c-0.5,0.4-0.9,0.8-1.3,1.2c-0.3-0.3-0.6-0.6-0.9-0.8c-4.9-4.3-9.8-6.2-12.7-4.4
				c-2.8,1.6-3.7,6.5-2.4,12.5c0.1,0.6,0.3,1.2,0.4,1.8c-0.7,0.2-1.3,0.4-2,0.7c-5.7,2-9.4,5.1-9.4,8.4c0,3.4,3.9,6.7,9.9,8.7
				c0.5,0.2,0.9,0.3,1.5,0.5c-0.2,0.7-0.3,1.3-0.5,2c-1.1,5.9-0.3,10.7,2.5,12.3c2.9,1.7,7.8,0,12.5-4.2c0.4-0.3,0.8-0.7,1.1-1
				c0.5,0.5,0.9,0.9,1.5,1.3c4.6,3.9,9.1,5.5,11.9,3.9c2.9-1.7,3.9-6.8,2.6-13c-0.1-0.5-0.2-0.9-0.3-1.4c0.4-0.1,0.7-0.2,1-0.3
				c6.2-2.1,10.2-5.4,10.2-8.7C153,222.4,149.2,219.3,143.4,217.2L143.4,217.2z"/>
			<path class="st2" d="M142,232.3c-0.3,0.1-0.6,0.2-0.9,0.3c-0.7-2.2-1.6-4.5-2.7-6.9c1-2.3,2-4.6,2.6-6.8c0.6,0.2,1.1,0.3,1.6,0.5
				c5,1.7,8.1,4.2,8.1,6.2C150.6,227.8,147.4,230.5,142,232.3L142,232.3z M139.8,236.6c0.6,2.7,0.7,5.2,0.3,7.1
				c-0.3,1.7-0.9,2.9-1.8,3.4c-1.7,0.9-5.4-0.3-9.3-3.7c-0.5-0.4-0.9-0.8-1.3-1.2c1.5-1.7,3-3.6,4.5-5.7c2.6-0.2,5.1-0.6,7.3-1.1
				C139.7,235.7,139.7,236.2,139.8,236.6L139.8,236.6z M117.4,246.9c-1.7,0.6-3,0.6-3.8,0.2c-1.7-0.9-2.4-4.8-1.4-9.9
				c0.1-0.6,0.3-1.2,0.4-1.8c2.3,0.5,4.7,0.8,7.2,1c1.5,2.1,3.1,4,4.6,5.7c-0.4,0.3-0.7,0.7-1,0.9
				C121.3,245,119.3,246.3,117.4,246.9L117.4,246.9z M109.6,232.3c-2.6-0.9-4.8-2.1-6.3-3.4c-1.3-1.1-2-2.3-2-3.2
				c0-2,2.9-4.5,7.8-6.2c0.7-0.2,1.2-0.4,1.9-0.6c0.7,2.2,1.6,4.5,2.6,6.9c-1.1,2.3-2,4.7-2.6,7
				C110.4,232.6,110.1,232.4,109.6,232.3z M112.2,214.4c-1-5.2-0.4-9.1,1.3-10.1c1.8-1,5.8,0.5,10.1,4.2c0.3,0.3,0.6,0.5,0.8,0.8
				c-1.6,1.7-3.1,3.6-4.6,5.7c-2.5,0.3-5,0.7-7.2,1.1C112.4,215.6,112.3,215,112.2,214.4L112.2,214.4z M135.5,220.2
				c-0.6-0.9-1-1.8-1.6-2.7c1.7,0.2,3.4,0.5,4.9,0.8c-0.5,1.5-1,3-1.7,4.6C136.6,222,136,221.1,135.5,220.2L135.5,220.2z M126,210.9
				c1,1.1,2.2,2.4,3.2,3.9c-2.2-0.1-4.2-0.1-6.4,0C123.9,213.4,124.9,212.1,126,210.9L126,210.9z M116.4,220.2
				c-0.6,0.9-1,1.9-1.5,2.8c-0.7-1.6-1.2-3.2-1.7-4.7c1.5-0.4,3.2-0.7,4.9-0.8C117.5,218.4,117,219.3,116.4,220.2z M118.1,234
				c-1.8-0.2-3.5-0.5-5-0.8c0.5-1.5,1-3.1,1.8-4.8c0.5,0.9,1,1.9,1.5,2.8C117,232.2,117.6,233.1,118.1,234z M126,240.5
				c-1.1-1.2-2.2-2.4-3.3-3.9c1,0,2.1,0.1,3.2,0.1s2.2,0,3.3-0.1C128.2,238.1,127.2,239.4,126,240.5z M137.1,228.3
				c0.8,1.7,1.3,3.2,1.8,4.8c-1.6,0.4-3.3,0.7-5.1,0.8c0.6-0.9,1.1-1.8,1.7-2.7C136.1,230.3,136.6,229.4,137.1,228.3L137.1,228.3z
				 M133.5,230.1c-0.8,1.4-1.7,2.8-2.6,4.1c-1.6,0.1-3.3,0.2-5,0.2s-3.3-0.1-4.9-0.2c-0.9-1.3-1.8-2.7-2.6-4.2
				c-0.8-1.4-1.6-2.9-2.3-4.3c0.8-1.5,1.5-2.9,2.3-4.3l0,0c0.8-1.4,1.7-2.8,2.6-4.1c1.6-0.1,3.3-0.2,4.9-0.2c1.7,0,3.3,0.1,4.9,0.2
				c0.9,1.3,1.8,2.7,2.6,4.1c0.8,1.4,1.6,2.8,2.3,4.3C135.1,227.2,134.3,228.6,133.5,230.1L133.5,230.1z M138.2,204.3
				c1.8,1,2.5,5.3,1.4,10.8c-0.1,0.4-0.2,0.8-0.3,1c-2.3-0.6-4.7-0.9-7.2-1.1c-1.5-2.1-3-4-4.6-5.7c0.4-0.4,0.8-0.8,1.2-1.1
				C132.9,204.7,136.6,203.3,138.2,204.3L138.2,204.3z"/>
			<path class="st22" d="M125.9,220.8c2.6,0,4.8,2.2,4.8,4.8s-2.2,4.8-4.8,4.8c-2.6,0-4.8-2.2-4.8-4.8
				C121.1,223,123.3,220.8,125.9,220.8"/>
		</g>
		<g>
			<g>
				
					<linearGradient id="SVGID_7_" gradientUnits="userSpaceOnUse" x1="219.1874" y1="61.5504" x2="207.7288" y2="81.7813" gradientTransform="matrix(1 0 0 -1 0 320)">
					<stop  offset="0" style="stop-color:#9F9F9F"/>
					<stop  offset="0" style="stop-color:#9F9F9F"/>
					<stop  offset="0.41" style="stop-color:#656565"/>
					<stop  offset="0.99" style="stop-color:#1E1E1E"/>
					<stop  offset="1" style="stop-color:#1E1E1E"/>
				</linearGradient>
				<polygon class="st23" points="182.5,253.5 222.7,250.8 225.8,210.3 213.5,235.1 				"/>
				
					<linearGradient id="SVGID_8_" gradientUnits="userSpaceOnUse" x1="224.8855" y1="78.5426" x2="210.1185" y2="88.4521" gradientTransform="matrix(1 0 0 -1 0 320)">
					<stop  offset="0" style="stop-color:#202020"/>
					<stop  offset="0" style="stop-color:#202020"/>
					<stop  offset="0.99" style="stop-color:#272727"/>
					<stop  offset="1" style="stop-color:#272727"/>
				</linearGradient>
				<polygon class="st24" points="209.9,239.4 222.7,250.8 219.3,226.9 				"/>
				
					<linearGradient id="SVGID_9_" gradientUnits="userSpaceOnUse" x1="213.0651" y1="60.9279" x2="198.298" y2="70.8375" gradientTransform="matrix(1 0 0 -1 0 320)">
					<stop  offset="0" style="stop-color:#202020"/>
					<stop  offset="0" style="stop-color:#202020"/>
					<stop  offset="0.99" style="stop-color:#272727"/>
					<stop  offset="1" style="stop-color:#272727"/>
				</linearGradient>
				<polygon class="st25" points="182.7,253.5 222.8,250.8 197.5,248.8 				"/>
				
					<linearGradient id="SVGID_10_" gradientUnits="userSpaceOnUse" x1="182.0567" y1="85.7064" x2="184.3461" y2="70.8285" gradientTransform="matrix(1 0 0 -1 0 320)">
					<stop  offset="0" style="stop-color:#FFFFFF"/>
					<stop  offset="0" style="stop-color:#FFFFFF"/>
					<stop  offset="0.23" style="stop-color:#989898"/>
					<stop  offset="0.46" style="stop-color:#6D6D6D"/>
					<stop  offset="0.99" style="stop-color:#0B0B0B"/>
					<stop  offset="1" style="stop-color:#0B0B0B"/>
				</linearGradient>
				<polygon class="st26" points="175.1,235.7 182.7,253.5 189,232.8 				"/>
				
					<linearGradient id="SVGID_11_" gradientUnits="userSpaceOnUse" x1="197.8417" y1="99.6022" x2="198.6851" y2="84.4182" gradientTransform="matrix(1 0 0 -1 0 320)">
					<stop  offset="0" style="stop-color:#FFFFFF"/>
					<stop  offset="0" style="stop-color:#FFFFFF"/>
					<stop  offset="0.23" style="stop-color:#959595"/>
					<stop  offset="0.56" style="stop-color:#474747"/>
					<stop  offset="0.99" style="stop-color:#2C2C2C"/>
					<stop  offset="1" style="stop-color:#2C2C2C"/>
				</linearGradient>
				<polygon class="st27" points="187.5,232.3 209.9,239.4 204.1,216.7 				"/>
				
					<linearGradient id="SVGID_12_" gradientUnits="userSpaceOnUse" x1="211.8294" y1="113.6436" x2="214.3544" y2="102.762" gradientTransform="matrix(1 0 0 -1 0 320)">
					<stop  offset="0" style="stop-color:#FFFFFF"/>
					<stop  offset="0" style="stop-color:#FFFFFF"/>
					<stop  offset="0.18" style="stop-color:#8C8C8C"/>
					<stop  offset="0.4" style="stop-color:#535353"/>
					<stop  offset="0.99" style="stop-color:#2C2C2C"/>
					<stop  offset="1" style="stop-color:#2C2C2C"/>
				</linearGradient>
				<polygon class="st28" points="204.4,218.3 224.5,217 208.7,204.2 				"/>
				
					<linearGradient id="SVGID_13_" gradientUnits="userSpaceOnUse" x1="204.071" y1="117.4605" x2="214.9522" y2="122.9012" gradientTransform="matrix(1 0 0 -1 0 320)">
					<stop  offset="0" style="stop-color:#FFFFFF"/>
					<stop  offset="0" style="stop-color:#FFFFFF"/>
					<stop  offset="0.54" style="stop-color:#515151"/>
					<stop  offset="0.99" style="stop-color:#383838"/>
					<stop  offset="1" style="stop-color:#383838"/>
				</linearGradient>
				<polygon class="st29" points="202,199.5 217.1,199.6 207.9,204.7 				"/>
				
					<linearGradient id="SVGID_14_" gradientUnits="userSpaceOnUse" x1="172.531" y1="89.5007" x2="173.4266" y2="80.5339" gradientTransform="matrix(1 0 0 -1 0 320)">
					<stop  offset="0" style="stop-color:#FFFFFF"/>
					<stop  offset="0" style="stop-color:#FFFFFF"/>
					<stop  offset="0.31" style="stop-color:#727272"/>
					<stop  offset="0.99" style="stop-color:#464646"/>
					<stop  offset="1" style="stop-color:#464646"/>
				</linearGradient>
				<polygon class="st30" points="172.2,227.2 171.4,242.7 175.4,235.7 				"/>
				<path class="st2" d="M172,226.9l3.2,8.9l13.7-3.1l15.6-14.6l4.4-14l-7-4.9l-11.8,4.4c-3.8,3.5-11,10.3-11.2,10.4
					C178.6,214.3,174.1,222.9,172,226.9z"/>
				
					<linearGradient id="SVGID_15_" gradientUnits="userSpaceOnUse" x1="166.3976" y1="78.0779" x2="208.497" y2="121.3677" gradientTransform="matrix(1 0 0 -1 0 320)">
					<stop  offset="0" style="stop-color:#282828"/>
					<stop  offset="0" style="stop-color:#282828"/>
					<stop  offset="7.000000e-02" style="stop-color:#FFFFFF"/>
					<stop  offset="0.17" style="stop-color:#FFFFFF"/>
					<stop  offset="0.27" style="stop-color:#5D5D5D"/>
					<stop  offset="0.33" style="stop-color:#171717"/>
					<stop  offset="0.46" style="stop-color:#343434"/>
					<stop  offset="0.72" style="stop-color:#3A3A3A"/>
					<stop  offset="0.99" style="stop-color:#5F5F5F"/>
					<stop  offset="1" style="stop-color:#5F5F5F"/>
				</linearGradient>
				<path class="st31" d="M183.1,210.9c8.1-8,18.5-12.7,22.5-8.7c3.9,4-0.3,13.8-8.3,21.8c-8.1,8-18.3,13-22.4,8.9
					C170.8,229,175,218.9,183.1,210.9z"/>
				
					<linearGradient id="SVGID_16_" gradientUnits="userSpaceOnUse" x1="198.6151" y1="73.7494" x2="185.9355" y2="76.8789" gradientTransform="matrix(1 0 0 -1 0 320)">
					<stop  offset="0" style="stop-color:#1D1D1D"/>
					<stop  offset="0" style="stop-color:#1D1D1D"/>
					<stop  offset="0.54" style="stop-color:#242424"/>
					<stop  offset="0.99" style="stop-color:#303030"/>
					<stop  offset="1" style="stop-color:#303030"/>
				</linearGradient>
				<path class="st32" d="M182.7,253.5l6.3-20.8l20.9,6.7C202.2,246.5,193.9,252.5,182.7,253.5z"/>
				
					<linearGradient id="SVGID_17_" gradientUnits="userSpaceOnUse" x1="220.4277" y1="89.0018" x2="209.1628" y2="99.0984" gradientTransform="matrix(1 0 0 -1 0 320)">
					<stop  offset="0" style="stop-color:#161616"/>
					<stop  offset="0" style="stop-color:#161616"/>
					<stop  offset="0.99" style="stop-color:#262626"/>
					<stop  offset="1" style="stop-color:#262626"/>
				</linearGradient>
				<path class="st33" d="M204.5,218.3l5.4,21.1c6.3-6.6,11.9-13.7,14.7-22.5L204.5,218.3z"/>
				
					<linearGradient id="SVGID_18_" gradientUnits="userSpaceOnUse" x1="224.5308" y1="107.4873" x2="218.9194" y2="113.4863" gradientTransform="matrix(1 0 0 -1 0 320)">
					<stop  offset="0" style="stop-color:#131313"/>
					<stop  offset="0" style="stop-color:#131313"/>
					<stop  offset="0.99" style="stop-color:#2F2F2F"/>
					<stop  offset="1" style="stop-color:#2F2F2F"/>
				</linearGradient>
				<path class="st34" d="M224.5,217.1c2.2-6.5,2.6-15.7-7.4-17.5l-8.3,4.6L224.5,217.1z"/>
				<path class="st35" d="M171.4,242.6c0.3,10.6,8,10.8,11.3,10.9l-7.5-17.7L171.4,242.6z"/>
				
					<radialGradient id="SVGID_19_" cx="210.8819" cy="98.8657" r="13.8052" gradientTransform="matrix(1 0 0 -1 0 320)" gradientUnits="userSpaceOnUse">
					<stop  offset="0" style="stop-color:#2C2C2C"/>
					<stop  offset="0" style="stop-color:#2C2C2C"/>
					<stop  offset="0.99" style="stop-color:#111111"/>
					<stop  offset="1" style="stop-color:#111111"/>
				</radialGradient>
				<path class="st36" d="M204.6,218.3c4.8,3,14.6,8.9,14.7,9c0.3,0.2,4.2-6.6,5.1-10.3L204.6,218.3z"/>
				
					<radialGradient id="SVGID_20_" cx="191.764" cy="80.6744" r="18.3522" gradientTransform="matrix(1 0 0 -1 0 320)" gradientUnits="userSpaceOnUse">
					<stop  offset="0" style="stop-color:#2A2A2A"/>
					<stop  offset="0" style="stop-color:#2A2A2A"/>
					<stop  offset="0.99" style="stop-color:#161616"/>
					<stop  offset="1" style="stop-color:#161616"/>
				</radialGradient>
				<path class="st37" d="M189,232.7l8.4,16.2c5-2.7,8.8-5.9,12.4-9.5L189,232.7z"/>
				
					<linearGradient id="SVGID_21_" gradientUnits="userSpaceOnUse" x1="178.7464" y1="66.5267" x2="174.1733" y2="82.0417" gradientTransform="matrix(1 0 0 -1 0 320)">
					<stop  offset="0" style="stop-color:#292929"/>
					<stop  offset="0" style="stop-color:#292929"/>
					<stop  offset="0.43" style="stop-color:#2C2C2C"/>
					<stop  offset="0.99" style="stop-color:#383838"/>
					<stop  offset="1" style="stop-color:#383838"/>
				</linearGradient>
				<path class="st38" d="M175.1,235.8l-1.2,14.1c2.3,3.1,5.4,3.3,8.5,3.1C180.1,247.3,175.4,235.7,175.1,235.8z"/>
				
					<linearGradient id="SVGID_22_" gradientUnits="userSpaceOnUse" x1="213.8529" y1="117.9586" x2="224.1053" y2="113.433" gradientTransform="matrix(1 0 0 -1 0 320)">
					<stop  offset="0" style="stop-color:#383838"/>
					<stop  offset="0" style="stop-color:#383838"/>
					<stop  offset="0.44" style="stop-color:#242424"/>
					<stop  offset="0.99" style="stop-color:#1D1D1D"/>
					<stop  offset="1" style="stop-color:#1D1D1D"/>
				</linearGradient>
				<path class="st39" d="M208.7,204.2l16.6,2.3c-0.8-3.8-3.6-6.2-8.3-7L208.7,204.2z"/>
			</g>
			<g>
				
					<radialGradient id="shadow_2_" cx="-169.1621" cy="-98.6774" r="3.7697" gradientTransform="matrix(9.7644 0 0 3.5865 1928.1663 592.6458)" gradientUnits="userSpaceOnUse">
					<stop  offset="0.694" style="stop-color:#B6B6B6"/>
					<stop  offset="0.968" style="stop-color:#B6B6B6;stop-opacity:0"/>
				</radialGradient>
				<path id="shadow_1_" class="st40" d="M242.2,238c0-7.9,16-14.3,35.6-14.3s35.6,6.4,35.6,14.3s-16,14.3-35.6,14.3
					C258,252.3,242.2,245.9,242.2,238z"/>
				
					<radialGradient id="brim_2_" cx="74.8503" cy="218.3379" r="5.1477" gradientTransform="matrix(-9.6238 1.6492 -0.895 -5.2239 1207.0648 1246.0133)" gradientUnits="userSpaceOnUse">
					<stop  offset="0.476" style="stop-color:#F5F5F5"/>
					<stop  offset="0.568" style="stop-color:#F0F0F0"/>
					<stop  offset="0.688" style="stop-color:#E3E3E3"/>
					<stop  offset="0.824" style="stop-color:#CDCDCD"/>
					<stop  offset="0.963" style="stop-color:#B0B0B0"/>
				</radialGradient>
				<path id="brim_1_" class="st41" d="M241.5,239.3c0,0-5.8-11.4,13.4-17.7c9-3,19.5-4.9,29-5.3c10.8-0.4,20.3,1.5,24.5,7.9
					c3,4.6,1.2,10.2-4.6,14.6c-3.5,2.6-11.2,5.2-16.3,6.7c-5.1,1.4-15.1,3.4-23.3,2.9C256.1,248,245.9,246.8,241.5,239.3
					L241.5,239.3z"/>
				<path id="brim_hl_1_" class="st42" d="M241.5,239.3c0,0-5.8-11.4,13.4-17.7c9-3,19.5-4.9,29-5.3c10.8-0.4,20.3,1.5,24.5,7.9
					c3,4.6,1.2,10.2-4.6,14.6c-3.5,2.6-11.2,5.2-16.3,6.7c-5.1,1.4-15.1,3.4-23.3,2.9C256.1,248,245.9,246.8,241.5,239.3
					L241.5,239.3z M264.5,248.2c8,0.5,17.8-1.5,22.7-2.9s12.5-3.9,16-6.4c5.6-4.2,8-9.6,4.8-14.5c-4-6.2-13.8-8.2-24.2-7.8
					c-9.2,0.3-19.5,2.5-28.3,5.4c-18.8,6.2-13.1,17.3-13.1,17.3C246.6,246.5,256.5,247.7,264.5,248.2L264.5,248.2z"/>
				
					<linearGradient id="crown_2_" gradientUnits="userSpaceOnUse" x1="-171.2604" y1="41.03" x2="-167.099" y2="41.3447" gradientTransform="matrix(9.7644 0 0 9.7644 1928.1663 -184.0144)">
					<stop  offset="9.400000e-02" style="stop-color:#D9D9D9"/>
					<stop  offset="0.248" style="stop-color:#CFCFCF"/>
					<stop  offset="0.401" style="stop-color:#CACACA"/>
					<stop  offset="0.525" style="stop-color:#CECECE"/>
					<stop  offset="0.669" style="stop-color:#DADADA"/>
					<stop  offset="0.78" style="stop-color:#E6E6E6"/>
					<stop  offset="0.892" style="stop-color:#EAEAEA"/>
					<stop  offset="0.934" style="stop-color:#E6E6E6"/>
					<stop  offset="0.98" style="stop-color:#DDDDDD"/>
				</linearGradient>
				<path id="crown_1_" class="st43" d="M256.9,230.3c-1.7-1.2-4-7.2-3.1-8.5s2.3-4,3-6.7c0.8-2.6,1.9-8.3,3.9-10.2
					c2.2-2,5.3-2,9.5-1.5c4.1,0.5,16.3,2.6,19.4,3.8c2.9,1,6.8,3,6.6,7.6c-0.2,4.6,0.2,7-0.4,9.5s-6.1,7.6-13.2,8
					C275.6,232.6,258.6,231.5,256.9,230.3L256.9,230.3z"/>
				
					<radialGradient id="side-dent_2_" cx="-98.6425" cy="46.3984" r="1.5603" gradientTransform="matrix(0.8608 9.7263 -26.2095 2.32 1572.8923 1061.6686)" gradientUnits="userSpaceOnUse">
					<stop  offset="6.700000e-02" style="stop-color:#ADADAD"/>
					<stop  offset="0.29" style="stop-color:#C5C5C5"/>
					<stop  offset="0.481" style="stop-color:#D6D6D6"/>
					<stop  offset="0.688" style="stop-color:#E3E3E3"/>
					<stop  offset="0.942" style="stop-color:#FAFAFA"/>
				</radialGradient>
				<path id="side-dent_1_" class="st44" d="M276.9,224.7c0,0,7.3-0.9,11.6-5.1c4.3-4.1,0.5-7-0.7-7.8s-5.2-2.6-11.5-2.3
					s-12.6,0.4-12.1,5C264.7,219,269.8,224.7,276.9,224.7L276.9,224.7z"/>
				
					<linearGradient id="gutter-dent_2_" gradientUnits="userSpaceOnUse" x1="-170.8089" y1="40.1014" x2="-167.6799" y2="40.1014" gradientTransform="matrix(9.7644 0 0 9.7644 1928.1663 -184.0144)">
					<stop  offset="5.600001e-02" style="stop-color:#FAFAFA"/>
					<stop  offset="0.226" style="stop-color:#E8E8E8"/>
					<stop  offset="0.43" style="stop-color:#D9D9D9"/>
					<stop  offset="0.639" style="stop-color:#D0D0D0"/>
					<stop  offset="0.857" style="stop-color:#CDCDCD"/>
				</linearGradient>
				<path id="gutter-dent_1_" class="st45" d="M260.8,210.6c-0.8-0.5-0.9-3.3,2.1-5.2c2.9-1.9,10.5-0.8,15.5,0.5
					c5,1.2,13,2.8,12.5,3.3s-12.3-1-17.8-0.8C265.7,208.8,262.1,211.3,260.8,210.6z"/>
				
					<linearGradient id="ribbon_2_" gradientUnits="userSpaceOnUse" x1="-171.579" y1="42.385" x2="-167.1093" y2="42.385" gradientTransform="matrix(9.7644 0 0 9.7644 1928.1663 -184.0144)">
					<stop  offset="1.800000e-02" style="stop-color:#000000"/>
					<stop  offset="9.600000e-02" style="stop-color:#000000"/>
					<stop  offset="0.3" style="stop-color:#000000"/>
					<stop  offset="0.402" style="stop-color:#030303"/>
					<stop  offset="0.514" style="stop-color:#030303"/>
					<stop  offset="0.78" style="stop-color:#000000"/>
					<stop  offset="1" style="stop-color:#000000"/>
				</linearGradient>
				<path id="ribbon_1_" class="st46" d="M296.2,223.4c-0.1,0-0.1,0.3-0.2,0.4c-0.9,1.5-3.8,4.1-10.1,4.1h-17.2
					c-10.8,0-14-2.9-14.7-5c-0.1-0.2-0.2-0.5-0.2-0.5l-0.2,0.5l-0.8,7.9c0,3.6,9.3,6.5,21.3,6.5s22.3-1.7,22.3-6.5c0,0,0.1-4.8,0-7
					C296.4,223.7,296.4,223.4,296.2,223.4L296.2,223.4z"/>
			</g>
		</g>
	</g>
	<g>
		<path d="M373.1,233.6c-0.3-0.9-1.1-1.6-2.2-1.8c-0.5-0.1-1,0-1.7,0.1c-1.1,0.3-2.1,0.4-2.6,0.4c2.3-4,4.3-8.6,5.4-13
			c1.8-7,0.8-10.2-0.3-11.6c-3-3.9-7.3-5.9-12.7-5.9c-2.8,0-5.3,0.6-6.6,0.9c-1.2-0.2-2.5-0.4-3.9-0.4c-2.5,0-4.8,0.5-6.7,1.7
			c-1-0.4-2.7-0.8-4.7-1.2c-4.6-0.8-8.4-0.2-11.1,1.8c-3.3,2.3-4.8,6.4-4.5,12c0.1,1.8,1.1,7.2,2.6,12.4c0.9,3,1.9,5.4,2.9,7.3
			c1.4,2.7,2.9,4.3,4.7,4.9c0.9,0.3,2.7,0.6,4.5-0.9c0.2,0.3,0.6,0.6,0.9,0.8c0.6,0.4,1.1,0.6,1.8,0.8c2.3,0.6,4.4,0.5,6.3-0.4
			c0,0.3,0,0.7,0,0.9c0,0.5,0,0.8,0,1.2c0.1,2.7,0.3,4.8,0.8,6.3c0,0.1,0.1,0.2,0.1,0.4c0.3,0.8,0.8,2.3,1.9,3.3
			c1.2,1.1,2.6,1.5,3.9,1.5c0.7,0,1.3-0.1,1.9-0.2c2-0.5,4.2-1,5.9-3.4c1.5-2.2,2.3-5.5,2.4-10.7c0-0.2,0-0.3,0.1-0.4v-0.3h0.4h0.1
			c2.1,0.1,4.5-0.4,6-1C370.1,238.4,374,236.4,373.1,233.6"/>
		<path class="st47" d="M369.6,234.2c-6,1.2-6.4-0.8-6.4-0.8c6.4-9.4,9-21.4,6.8-24.3c-6.3-8-17.1-4.2-17.3-4.1h-0.1
			c-1.2-0.3-2.5-0.4-4-0.4c-2.7,0-4.8,0.8-6.4,1.9c0,0-19.4-8-18.4,10.1c0.2,3.9,5.4,28.9,11.7,21.3c2.3-2.8,4.5-5.1,4.5-5.1
			c1.1,0.8,2.4,1.1,3.9,0.9l0.1-0.1c0,0.4,0,0.7,0,1c-1.6,1.8-1.1,2.2-4.4,2.8c-3.3,0.7-1.3,1.9-0.1,2.2c1.5,0.4,5.1,0.9,7.4-2.4
			l-0.1,0.4c0.7,0.5,1.1,3.3,1,5.8s-0.1,4.3,0.4,5.6c0.5,1.4,1,4.4,5.3,3.5c3.6-0.8,5.4-2.7,5.6-6c0.2-2.3,0.6-2,0.7-4.1l0.4-1
			c0.4-3.2,0.1-4.2,2.3-3.8h0.6c1.6,0.1,3.8-0.3,5-0.8C370.7,235.7,372.3,233.6,369.6,234.2L369.6,234.2"/>
		<path class="st2" d="M343.3,218.1c-0.6-0.1-1,0-1.3,0.2c-0.1,0.1-0.2,0.2-0.2,0.3c0,0.2,0.1,0.5,0.2,0.6c0.3,0.4,0.7,0.6,1,0.7
			c0.1,0,0.1,0,0.2,0c0.7,0,1.2-0.5,1.3-0.8S344,218.2,343.3,218.1 M361.3,218.2c-0.1-0.4-0.8-0.5-1.3-0.4c-0.7,0.1-1.2,0.4-1.2,0.8
			c0,0.3,0.6,0.8,1.2,0.8c0.1,0,0.1,0,0.2,0c0.4-0.1,0.8-0.3,0.8-0.5C361.2,218.6,361.4,218.3,361.3,218.2"/>
		<path class="st2" d="M371.6,234.1c-0.2-0.7-0.9-0.9-2.2-0.7c-3.7,0.8-5,0.2-5.4-0.1c2.8-4.3,5.2-9.5,6.4-14.4
			c0.6-2.3,0.9-4.4,0.9-6.2c0-1.9-0.3-3.3-0.9-4.2c-2.7-3.5-6.7-5.4-11.6-5.4c-3.3,0-6.1,0.8-6.7,1c-1.1-0.3-2.3-0.5-3.8-0.5
			c-2.4,0-4.6,0.6-6.4,1.8c-0.8-0.3-2.7-0.9-5.3-1.4c-4.2-0.7-7.6-0.2-10,1.5c-2.8,2.1-4.1,5.6-3.9,10.8c0.1,1.7,1,7,2.6,12.1
			c2.1,6.7,4.2,10.4,6.6,11.2c0.3,0.1,0.6,0.2,0.9,0.2c0.8,0,1.9-0.4,3-1.7c1.3-1.6,2.7-3.1,4.1-4.6c0.9,0.5,1.9,0.8,2.9,0.8v0.1
			c-0.2,0.2-0.4,0.5-0.6,0.7c-0.8,0.9-0.8,1.1-3.2,1.6c-0.7,0.1-2.3,0.5-2.4,1.7c0,1.3,2.1,1.9,2.3,2c0.8,0.2,1.6,0.3,2.3,0.3
			c1.9,0,3.5-0.6,4.8-1.8c0,4.7,0.2,9.4,0.8,10.8c0.5,1.1,1.6,4,5.2,4c0.6,0,1.1-0.1,1.8-0.2c3.8-0.8,5.4-2.4,6-6.1
			c0.4-2,0.9-6.6,1.2-9.1c0.6,0.2,1.3,0.3,2.1,0.3c1.7,0,3.6-0.4,4.8-0.9C369.6,236.9,372.1,235.4,371.6,234.1L371.6,234.1z
			 M362.7,217.1c0,0.8-0.1,1.4-0.2,2.1c-0.1,0.8-0.3,1.5-0.3,2.4s0.1,1.9,0.2,2.8c0.2,1.9,0.5,3.8-0.5,5.6c-0.2-0.3-0.3-0.6-0.4-0.8
			c-0.1-0.3-0.4-0.7-0.7-1.3c-1.3-2.3-4.3-7.8-2.8-10C358.6,217.4,359.8,216.8,362.7,217.1L362.7,217.1z M359.1,204.7
			c4.3,0.1,7.7,1.7,10.1,4.8c1.9,2.3-0.2,13.2-6.1,22.5c-0.1-0.1-0.1-0.2-0.2-0.2l-0.1-0.2c1.5-2.5,1.2-5,0.9-7.2
			c-0.1-0.9-0.2-1.8-0.2-2.5c0-0.8,0.1-1.6,0.3-2.3c0.1-0.8,0.3-1.8,0.2-2.8c0-0.1,0-0.3,0-0.4c-0.1-1-1.2-4-3.7-6.9
			c-1.3-1.5-3.2-3.2-5.8-4.3C355.9,204.8,357.4,204.6,359.1,204.7L359.1,204.7z M335,237.3c-1.2,1.4-2,1.1-2.3,1
			c-1.8-0.6-3.9-4.3-5.6-10.2c-1.6-5.2-2.4-10.2-2.5-11.7c-0.2-4.6,0.8-7.8,3.3-9.5c3.9-2.8,10.4-1.1,13-0.3l-0.1,0.1
			c-4.2,4.3-4.1,11.6-4.1,12.1c0,0.2,0,0.4,0,0.8c0.1,1.2,0.2,3.6-0.2,6.1c-0.4,2.4,0.4,4.8,2.1,6.5c0.2,0.2,0.4,0.4,0.6,0.5
			C338.3,233.5,336.7,235.2,335,237.3L335,237.3z M339.5,231.1c-1.3-1.4-1.9-3.3-1.7-5.3c0.4-2.7,0.3-5.2,0.2-6.4c0-0.2,0-0.4,0-0.5
			c0.7-0.6,3.5-2.1,5.5-1.6c0.9,0.2,1.5,0.8,1.8,2c1.2,5.7,0.2,8.1-0.7,10c-0.2,0.4-0.4,0.8-0.5,1.1l-0.1,0.3
			c-0.3,0.8-0.6,1.4-0.7,2.1C341.9,232.8,340.5,232.2,339.5,231.1L339.5,231.1z M339.8,238.9c-0.4-0.1-0.8-0.3-1-0.5
			c0.2-0.1,0.5-0.2,1-0.3c2.7-0.6,3.1-0.9,4-2.1c0.2-0.3,0.5-0.6,0.8-0.9l0,0c0.5-0.6,0.8-0.5,1.1-0.3c0.3,0.1,0.7,0.6,0.8,1
			c0.1,0.2,0.1,0.7-0.1,0.9C344.5,239.3,341.7,239.3,339.8,238.9z M353.9,251.9c-3.3,0.8-4.5-0.9-5.3-2.9c-0.5-1.2-0.8-6.9-0.6-13.1
			c0-0.1,0-0.2,0-0.3c0-0.2-0.1-0.3-0.1-0.5c-0.3-0.9-0.8-1.7-1.6-2c-0.3-0.1-0.8-0.4-1.5-0.2c0.1-0.6,0.4-1.2,0.7-2l0.1-0.3
			c0.1-0.4,0.3-0.7,0.5-1c0.9-2,2.2-4.7,0.8-10.9c-0.5-2.3-2.2-3.5-4.7-3.2c-1.5,0.2-2.9,0.8-3.6,1.1c-0.2,0.1-0.3,0.2-0.4,0.2
			c0.2-2.3,0.9-6.7,3.7-9.4c1.7-1.7,4-2.6,6.8-2.5c5.4,0.1,9,2.9,11,5.3c1.7,2.1,2.6,4,3,5.2c-2.8-0.3-4.7,0.3-5.6,1.6
			c-2.1,3,1.1,8.7,2.7,11.6c0.3,0.5,0.6,0.9,0.6,1.1c0.5,1.2,1.1,2.1,1.6,2.6c0.2,0.2,0.3,0.4,0.4,0.5c-0.8,0.3-2.3,0.8-2.3,3.6
			c-0.1,1.4-0.9,8-1.3,10.3C358.2,250.1,357,251.3,353.9,251.9L353.9,251.9z M367.7,236.2c-0.8,0.4-2.3,0.7-3.7,0.8
			c-1.5,0.1-2.3-0.2-2.4-0.3c-0.1-1.8,0.6-2,1.2-2.2c0.1,0,0.2-0.1,0.3-0.1c0.1,0.1,0.1,0.1,0.2,0.2c1.2,0.8,3.4,0.8,6.5,0.3l0,0
			C369.4,235.2,368.6,235.7,367.7,236.2L367.7,236.2z"/>
	</g>
</g>
<g>
	<g>
		<g>
			<path class="st2" d="M196.8,273.9h8.4c0,0-15.6,21-16.8,22.8c-0.4,0.5-1.1,1.2-1.3,1.9c-0.8,1.9-1.6,6-1.6,6h-7.6
				c0,0,1.2-4.3,1.2-6.5c0-2-1.1-4-1.6-6s-1.3-6-1.3-6h7.9l1.1,4.4L196.8,273.9"/>
			<path class="st2" d="M180.9,278.3c1.6,0.9,2.5,6.1,2.5,6.1s-8.1,0.1-12.5,0.1H167l-4.7,20.1h-7.1c0,0,4.4-21.8,5.5-25.8
				c0.4-1.3,2.3-1.1,5.6-1.1h5.3C175.2,277.7,179.2,277.3,180.9,278.3 M148,288.1c0,0,0.3-1.3-0.8-2.8c-0.8-1.3-1.6-1.6-3.7-1.6
				c-6.1-0.1-6,4.4-6,4.4H148z M154.7,282.9c0.9,3.2-0.8,10.9-0.8,10.9s-8.9-0.1-13.9,0c-1.5,0-3.3-0.1-3.9,0.5
				c-0.7,0.9,0.3,2.5,0.9,3.2c0.8,0.8,2.5,0.8,3.1,0.9c4,0.5,12.3,0.1,12.3,0.1l-1.5,6.4c0,0-11.7,0.5-17.6-0.8
				c-1.2-0.3-2.3-0.8-2.9-1.6c-0.3-0.3-0.4-0.5-0.5-0.8s-0.5-0.9-0.8-1.5c-1.3-3.6,0.1-10.4,1.6-14.1c0.1-0.4,0.4-0.9,0.7-1.5
				s0.5-1.2,0.8-1.6c0.1-0.3,0.4-0.4,0.5-0.7c0.1-0.3,0.4-0.5,0.5-0.8c0.5-0.7,1.2-1.1,1.9-1.6c2.4-1.9,6.9-3.2,12.3-2.7
				c2,0.3,5.1,0.9,6.5,2.9C154.3,280.9,154.6,282.1,154.7,282.9L154.7,282.9z M122.3,277.7h6.8c0,0-3.9,18.1-5.7,26.9h-7.9
				c-5.5,0-10.4,0.7-12.5-3.2c-2-3.9-0.1-10.1,0.8-14.4c0.7-3.1,2-9.2,2-9.2h7.1c0,0-2,9.6-2.8,14.4c-0.3,1.7-0.9,3.3-0.3,4.7
				c0.7,1.2,1.5,1.3,4.1,1.3c0.8,0,3.5,0,3.5,0L122.3,277.7 M90.4,290.8c0.7-2.5,1.7-5.3,1.6-7.6c-0.1-2.4-2.3-4.7-3.5-5.2
				c-4-1.5-7.7,0.5-9.2,2.1c-1.9,2.1-2.5,4.5-3.2,7.9c-0.5,2.5-0.9,5.1,0,7.1c1.6,3.5,6.8,2.7,12.3,2.7
				C89,295.6,89.7,293.2,90.4,290.8L90.4,290.8z M99.8,280.7c0.8,5.7-2.3,12-4.3,17.5c2.1,0.1,4,0,4.1,0.1c0.1,0.3-1.5,6.5-2,6.5
				c-1.7,0-7.2,0.1-9.5,0.1c-7.6,0-14.7,0.5-18.2-3.2c-1.5-1.5-2.5-4.1-2.7-6c-0.4-3.1,0.1-6.4,0.8-9.2c0.7-2.5,1.5-4.9,2.7-7.1
				c3.2-5.6,8.7-9.6,17.9-8.7c1.7,0.1,4.4,0.9,6,1.9c0.1,0,0.5,0.4,0.5,0.4C97.4,274.4,99.4,277.6,99.8,280.7L99.8,280.7z
				 M66.5,277.7c-0.4,2.1-0.9,4.4-1.3,6.5h-7.7c0.5-2.3,1.1-4.5,1.6-6.5C61.6,277.7,63.8,277.7,66.5,277.7 M57.2,286.1h7.3
				c-0.9,5.3-2.8,13.9-4.4,19.8c-0.9,3.7-1.6,6.4-4.1,8.4c-0.3,0.1-0.4,0.1-0.5,0.3c-0.4,0.4-2.7,0.9-3.9,1.1c-2,0.3-4.1,0-6.5,0
				c0.7-2.3,1.3-5.1,1.9-7.1c5.7,0.7,6-4.8,7.1-10C54.9,295.6,56.8,287.3,57.2,286.1"/>
			<g>
				<path class="st12" d="M40.1,300l-0.1,0.4c-2.7,5.2-7.5,8.4-14.1,8.5c-3.2,0-6.1-0.8-8.1-1.6c-4.3-1.9-7.9-5.5-9.7-9.2
					c-2.8-5.5-3.3-12.9,2.5-18.6c0.1,0-0.7,1.2-0.7,1.2l-0.1,0.5c-4.1,13.2,8.8,24.4,21.3,23C33.9,304,37.7,302.4,40.1,300"/>
				<path class="st12" d="M32.5,294.5c3.2,0,6.4-1.5,8.4-3.5c-1.7,4.4-6.7,7.2-13.3,6.3c-5.6-0.8-10.8-6.4-11.5-12
					c-0.4-4.1,1.1-6.5,3.3-9.5c-0.8,1.6-1.1,2.8-1.2,3.5C17.5,288.1,25.5,294.5,32.5,294.5"/>
				<path class="st12" d="M40.7,283.6c-0.5,1.1-3.3,3.2-4.5,3.5c-4.9,1.1-8.1-1.3-9.7-4c-0.3-0.4-0.7-1.5-0.8-1.7
					c-0.7-2.1-0.4-5.5,1.6-7.2c-0.5,1.6-0.7,3.5-0.4,4.8c0.1,0.8,0.8,2,1.3,2.8c1.1,1.5,1.7,1.9,2.9,2.7c0.5,0.4,1.2,0.7,1.5,0.7
					C33.7,285.5,36.4,286.5,40.7,283.6"/>
			</g>
		</g>
	</g>
	<g>
		<path class="st2" d="M289.1,298.5l-2.1,10.1h-5l8.3-36.5h5.9l7.7,36.5h-5.1l-2.1-10.1H289.1L289.1,298.5z M296.2,294.4l-1.7-8.7
			c-0.5-2.5-0.9-5.7-1.3-8.4h-0.3c-0.4,2.7-0.9,6-1.5,8.4l-1.7,8.7H296.2L296.2,294.4z M322.9,271.1v30.8c0,2,0.1,4.9,0.3,6.8h-4.4
			l-0.3-3.2h-0.1c-0.9,1.9-2.9,3.6-5.5,3.6c-4.9,0-7.9-5.3-7.9-13.5c0-9.3,4-13.7,8.1-13.7c2.1,0,3.7,0.9,4.7,2.9h0.1v-13.7
			L322.9,271.1L322.9,271.1z M317.7,292.3c0-0.5,0-1.1,0-1.6c-0.3-2.4-1.6-4.4-3.5-4.4c-3.2,0-4.3,4.4-4.3,9.3
			c0,5.5,1.5,9.2,4.1,9.2c1.2,0,2.7-0.5,3.5-3.7c0.1-0.4,0.1-1.1,0.1-1.7L317.7,292.3L317.7,292.3z M335.1,309.1
			c-5.2,0-9.1-4.5-9.1-13.6c0-9.6,4.5-13.6,9.3-13.6c5.2,0,8.9,4.7,8.9,13.6C344.3,305.9,339.1,309.1,335.1,309.1L335.1,309.1
			L335.1,309.1z M335.2,305.1c3.2,0,3.9-5.6,3.9-9.6s-0.7-9.6-4-9.6s-4,5.6-4,9.6C331.1,299.7,331.9,305.1,335.2,305.1L335.2,305.1z
			 M347.3,271.1h5.1v14.1h0.1c1.3-2.4,3.2-3.5,5.5-3.5c4.5,0,7.3,5.1,7.3,13.2c0,9.5-3.9,14-8.1,14c-2.7,0-4-1.5-5.2-3.7h-0.3
			l-0.3,3.3H347c0.1-1.7,0.3-4.8,0.3-6.8V271.1L347.3,271.1z M352.4,299.2c0,0.5,0,1.2,0.3,1.6c0.8,3.2,2.4,3.9,3.5,3.9
			c3.1,0,4.1-4,4.1-9.5c0-5.1-1.2-9.1-4.3-9.1c-1.7,0-3.1,2-3.5,3.9c-0.1,0.5-0.1,1.2-0.1,1.7V299.2L352.4,299.2L352.4,299.2z
			 M372.9,296.4c0,6.8,2.9,8.4,6.1,8.4c1.9,0,3.5-0.4,4.5-0.9l0.8,3.7c-1.6,0.8-4,1.2-6.3,1.2c-6.7,0-10.1-4.9-10.1-13.1
			c0-8.7,4-13.9,9.5-13.9s8,5.2,8,11.9c0,1.3,0,2.1-0.1,2.8L372.9,296.4L372.9,296.4z M380.5,292.8c0-4.7-1.6-7.2-3.6-7.2
			c-2.7,0-3.9,3.9-4,7.2H380.5z"/>
		<path class="st12" d="M253.3,272.2h15.2v36.4L253.3,272.2z M242.6,272.2h-15.2v36.4L242.6,272.2z M247.9,285.6l9.7,23h-6.4
			l-2.9-7.3h-7.1L247.9,285.6L247.9,285.6z"/>
		<path class="st2" d="M384.9,281.7c0.7,0,1.2,0.5,1.2,1.2l0,0c0,0.7-0.5,1.2-1.2,1.2s-1.2-0.5-1.2-1.2
			C383.7,282.3,384.2,281.7,384.9,281.7L384.9,281.7L384.9,281.7z M384.9,281.9c-0.5,0-0.9,0.4-0.9,0.9s0.4,0.9,0.9,0.9
			s0.9-0.4,0.9-0.9C385.8,282.4,385.4,281.9,384.9,281.9L384.9,281.9L384.9,281.9z M384.6,283.6h-0.3v-1.3c0.1,0,0.3,0,0.4,0
			s0.3,0,0.4,0.1s0.1,0.1,0.1,0.3c0,0.1-0.1,0.3-0.3,0.3l0,0c0.1,0,0.1,0.1,0.3,0.3c0,0.3,0,0.3,0.1,0.3H385c0,0,0-0.1-0.1-0.4
			c0-0.1-0.1-0.3-0.3-0.3h-0.1L384.6,283.6L384.6,283.6z M384.6,282.8h0.1c0.1,0,0.3,0,0.3-0.3c0-0.1-0.1-0.3-0.3-0.3s-0.1,0-0.1,0
			V282.8z M270.5,272.2c0.7,0,1.2,0.5,1.2,1.2l0,0c0,0.7-0.5,1.2-1.2,1.2s-1.2-0.5-1.2-1.2C269.4,272.7,269.9,272.2,270.5,272.2
			L270.5,272.2L270.5,272.2z M270.5,272.3c-0.5,0-0.9,0.4-0.9,0.9s0.4,0.9,0.9,0.9s0.9-0.4,0.9-0.9
			C271.4,272.8,271,272.3,270.5,272.3L270.5,272.3z M270.3,274H270v-1.3c0.1,0,0.3,0,0.4,0s0.3,0,0.4,0.1c0.1,0,0.1,0.1,0.1,0.3
			c0,0.1-0.1,0.3-0.3,0.3l0,0c0.1,0,0.1,0.1,0.3,0.3c0,0.3,0,0.3,0.1,0.3h-0.3c0,0,0-0.1-0.1-0.4c0-0.1-0.1-0.3-0.3-0.3h-0.1
			L270.3,274L270.3,274z M270.3,273.4h0.1c0.1,0,0.3,0,0.3-0.3c0-0.1-0.1-0.3-0.3-0.3c-0.1,0-0.1,0-0.1,0V273.4z"/>
	</g>
</g>
</svg>
