<?xml version="1.0" encoding="utf-8"?>
<!-- Generator: Adobe Illustrator 21.1.0, SVG Export Plug-In . SVG Version: 6.00 Build 0)  -->
<svg version="1.1" id="Layer_1" xmlns="http://www.w3.org/2000/svg" xmlns:xlink="http://www.w3.org/1999/xlink" x="0px" y="0px"
	 viewBox="0 0 392.6 409.2" style="enable-background:new 0 0 392.6 409.2;" xml:space="preserve">
<style type="text/css">
	.st0{fill:#FFFFFF;}
	.st1{fill:#6D6D6D;}
	.st2{fill:#B3B3B3;}
	.st3{fill:#BCBCBC;}
	.st4{fill:#EDEDED;}
	.st5{fill:#A3A3A3;}
	.st6{fill:#BBBBBB;}
	.st7{fill:#F2F2F2;}
	.st8{fill:#5F5F5F;}
	.st9{fill:#757575;}
	.st10{fill:#6B6B6B;}
	.st11{fill:#A4A4A4;}
	.st12{fill:#8F8F8F;}
	.st13{fill:#A1A1A1;}
	.st14{fill:url(#SVGID_1_);}
	.st15{fill:url(#SVGID_2_);}
	.st16{fill:url(#SVGID_3_);}
	.st17{fill:url(#SVGID_4_);}
	.st18{fill:url(#SVGID_5_);}
	.st19{fill:url(#SVGID_6_);}
	.st20{fill:#CBCBCB;}
	.st21{fill:url(#SVGID_7_);}
	.st22{fill:url(#SVGID_8_);}
	.st23{fill:url(#SVGID_9_);}
	.st24{fill:url(#SVGID_10_);}
	.st25{fill:url(#SVGID_11_);}
	.st26{fill:url(#SVGID_12_);}
	.st27{fill:url(#SVGID_13_);}
	.st28{fill:url(#SVGID_14_);}
	.st29{fill:url(#SVGID_15_);}
	.st30{fill:url(#SVGID_16_);}
	.st31{fill:url(#SVGID_17_);}
	.st32{fill:url(#SVGID_18_);}
	.st33{fill:#3D3D3D;}
	.st34{fill:url(#SVGID_19_);}
	.st35{fill:url(#SVGID_20_);}
	.st36{fill:url(#SVGID_21_);}
	.st37{fill:url(#SVGID_22_);}
	.st38{fill:url(#shadow_2_);}
	.st39{fill:url(#brim_2_);}
	.st40{fill:#CFCFCF;}
	.st41{fill:url(#crown_2_);}
	.st42{fill:url(#side-dent_2_);}
	.st43{fill:url(#gutter-dent_2_);}
	.st44{fill:url(#ribbon_2_);}
	.st45{fill:#575757;}
</style>
<path class="st0" d="M48.4,69.4h-6.3v16.2h-3.7V69.4h-6.3v-3.3h16.3V69.4z"/>
<path class="st0" d="M53.9,85.8c-1.1,0-2.2-0.2-3.2-0.6c-0.9-0.4-1.7-0.9-2.4-1.7c-0.6-0.7-1.2-1.5-1.5-2.4
	c-0.4-0.9-0.5-1.9-0.5-2.8c0-1,0.1-1.9,0.5-2.9c0.4-0.9,0.9-1.7,1.5-2.4s1.5-1.2,2.4-1.7c1-0.4,2.1-0.6,3.2-0.6
	c1.1,0,2.2,0.2,3.2,0.6c0.9,0.4,1.7,0.9,2.4,1.7c0.6,0.7,1.2,1.5,1.5,2.4c0.4,0.9,0.5,1.9,0.5,2.9c0,0.9-0.1,1.9-0.5,2.8
	s-0.9,1.7-1.5,2.4c-0.6,0.7-1.4,1.3-2.4,1.7C56.1,85.7,55,85.9,53.9,85.8z M50.2,78.4c0,0.6,0.1,1.2,0.3,1.7
	c0.1,0.5,0.4,0.9,0.8,1.4c0.4,0.4,0.7,0.6,1.2,0.9c0.9,0.4,2,0.4,3,0c0.4-0.2,0.9-0.5,1.2-0.9c0.4-0.4,0.6-0.9,0.8-1.4
	c0.2-0.6,0.3-1.2,0.3-1.7s-0.1-1.2-0.3-1.7c-0.1-0.5-0.4-0.9-0.8-1.4c-0.4-0.4-0.7-0.6-1.2-0.9c-0.4-0.2-1-0.3-1.5-0.3
	s-1,0.1-1.5,0.4c-0.4,0.2-0.9,0.5-1.2,0.9c-0.4,0.4-0.6,0.9-0.8,1.4C50.2,77.2,50.2,77.8,50.2,78.4z"/>
<path class="st0" d="M70.6,85.8c-1.1,0-2.2-0.2-3.2-0.6c-0.9-0.4-1.7-0.9-2.4-1.7c-0.6-0.7-1.2-1.5-1.5-2.4
	c-0.4-0.9-0.5-1.9-0.5-2.8c0-1,0.1-1.9,0.5-2.9c0.4-0.9,0.9-1.7,1.5-2.4c0.6-0.7,1.5-1.2,2.4-1.7c1-0.4,2.1-0.6,3.2-0.6
	s2.2,0.2,3.2,0.6c0.9,0.4,1.7,0.9,2.4,1.7s1.2,1.5,1.5,2.4c0.4,0.9,0.5,1.9,0.5,2.9c0,0.9-0.1,1.9-0.5,2.8s-0.9,1.7-1.5,2.4
	c-0.6,0.7-1.4,1.3-2.4,1.7C72.8,85.7,71.7,85.9,70.6,85.8z M66.8,78.4c0,0.6,0.1,1.2,0.3,1.7c0.1,0.5,0.4,0.9,0.8,1.4
	c0.4,0.4,0.7,0.6,1.2,0.9c0.9,0.4,2,0.4,3,0c0.4-0.2,0.9-0.5,1.2-0.9c0.4-0.4,0.6-0.9,0.8-1.4c0.2-0.6,0.3-1.2,0.3-1.7
	s-0.1-1.2-0.3-1.7c-0.1-0.5-0.4-0.9-0.8-1.4c-0.4-0.4-0.7-0.6-1.2-0.9c-0.4-0.2-1-0.3-1.5-0.3s-1,0.1-1.5,0.4
	c-0.4,0.2-0.9,0.5-1.2,0.9c-0.4,0.4-0.6,0.9-0.8,1.4C67,77.2,66.8,77.8,66.8,78.4z"/>
<path class="st0" d="M80.6,65.5h3.7V81c0,0.4,0.1,0.9,0.4,1.2c0.3,0.3,0.7,0.4,1.1,0.4c0.2,0,0.5-0.1,0.7-0.1
	c0.3-0.1,0.5-0.1,0.8-0.3l0.5,2.8c-0.6,0.3-1.2,0.4-1.7,0.6s-1.2,0.2-1.8,0.2c-1,0.1-1.9-0.3-2.7-0.9c-0.6-0.7-1-1.7-0.9-2.6
	L80.6,65.5z"/>
<path class="st0" d="M94.8,85.8c-1.2,0-2.4-0.2-3.5-0.6s-2.1-0.9-3-1.7l1.4-2.3c0.8,0.6,1.7,1.1,2.6,1.4c0.8,0.3,1.7,0.5,2.5,0.5
	c0.6,0,1.2-0.1,1.7-0.4c0.4-0.2,0.6-0.7,0.6-1.2s-0.3-0.9-0.7-1.2c-0.8-0.4-1.6-0.6-2.4-0.8c-0.9-0.3-1.7-0.5-2.4-0.7
	C91,78.6,90.5,78.4,90,78c-0.4-0.3-0.6-0.6-0.9-1.1c-0.2-0.4-0.3-0.9-0.3-1.4c0-0.6,0.1-1.4,0.4-2s0.7-1.1,1.2-1.5s1.2-0.7,1.8-0.9
	c0.7-0.2,1.5-0.4,2.2-0.4c1,0,2.1,0.1,3,0.5c0.9,0.3,1.9,0.9,2.6,1.5l-1.5,2.2c-0.6-0.5-1.4-0.9-2.2-1.2c-0.6-0.2-1.4-0.4-2-0.4
	s-1.1,0.1-1.6,0.4c-0.4,0.3-0.6,0.7-0.6,1.2c0,0.2,0.1,0.4,0.1,0.6c0.1,0.2,0.3,0.4,0.5,0.4c0.3,0.1,0.6,0.3,0.9,0.4
	c0.4,0.1,0.8,0.2,1.4,0.4c1,0.3,1.9,0.5,2.5,0.8c0.6,0.2,1.2,0.5,1.7,0.9c0.4,0.3,0.8,0.7,1,1.2s0.4,1,0.3,1.6
	c0.1,1.3-0.5,2.5-1.6,3.3C97.8,85.5,96.3,86,94.8,85.8z"/>
<g>
	<g>
		<g>
			<polygon class="st0" points="97.7,129.8 97.7,125.9 88.5,125.9 88.5,137.3 97.7,137.3 97.7,133.4 92.4,133.4 92.4,129.8 			"/>
			<polygon class="st0" points="110.9,125.9 101.6,125.9 101.6,129.9 105.5,133.4 101.6,133.4 101.6,137.3 110.9,137.3 110.9,133.5 
				107.4,129.8 110.9,129.8 			"/>
			<polygon class="st0" points="124.4,125.9 115.1,125.9 115.1,129.9 118.9,133.4 115.1,133.4 115.1,137.3 124.4,137.3 124.4,133.5 
				120.8,129.8 124.4,129.8 			"/>
			<polygon class="st1" points="81.9,203.7 76.5,142.5 136.4,142.5 131,203.6 106.4,210.5 			"/>
			<polygon class="st2" points="106.5,205.2 126.3,199.8 130.9,147.6 106.5,147.6 			"/>
			<polygon class="st3" points="89,170 89.6,177.5 106.5,170 106.5,162.5 			"/>
			<polygon class="st4" points="125.2,154.5 106.5,162.5 106.5,170 124.5,162 			"/>
			<polygon class="st4" points="106.5,189.6 106.4,189.7 98.1,187.4 97.5,181.4 90,181.4 91,193.2 106.4,197.5 106.5,197.5 			"/>
			<polygon class="st0" points="106.5,170 106.5,177.5 115.7,177.5 114.8,187.3 106.5,189.7 106.5,197.5 121.8,193.2 123.9,170 			
				"/>
			<polygon class="st4" points="106.5,170 89,170 89.6,177.5 106.5,177.5 			"/>
			<polygon class="st4" points="106.5,162 106.5,154.5 106.4,154.5 87.6,154.5 88.3,162 			"/>
			<polygon class="st0" points="106.5,154.5 106.5,161.9 106.5,162 124.5,162 125.2,154.5 			"/>
		</g>
		<g>
			<polygon class="st5" points="233.6,122.9 195.2,122.9 195.2,122.9 156.9,122.9 164.1,200.8 195.2,209.7 195.2,209.7 195.2,209.7 
				195.2,209.7 195.2,209.7 226.4,200.8 			"/>
			<polygon class="st6" points="195.2,129.2 195.2,203.1 195.2,203.1 220.5,195.9 226.6,129.2 			"/>
			<polygon class="st0" points="215.3,138.8 176.5,138.8 173.8,168 173.8,167.8 206.8,167.8 205.7,180.1 195.2,183.2 184.5,180.1 
				183.9,172.6 174.2,172.6 175.6,187.6 195.2,193.1 214.8,187.6 217.5,158.2 182.6,158.2 183,148.5 207.3,148.5 207.6,154.1 
				217.4,154.1 			"/>
			<g>
				<path class="st7" d="M195.2,138.8h-18.7l-2.7,29.2l0.1-0.2h21.4v-9.5H184l0.4-9.8h10.9L195.2,138.8L195.2,138.8z M183.9,172.6
					h-9.7l1.4,14.9l19.6,5.6v-9.9l-10.7-3.1L183.9,172.6z"/>
			</g>
			<g>
				<polygon class="st0" points="187.8,111.4 180.9,111.4 180.9,116.3 187.8,116.3 191.4,116.3 192.6,116.3 192.6,101.7 
					187.8,101.7 				"/>
				<path class="st0" d="M209.5,101.8h-11.9c0,0,0,2.6,0,5.1c1.6,1.6,2.4,2.4,4.7,4.7c-1.3,0-4.7,0-4.7,0v4.7h11.9v-4.7l-4.8-4.7
					h4.8V101.8z"/>
			</g>
		</g>
		<g>
			<polygon class="st8" points="259.6,203.2 254.2,142.4 313.8,142.4 308.4,203.2 284,210 			"/>
			<polygon class="st9" points="284,204.8 303.7,199.3 308.3,147.4 284,147.4 			"/>
			<polygon class="st7" points="284,169.9 274.1,169.9 273.4,162.3 284,162.3 284,154.8 284,154.8 265.3,154.8 265.5,156.8 
				267.3,177.4 284,177.4 			"/>
			<polygon class="st7" points="284,189.3 284,189.3 275.7,187.1 275.1,181.1 271.1,181.1 267.6,181.1 268.7,192.8 284,197.1 
				284,197.1 			"/>
			<path class="st0" d="M259.7,125.9h3.8v3.7h3.5v-3.7h3.8v11.3H267v-3.8h-3.5v3.8h-3.8V125.9L259.7,125.9z"/>
			<path class="st0" d="M275.8,129.6h-3.3v-3.8H283v3.8h-3.3v7.6h-3.8L275.8,129.6L275.8,129.6z"/>
			<path class="st0" d="M284.6,125.9h4l2.4,4l2.4-4h4v11.3h-3.8v-5.6l-2.6,4h-0.1l-2.6-4v5.6h-3.7L284.6,125.9L284.6,125.9z"/>
			<path class="st0" d="M299.2,125.9h3.8v7.6h5.3v3.7h-9.1L299.2,125.9L299.2,125.9z"/>
			<polygon class="st0" points="284,169.9 284,177.4 293.2,177.4 292.3,187.1 284,189.3 284,197.1 299.3,192.8 299.4,191.6 
				301.1,171.9 301.3,169.9 299.3,169.9 			"/>
			<polygon class="st0" points="284,154.8 284,159.5 284,162.3 284,162.3 302,162.3 302,162.3 302,162.3 302.1,160.6 302.5,156.8 
				302.7,154.8 			"/>
		</g>
	</g>
	<g>
		<g>
			<g>
				<path class="st6" d="M170.4,337.4c-0.2,0-0.5,0.1-0.7,0.2l-6.6,3.8c-0.4,0.2-0.7,0.7-0.7,1.2v7.6c0,0.5,0.3,1,0.7,1.2l1.7,1
					c0.8,0.4,1.1,0.4,1.5,0.4c1.2,0,2-0.8,2-2.1v-7.5c0-0.1-0.1-0.2-0.2-0.2h-0.8c-0.1,0-0.2,0.1-0.2,0.2v7.5c0,0.6-0.6,1.2-1.6,0.7
					l-1.8-1.1c-0.1,0-0.1-0.1-0.1-0.2v-7.6c0-0.1,0-0.1,0.1-0.2l6.6-3.8c0.1,0,0.1,0,0.2,0l6.6,3.8c0.1,0,0.1,0.1,0.1,0.2v7.6
					c0,0.1,0,0.1-0.1,0.2l-6.6,3.8c-0.1,0-0.1,0-0.2,0l-1.7-1c-0.1,0-0.1,0-0.2,0c-0.5,0.3-0.6,0.3-1,0.4c-0.1,0-0.3,0.1,0.1,0.3
					l2.2,1.3c0.2,0.1,0.4,0.2,0.7,0.2c0.2,0,0.5-0.1,0.7-0.2l6.6-3.8c0.4-0.2,0.7-0.7,0.7-1.2v-7.6c0-0.5-0.3-1-0.7-1.2l-6.6-3.8
					C170.9,337.5,170.7,337.4,170.4,337.4L170.4,337.4z"/>
				<path class="st6" d="M172.2,342.9c-1.9,0-3,0.8-3,2.1c0,1.4,1.1,1.8,2.9,2c2.2,0.2,2.3,0.5,2.3,1c0,0.7-0.6,1.1-2,1.1
					c-1.7,0-2.1-0.4-2.3-1.3c0-0.1-0.1-0.2-0.2-0.2H169c-0.1,0-0.2,0.1-0.2,0.2c0,1.1,0.6,2.4,3.5,2.4c2.1,0,3.3-0.8,3.3-2.3
					c0-1.4-1-1.8-3-2.1c-2.1-0.3-2.2-0.4-2.2-0.9c0-0.4,0.2-0.9,1.7-0.9c1.4,0,1.9,0.3,2.1,1.2c0,0.1,0.1,0.2,0.2,0.2h0.9
					c0.1,0,0.1,0,0.1-0.1l0.1-0.1C175.4,343.6,174.3,342.9,172.2,342.9L172.2,342.9z"/>
			</g>
			<path class="st0" d="M131.6,327.4c-0.1,0-0.1,0-0.2,0.1c-0.1,0.1-0.2,0.2-0.2,0.4v10.7c0,0.1,0,0.2-0.1,0.3
				c-0.1,0.1-0.2,0.1-0.3,0l-1.8-1c-0.3-0.2-0.6-0.2-0.8,0l-7,4c-0.3,0.2-0.4,0.4-0.4,0.7v8.1c0,0.3,0.2,0.6,0.4,0.7l7,4
				c0.3,0.2,0.6,0.2,0.8,0l7-4c0.3-0.2,0.4-0.4,0.4-0.7v-20.2c0-0.3-0.2-0.6-0.4-0.7l-4.2-2.3C131.7,327.4,131.6,327.4,131.6,327.4
				L131.6,327.4z M86.5,337.5c-0.1,0-0.3,0-0.4,0.1l-7,4c-0.3,0.2-0.4,0.4-0.4,0.7v10.9c0,0.2,0.1,0.3,0.2,0.4s0.3,0.1,0.4,0
				l4.2-2.4c0.3-0.2,0.4-0.4,0.4-0.7v-5.1c0-0.3,0.2-0.6,0.4-0.7l1.8-1c0.1-0.1,0.3-0.1,0.4-0.1s0.3,0,0.4,0.1l1.8,1
				c0.3,0.1,0.4,0.4,0.4,0.7v5.1c0,0.3,0.2,0.6,0.4,0.7l4.2,2.4c0.1,0.1,0.3,0.1,0.4,0s0.2-0.2,0.2-0.4v-10.9c0-0.3-0.2-0.6-0.4-0.7
				l-7-4C86.9,337.5,86.7,337.5,86.5,337.5L86.5,337.5z M149.5,337.6c-0.1,0-0.3,0-0.4,0.1l-7,4c-0.3,0.2-0.4,0.4-0.4,0.7v8.1
				c0,0.3,0.2,0.6,0.4,0.7l6.9,4c0.3,0.1,0.6,0.2,0.8,0l4.2-2.3c0.1-0.1,0.2-0.2,0.2-0.4c0-0.2-0.1-0.3-0.2-0.4l-7-4
				c-0.1-0.1-0.2-0.2-0.2-0.4v-2.5c0-0.2,0.1-0.3,0.2-0.4l2.2-1.3c0.1-0.1,0.3-0.1,0.4,0l2.2,1.3c0.1,0.1,0.2,0.2,0.2,0.4v2
				c0,0.2,0.1,0.3,0.2,0.4c0.1,0.1,0.3,0.1,0.4,0l4.2-2.4c0.3-0.2,0.4-0.4,0.4-0.7v-2c0-0.3-0.2-0.6-0.4-0.7l-7-4
				C149.8,337.6,149.6,337.6,149.5,337.6L149.5,337.6z M128.5,343.6h0.1l2.4,1.4c0.1,0,0.1,0.1,0.1,0.2v2.8c0,0.1,0,0.1-0.1,0.2
				l-2.4,1.4c-0.1,0-0.1,0-0.2,0l-2.4-1.4c-0.1,0-0.1-0.1-0.1-0.2v-2.8c0-0.1,0-0.1,0.1-0.2L128.5,343.6
				C128.4,343.7,128.5,343.6,128.5,343.6L128.5,343.6L128.5,343.6z"/>
			<path class="st6" d="M107.6,337.6c-0.1,0-0.3,0-0.4,0.1l-7,4c-0.3,0.2-0.4,0.4-0.4,0.7v8.1c0,0.3,0.2,0.6,0.4,0.7l7,4
				c0.3,0.2,0.6,0.2,0.8,0l7-4c0.3-0.2,0.4-0.4,0.4-0.7v-8.1c0-0.3-0.2-0.6-0.4-0.7l-7-4C107.8,337.6,107.7,337.6,107.6,337.6
				L107.6,337.6z M149.4,344.8L149.4,344.8l-1.4,0.8c-0.1,0-0.1,0.1-0.1,0.1v1.5c0,0.1,0,0.1,0.1,0.1l1.3,0.8c0.1,0,0.1,0,0.2,0
				l1.3-0.8c0.1,0,0.1-0.1,0.1-0.1v-1.5c0-0.1,0-0.1-0.1-0.1L149.4,344.8C149.5,344.8,149.5,344.8,149.4,344.8L149.4,344.8z"/>
		</g>
		<g>
			<g>
				<path class="st10" d="M327.8,336.1c-0.1,0-0.3,0.3-0.3,0.5c0,1-0.1,3.7-0.1,5.6c0,0.1,0.1,0.2,0.2,0.2c0.4,0,1.3,0.1,2.1,0.1
					c1.1,0,1.7-0.2,2.1-0.3c0.9-0.5,1.4-1.5,1.4-2.6c0-2.5-1.7-3.4-4.3-3.4C328.7,336,328.1,336,327.8,336.1L327.8,336.1z
					 M334.4,347.6c0-2.5-1.9-4-5.3-4c-0.2,0-1.2,0-1.5,0c-0.1,0-0.2,0.1-0.2,0.2c0,1.8,0,4.7,0.1,5.8c0.1,0.5,0.4,1.2,0.8,1.4
					c0.5,0.3,1.5,0.3,2.2,0.3C332.6,351.3,334.4,350.2,334.4,347.6L334.4,347.6z M322.5,334.7c0.3,0,1,0.1,3,0.1
					c1.9,0,3.4-0.1,5.2-0.1c2.2,0,5.3,0.8,5.3,4.1c0,1.6-1.2,3-2.7,3.6c-0.1,0-0.1,0.1,0,0.1c2.2,0.5,4.1,1.9,4.1,4.4s-1.5,4-3.8,5
					c-1.4,0.6-3.1,0.8-4.8,0.8c-1.3,0-4.8-0.2-6.8-0.1c-0.2-0.1,0.2-1,0.4-1.2c0.5,0,0.8-0.1,1.3-0.2c0.7-0.2,0.8-0.4,0.9-1.4
					c0.1-0.9,0.1-4.1,0.1-6.3c0-3.1,0-5.2,0-6.2c0-0.8-0.3-1.1-0.9-1.2c-0.4-0.1-1.2-0.2-1.7-0.3
					C321.9,335.7,322.4,334.8,322.5,334.7L322.5,334.7z M307.7,350.6c0.6,0.5,1.8,0.7,2.9,0.7c1.4,0,2.8-0.3,4.1-1.5
					c1.4-1.2,2.3-3.1,2.3-6.2c0-2.9-1.1-5.3-3.4-6.6c-1.3-0.8-2.9-1.1-4.8-1.1c-0.6,0-1.1,0-1.4,0.2c-0.1,0.1-0.3,0.3-0.3,0.4
					c-0.1,0.5-0.1,4.5-0.1,6.8c0,2.4,0,5.7,0.1,6.1C307.2,349.8,307.3,350.4,307.7,350.6L307.7,350.6z M301.9,334.7
					c0.5,0,2.4,0.1,3.3,0.1c1.6,0,2.8-0.1,5.8-0.1c2.6,0,4.7,0.7,6.3,2c1.9,1.6,2.8,3.8,2.8,6.6c0,3.9-1.8,6.1-3.5,7.4
					c-1.8,1.3-4.1,2.1-7.4,2.1c-1.7,0-4.7-0.1-7.2-0.1l0,0c-0.1-0.2,0.2-1.1,0.4-1.2c0.7-0.1,0.8-0.1,1.2-0.2
					c0.5-0.2,0.6-0.5,0.7-1.4c0.1-1.8,0.1-3.9,0.1-6.3c0-1.7,0-5.1,0-6.2c-0.1-0.9-0.5-1.1-1.2-1.3c-0.4-0.1-0.9-0.2-1.6-0.3
					C301.3,335.6,301.8,334.8,301.9,334.7L301.9,334.7z"/>
				<path class="st0" d="M270.9,351.6c-0.6-0.1-1.1-0.2-1.7-0.4c-0.1-0.1-0.2-0.3-0.2-0.4c-0.1-0.9-0.1-3.5-0.1-5.2
					c0-1.4-0.2-2.6-0.8-3.4c-0.7-1-1.7-1.5-3-1.5c-1.1,0-2.6,0.8-3.9,1.8c0,0-0.2,0.2-0.2-0.1c0-0.3,0.1-0.8,0.1-1.2
					c0-0.4-0.2-0.5-0.2-0.5c-0.8,0.4-3.1,0.9-4,1c-0.6,0.1-0.8,0.7-0.1,0.9l0,0c0.7,0.2,1.2,0.4,1.5,0.7c0.3,0.2,0.2,0.5,0.2,0.7
					c0,1.9,0,4.9-0.1,6.5c0,0.6-0.2,0.9-0.7,1h0.1c-0.4,0.1-0.6,0.2-1.1,0.2c-0.2,0.2-0.2,1,0,1.2c0.3,0,1.8-0.1,3-0.1
					c1.7,0,2.6,0.1,3,0.1c0.2-0.2,0.2-1,0.1-1.2c-0.5,0-0.8-0.1-1.2-0.2c-0.5-0.1-0.6-0.3-0.6-0.9c-0.1-1.4-0.1-4.2-0.1-6.2
					c0-0.5,0.2-0.8,0.3-0.9c0.6-0.5,1.5-0.9,2.4-0.9c0.8,0,1.4,0.3,1.8,0.6c0.6,0.5,0.7,1.1,0.8,1.6c0.1,1.1,0.1,3.3,0.1,5.2
					c0,1-0.1,1.3-0.5,1.4c-0.2,0.1-0.6,0.2-1.2,0.2c-0.2,0.2-0.1,1,0,1.2c0.7,0,1.6-0.1,2.9-0.1c1.6,0,2.6,0.1,3,0.1
					C270.9,352.6,271,351.8,270.9,351.6L270.9,351.6z M278,341.8c-1.4,0-2.2,1.1-2.2,2.7c0,1.7,0.7,3.6,2.8,3.6c0.4,0,1-0.2,1.3-0.5
					c0.5-0.5,0.8-1.4,0.8-2.4C280.8,343.1,279.7,341.8,278,341.8L278,341.8z M277.8,353.2c-0.5,0-0.9,0.2-1.1,0.3
					c-1.1,0.7-1.6,1.4-1.6,2.2c0,0.7,0.3,1.3,0.9,1.8c0.7,0.6,1.8,0.9,3.1,0.9c2.6,0,3.8-1.4,3.8-2.8c0-1-0.5-1.6-1.5-2
					C280.7,353.3,279.4,353.2,277.8,353.2L277.8,353.2z M278,359.8c-1.6,0-2.7-0.3-3.7-1.1c-0.9-0.7-1.4-1.8-1.4-2.5
					c0-0.2,0.1-0.8,0.5-1.3c0.3-0.3,0.9-0.9,2.4-1.9c0.1,0,0.1-0.1,0.1-0.1c0-0.1-0.1-0.1-0.1-0.1c-1.2-0.5-1.6-1.2-1.7-1.6v-0.1
					c0-0.2-0.1-0.3,0.2-0.5c0.2-0.1,0.4-0.3,0.7-0.5c0.4-0.3,0.9-0.5,1.2-0.8c0.1-0.1,0.1-0.1,0.1-0.2s-0.1-0.1-0.1-0.1
					c-1.8-0.6-2.7-1.9-2.7-3.9c0-1.3,0.6-2.5,1.6-3.2c0.7-0.6,2.5-1.3,3.7-1.3h0.1c1.2,0,1.9,0.3,2.8,0.6c0.5,0.2,1,0.3,1.7,0.3
					c1,0,1.4-0.3,1.8-0.7c0,0.1,0.1,0.2,0.1,0.5s-0.1,0.8-0.3,1.2c-0.2,0.3-0.7,0.5-1.1,0.5h-0.1c-0.5-0.1-0.7-0.1-0.7-0.1L283,343
					c0,0.1,0,0.1,0,0.2v0.1c0.1,0.2,0.2,0.9,0.2,1.1c0,2.1-0.8,3-1.7,3.7c-0.9,0.6-1.9,1.1-3,1.2c0,0-0.1,0-0.4,0
					c-0.1,0-0.3,0-0.3,0l0,0c-0.2,0.1-0.7,0.3-0.7,0.7c0,0.4,0.2,0.8,1.3,0.9c0.2,0,0.5,0,0.7,0.1c1.5,0.1,3.3,0.2,4.1,0.5
					c1.2,0.4,1.9,1.5,1.9,2.7c0,1.9-1.4,3.7-3.6,4.8C280.3,359.6,279.2,359.8,278,359.8L278,359.8z M292.6,342c-0.5,0-1,0.1-1.4,0.4
					c-1,0.6-1.5,1.8-1.5,3.6c0,3.4,1.7,5.7,4.1,5.7c0.7,0,1.3-0.2,1.8-0.6c0.7-0.6,1.1-1.8,1.1-3.6C296.7,344.2,295,342,292.6,342
					L292.6,342z M293.1,352.9c-4.4,0-5.9-3.2-5.9-6.2c0-2.1,0.8-3.7,2.5-4.9c1.2-0.7,2.6-1.2,3.9-1.2c3.3,0,5.7,2.4,5.7,5.8
					c0,2.3-0.9,4.2-2.7,5.3C295.7,352.4,294.3,352.9,293.1,352.9L293.1,352.9L293.1,352.9z M247.3,342c-0.5,0-1,0.1-1.4,0.4
					c-1,0.6-1.5,1.8-1.5,3.6c0,3.4,1.7,5.7,4.1,5.7c0.7,0,1.3-0.2,1.8-0.6c0.7-0.6,1.1-1.8,1.1-3.6C251.4,344.2,249.8,342,247.3,342
					L247.3,342z M247.8,352.9c-4.4,0-5.9-3.2-5.9-6.2c0-2.1,0.8-3.7,2.5-4.9c1.2-0.7,2.6-1.2,3.9-1.2c3.3,0,5.7,2.4,5.7,5.8
					c0,2.3-0.9,4.2-2.7,5.3C250.5,352.4,249,352.9,247.8,352.9L247.8,352.9z M218.5,352.7c-0.1-0.1-0.1-0.3-0.1-0.6
					c0-0.2,0.1-0.3,0.1-0.4c0.5-0.1,0.8-0.2,1.1-0.2c0.5-0.1,0.7-0.4,0.7-1.1c0.1-1.5,0.1-4.5,0.1-6.5v-0.1c0-0.2,0-0.5-0.3-0.7
					c-0.4-0.3-0.9-0.5-1.5-0.7c-0.2-0.1-0.4-0.2-0.4-0.4c0-0.2,0.2-0.3,0.5-0.4c0.8-0.1,3.1-0.6,3.9-1c0.1,0.1,0.1,0.2,0.1,0.4v0.3
					c0,0.3-0.1,0.6-0.1,0.9c0,0.1,0.1,0.2,0.2,0.2c0.1,0,0.1,0,0.2-0.1c1.6-1.3,3.1-1.7,3.9-1.7c1.3,0,2.2,0.6,3,1.8
					c0.1,0.1,0.1,0.1,0.2,0.1c0.1,0,0.1,0,0.2-0.1c1.5-1.2,3-1.8,4-1.8c2.4,0,3.8,1.8,3.8,4.8c0,0.8,0,1.9,0,3c0,0.9,0,1.7,0,2.3
					c0,0.1,0.2,0.5,0.5,0.6c0.4,0.2,0.8,0.3,1.5,0.4l0,0c0.1,0.2-0.1,0.8-0.2,1c-0.2,0-0.4,0-0.6,0c-0.6,0-1.3-0.1-1.9-0.1
					c-1.6,0-2.4,0-3.2,0.1c-0.1-0.2-0.1-0.8,0-1c0.5-0.1,0.7-0.2,1-0.2c0.5-0.2,0.6-0.4,0.7-1.1c0-0.5,0.1-4.6-0.1-5.6
					c-0.2-1-0.9-2.2-2.6-2.2c-0.6,0-1.6,0.3-2.6,1c-0.1,0.1-0.1,0.2-0.1,0.3l0,0c0.1,0.5,0.1,1.2,0.1,2.1v1.7c0,1.2,0,2.2,0,3.1
					c0,0.6,0.3,0.7,0.6,0.8c0.2,0,0.3,0.1,0.4,0.1c0.2,0.1,0.5,0.1,0.8,0.2c0.1,0.1,0.1,0.4,0,0.7c0,0.2-0.1,0.2-0.1,0.3
					c-0.9,0-1.8-0.1-3.1-0.1c-0.4,0-1.1,0-1.6,0s-0.9,0-1.2,0c0-0.1-0.1-0.2-0.1-0.5c0-0.2,0.1-0.4,0.1-0.5c0.1,0,0.2-0.1,0.4-0.1
					c0.3-0.1,0.6-0.1,0.8-0.2c0.4-0.1,0.6-0.4,0.6-0.9c0.1-1.3,0.2-5,0-5.9c-0.3-1.5-1.2-2.2-2.5-2.2c-0.8,0-1.8,0.4-2.6,1
					c-0.1,0.1-0.2,0.4-0.2,0.6v1.5c0,1.8,0,4.2,0,5.2c0,0.3,0.1,0.7,0.7,0.8c0.1,0,0.3,0.1,0.6,0.1l0.5,0.1c0.1,0.2,0,0.8-0.1,1
					c-0.3,0-0.6,0-0.9,0c-0.5,0-1.2-0.1-2-0.1c-0.9,0-1.5,0-2.1,0.1C219.1,352.7,218.8,352.7,218.5,352.7L218.5,352.7z"/>
				<path class="st0" d="M205,358.8l-1.1-0.4c0,0,0.1-5.4-1.8-5.7c-1.3-1.5,0.2-63.1,4.8-0.2c0,0-1.6,0.8-1.9,2.2
					C204.8,356,205,358.8,205,358.8L205,358.8z"/>
				<path class="st11" d="M205,358.8l-1.1-0.4c0,0,0.1-5.4-1.8-5.7c-1.3-1.5,0.2-63.1,4.8-0.2c0,0-1.6,0.8-1.9,2.2
					C204.8,356,205,358.8,205,358.8L205,358.8z"/>
				<path class="st0" d="M205.6,353.7c0,0,9.2-6.1,7.1-18.6c-2.1-9.2-7-12.2-7.5-13.3c-0.6-0.8-1.2-2.3-1.2-2.3l0.4,25.5
					C204.3,344.9,203.5,352.7,205.6,353.7"/>
				<path class="st12" d="M205.6,353.7c0,0,9.2-6.1,7.1-18.6c-2.1-9.2-7-12.2-7.5-13.3c-0.6-0.8-1.2-2.3-1.2-2.3l0.4,25.5
					C204.3,344.9,203.5,352.7,205.6,353.7"/>
				<path class="st0" d="M203.4,354c0,0-8.6-5.9-8.1-16.3s6.6-15.5,7.8-16.4c0.8-0.8,0.8-1.1,0.8-1.9c0.5,1.2,0.4,17.3,0.5,19.2
					C204.6,345.8,204,352.6,203.4,354z"/>
				<path class="st13" d="M203.4,354c0,0-8.6-5.9-8.1-16.3s6.6-15.5,7.8-16.4c0.8-0.8,0.8-1.1,0.8-1.9c0.5,1.2,0.4,17.3,0.5,19.2
					C204.6,345.8,204,352.6,203.4,354z"/>
			</g>
		</g>
	</g>
	<g>
		<g>
			<g>
				
					<linearGradient id="SVGID_1_" gradientUnits="userSpaceOnUse" x1="-112.8484" y1="-0.209" x2="-112.8092" y2="-0.1672" gradientTransform="matrix(805.551 0 0 795.189 90943.4219 393.6449)">
					<stop  offset="0" style="stop-color:#A6A6A6"/>
					<stop  offset="1" style="stop-color:#A1A1A1"/>
				</linearGradient>
				<path class="st14" d="M69,259.7c0-0.2,0-0.5,0.1-0.7c0-0.3-16.5-16-16.5-16h-0.4C52.2,243.1,68.9,260.8,69,259.7L69,259.7z"/>
				
					<linearGradient id="SVGID_2_" gradientUnits="userSpaceOnUse" x1="-112.6049" y1="-2.7706" x2="-112.53" y2="-2.6975" gradientTransform="matrix(392.6759 0 0 394.6426 44229.4023 1327.0291)">
					<stop  offset="0" style="stop-color:#A6A6A6"/>
					<stop  offset="1" style="stop-color:#A1A1A1"/>
				</linearGradient>
				<path class="st15" d="M33.7,254.3c0,0,0,0.1-0.1,0.1c0,0.1,0,0.1-0.1,0.2c-0.5,1.1,7.4,8.8,8,7.9l0.1-0.1l0.1-0.1
					C42.3,261.4,34,253.8,33.7,254.3L33.7,254.3z"/>
				
					<linearGradient id="SVGID_3_" gradientUnits="userSpaceOnUse" x1="-113.8468" y1="-4.1201" x2="-113.7802" y2="-4.0437" gradientTransform="matrix(400.7761 0 0 389.963 45652.7891 1850.4558)">
					<stop  offset="0" style="stop-color:#A6A6A6"/>
					<stop  offset="1" style="stop-color:#A1A1A1"/>
				</linearGradient>
				<path class="st16" d="M44.9,265.2c0,0-0.2,0.3-0.3,0.5l7.7,7.7H53C53,273.4,45.7,265.5,44.9,265.2z"/>
				
					<linearGradient id="SVGID_4_" gradientUnits="userSpaceOnUse" x1="-110.9247" y1="0.9811" x2="-110.9097" y2="1.0009" gradientTransform="matrix(2498.3396 0 0 2363.3909 277150.6875 -2096.3931)">
					<stop  offset="0" style="stop-color:#818181"/>
					<stop  offset="1" style="stop-color:#A6A6A6"/>
				</linearGradient>
				<path class="st17" d="M69.1,258.9c-0.4,8-7,14.5-15.1,14.5h-1.1l-8.1-8c0.7-0.9,1.3-1.9,1.8-2.9H54c2.3,0,4.2-1.9,4.2-4.2
					c0-2.3-1.9-4.2-4.2-4.2h-4.4c0.3-1.8,0.5-3.6,0.5-5.4c0-1.9-0.2-3.7-0.5-5.5h2.7L69,259.6C69.1,259.3,69.1,259.1,69.1,258.9
					L69.1,258.9z M21,223.7h-4.4v10.9H21c7.7,0,14,6.3,14,14c0,2.1-0.5,4.1-1.3,5.9l8,7.9c2.6-3.9,4.2-8.7,4.2-13.8
					C45.9,234.9,34.7,223.7,21,223.7z"/>
				
					<linearGradient id="SVGID_5_" gradientUnits="userSpaceOnUse" x1="-111.4608" y1="0.9756" x2="-111.4389" y2="0.99" gradientTransform="matrix(1569.598 0 0 1707.1244 174989.9219 -1440.0955)">
					<stop  offset="0" style="stop-color:#4E4E4E"/>
					<stop  offset="1" style="stop-color:#999999"/>
				</linearGradient>
				<path class="st18" d="M54,223.7H36.1c4.4,2.7,8,6.4,10.4,10.9H54c2.3,0,4.2,1.9,4.2,4.2S56.3,243,54,243h-1.7L69,259.6
					c0-0.4,0.1-0.9,0.1-1.4c0-3.7-1.3-7.1-3.5-9.7c2.2-2.6,3.5-6,3.5-9.7C69.1,230.5,62.3,223.7,54,223.7z"/>
				
					<linearGradient id="SVGID_6_" gradientUnits="userSpaceOnUse" x1="-110.8849" y1="-0.6259" x2="-110.8839" y2="-0.5999" gradientTransform="matrix(1726.1868 0 0 904.572 191441.7344 825.1079)">
					<stop  offset="0" style="stop-color:#A6A6A6"/>
					<stop  offset="1" style="stop-color:#A1A1A1"/>
				</linearGradient>
				<path class="st19" d="M52.9,273.4H36.3c3.3-2.1,6.2-4.8,8.5-8L52.9,273.4L52.9,273.4z M41.7,262.4l-8-7.9
					c-2.2,4.8-7.1,8.1-12.7,8.1h-4.4v10.9H21C29.6,273.4,37.2,269,41.7,262.4z"/>
			</g>
			<g>
				<path class="st0" d="M80.4,245.8c0,4.9,4.8,9.5,12.3,12c-1.5,7.6-0.3,13.7,3.9,16c4.2,2.4,10.5,0.8,16.5-4.5
					c5.8,5,11.7,7,15.9,4.6s5.5-9,4-16.8c7.8-2.6,12.2-6.5,12.2-11.4c0-4.8-4.8-8.9-12.2-11.5c1.7-8.1,0.3-14.1-4-16.5
					c-4.1-2.4-10.1-0.3-16,4.8c-6.2-5.5-12.1-7.1-16.4-4.7c-4.1,2.4-5.3,8.6-3.8,16.3C85.4,236.8,80.4,241,80.4,245.8z"/>
				<path class="st20" d="M131.4,236.8c-0.6-0.2-1.2-0.4-1.9-0.6c0.1-0.4,0.2-0.8,0.3-1.3c1.4-6.8,0.5-12.3-2.6-14.1
					c-3-1.7-7.9,0.1-12.9,4.4c-0.5,0.4-1,0.9-1.4,1.3c-0.3-0.3-0.6-0.6-1-0.9c-5.2-4.6-10.4-6.6-13.5-4.7c-3,1.7-3.9,6.9-2.6,13.3
					c0.1,0.6,0.3,1.3,0.4,1.9c-0.7,0.2-1.4,0.4-2.1,0.7c-6.1,2.1-10,5.4-10,8.9c0,3.6,4.2,7.1,10.5,9.3c0.5,0.2,1,0.3,1.6,0.5
					c-0.2,0.7-0.3,1.4-0.5,2.1c-1.2,6.3-0.3,11.4,2.7,13.1c3.1,1.8,8.3,0,13.3-4.5c0.4-0.3,0.8-0.7,1.2-1.1c0.5,0.5,1,1,1.6,1.4
					c4.9,4.2,9.7,5.9,12.7,4.2c3.1-1.8,4.1-7.2,2.8-13.8c-0.1-0.5-0.2-1-0.3-1.5c0.4-0.1,0.7-0.2,1.1-0.3c6.6-2.2,10.9-5.7,10.9-9.3
					C141.6,242.3,137.6,239,131.4,236.8L131.4,236.8z"/>
				<path class="st0" d="M129.9,252.8c-0.3,0.1-0.6,0.2-1,0.3c-0.7-2.3-1.7-4.8-2.9-7.3c1.1-2.5,2.1-4.9,2.8-7.2
					c0.6,0.2,1.2,0.3,1.7,0.5c5.3,1.8,8.6,4.5,8.6,6.6C139.1,248,135.6,250.9,129.9,252.8L129.9,252.8z M127.6,257.4
					c0.6,2.9,0.7,5.5,0.3,7.6c-0.3,1.8-1,3.1-1.9,3.6c-1.8,1-5.7-0.3-9.9-3.9c-0.5-0.4-1-0.9-1.4-1.3c1.6-1.8,3.2-3.8,4.8-6.1
					c2.8-0.2,5.4-0.6,7.8-1.2C127.4,256.5,127.5,257,127.6,257.4L127.6,257.4z M103.7,268.4c-1.8,0.6-3.2,0.6-4,0.2
					c-1.8-1-2.6-5.1-1.5-10.5c0.1-0.6,0.3-1.3,0.4-1.9c2.4,0.5,5,0.9,7.7,1.1c1.6,2.2,3.3,4.3,4.9,6.1c-0.4,0.3-0.7,0.7-1.1,1
					C107.9,266.3,105.7,267.7,103.7,268.4L103.7,268.4z M95.4,252.8c-2.8-1-5.1-2.2-6.7-3.6c-1.4-1.2-2.1-2.4-2.1-3.4
					c0-2.1,3.1-4.8,8.3-6.6c0.7-0.2,1.3-0.4,2-0.6c0.7,2.3,1.7,4.8,2.8,7.3c-1.2,2.5-2.1,5-2.8,7.4
					C96.3,253.1,95.9,252.9,95.4,252.8z M98.2,233.8c-1.1-5.5-0.4-9.7,1.4-10.7c1.9-1.1,6.2,0.5,10.7,4.5c0.3,0.3,0.6,0.5,0.9,0.8
					c-1.7,1.8-3.3,3.8-4.9,6.1c-2.7,0.3-5.3,0.7-7.7,1.2C98.4,235,98.3,234.4,98.2,233.8L98.2,233.8z M123,240
					c-0.6-1-1.1-1.9-1.7-2.9c1.8,0.2,3.6,0.5,5.2,0.9c-0.5,1.6-1.1,3.2-1.8,4.9C124.1,241.9,123.5,240.9,123,240L123,240z
					 M112.9,230.1c1.1,1.2,2.3,2.6,3.4,4.1c-2.3-0.1-4.5-0.1-6.8,0C110.6,232.7,111.7,231.3,112.9,230.1L112.9,230.1z M102.7,240
					c-0.6,1-1.1,2-1.6,3c-0.7-1.7-1.3-3.4-1.8-5c1.6-0.4,3.4-0.7,5.2-0.9C103.8,238,103.3,239,102.7,240z M104.5,254.6
					c-1.9-0.2-3.7-0.5-5.3-0.9c0.5-1.6,1.1-3.3,1.9-5.1c0.5,1,1.1,2,1.6,3C103.3,252.7,103.9,253.7,104.5,254.6z M112.9,261.6
					c-1.2-1.3-2.3-2.6-3.5-4.1c1.1,0,2.2,0.1,3.4,0.1c1.2,0,2.3,0,3.5-0.1C115.2,259,114.1,260.4,112.9,261.6z M124.7,248.6
					c0.8,1.8,1.4,3.4,1.9,5.1c-1.7,0.4-3.5,0.7-5.4,0.9c0.6-1,1.2-1.9,1.8-2.9C123.6,250.7,124.1,249.7,124.7,248.6L124.7,248.6z
					 M120.9,250.5c-0.9,1.5-1.8,3-2.8,4.4c-1.7,0.1-3.5,0.2-5.3,0.2s-3.5-0.1-5.2-0.2c-1-1.4-1.9-2.9-2.8-4.5
					c-0.9-1.5-1.7-3.1-2.5-4.6c0.8-1.6,1.6-3.1,2.4-4.6l0,0c0.9-1.5,1.8-3,2.8-4.4c1.7-0.1,3.5-0.2,5.2-0.2c1.8,0,3.5,0.1,5.2,0.2
					c1,1.4,1.9,2.9,2.8,4.4s1.7,3,2.5,4.6C122.6,247.4,121.7,248.9,120.9,250.5L120.9,250.5z M125.9,223c1.9,1.1,2.7,5.6,1.5,11.5
					c-0.1,0.4-0.2,0.8-0.3,1.1c-2.4-0.6-5-1-7.7-1.2c-1.6-2.2-3.2-4.3-4.9-6.1c0.4-0.4,0.9-0.8,1.3-1.2
					C120.2,223.4,124.1,222,125.9,223L125.9,223z"/>
				<path class="st20" d="M112.8,240.6c2.8,0,5.1,2.3,5.1,5.1s-2.3,5.1-5.1,5.1c-2.8,0-5.1-2.3-5.1-5.1
					C107.7,242.9,110,240.6,112.8,240.6"/>
			</g>
			<g>
				<g>
					
						<linearGradient id="SVGID_7_" gradientUnits="userSpaceOnUse" x1="212.0572" y1="131.3384" x2="199.8604" y2="152.8726" gradientTransform="matrix(1 0 0 -1 0 412)">
						<stop  offset="0" style="stop-color:#9F9F9F"/>
						<stop  offset="0" style="stop-color:#9F9F9F"/>
						<stop  offset="0.41" style="stop-color:#656565"/>
						<stop  offset="0.99" style="stop-color:#1E1E1E"/>
						<stop  offset="1" style="stop-color:#1E1E1E"/>
					</linearGradient>
					<polygon class="st21" points="173,275.4 215.8,272.5 219.1,229.4 206,255.8 					"/>
					
						<linearGradient id="SVGID_8_" gradientUnits="userSpaceOnUse" x1="218.126" y1="149.4312" x2="202.4076" y2="159.9792" gradientTransform="matrix(1 0 0 -1 0 412)">
						<stop  offset="0" style="stop-color:#202020"/>
						<stop  offset="0" style="stop-color:#202020"/>
						<stop  offset="0.99" style="stop-color:#272727"/>
						<stop  offset="1" style="stop-color:#272727"/>
					</linearGradient>
					<polygon class="st22" points="202.2,260.4 215.8,272.5 212.2,247.1 					"/>
					
						<linearGradient id="SVGID_9_" gradientUnits="userSpaceOnUse" x1="205.5397" y1="130.6753" x2="189.8212" y2="141.2233" gradientTransform="matrix(1 0 0 -1 0 412)">
						<stop  offset="0" style="stop-color:#202020"/>
						<stop  offset="0" style="stop-color:#202020"/>
						<stop  offset="0.99" style="stop-color:#272727"/>
						<stop  offset="1" style="stop-color:#272727"/>
					</linearGradient>
					<polygon class="st23" points="173.2,275.4 215.9,272.5 189,270.4 					"/>
					
						<linearGradient id="SVGID_10_" gradientUnits="userSpaceOnUse" x1="172.5008" y1="157.045" x2="174.9376" y2="141.2087" gradientTransform="matrix(1 0 0 -1 0 412)">
						<stop  offset="0" style="stop-color:#FFFFFF"/>
						<stop  offset="0" style="stop-color:#FFFFFF"/>
						<stop  offset="0.23" style="stop-color:#989898"/>
						<stop  offset="0.46" style="stop-color:#6D6D6D"/>
						<stop  offset="0.99" style="stop-color:#0B0B0B"/>
						<stop  offset="1" style="stop-color:#0B0B0B"/>
					</linearGradient>
					<polygon class="st24" points="165.1,256.5 173.2,275.4 179.9,253.4 					"/>
					
						<linearGradient id="SVGID_11_" gradientUnits="userSpaceOnUse" x1="189.3367" y1="171.8412" x2="190.2345" y2="155.6789" gradientTransform="matrix(1 0 0 -1 0 412)">
						<stop  offset="0" style="stop-color:#FFFFFF"/>
						<stop  offset="0" style="stop-color:#FFFFFF"/>
						<stop  offset="0.23" style="stop-color:#959595"/>
						<stop  offset="0.56" style="stop-color:#474747"/>
						<stop  offset="0.99" style="stop-color:#2C2C2C"/>
						<stop  offset="1" style="stop-color:#2C2C2C"/>
					</linearGradient>
					<polygon class="st25" points="178.3,252.8 202.2,260.4 196,236.2 					"/>
					
						<linearGradient id="SVGID_12_" gradientUnits="userSpaceOnUse" x1="204.2187" y1="186.7858" x2="206.9064" y2="175.2032" gradientTransform="matrix(1 0 0 -1 0 412)">
						<stop  offset="0" style="stop-color:#FFFFFF"/>
						<stop  offset="0" style="stop-color:#FFFFFF"/>
						<stop  offset="0.18" style="stop-color:#8C8C8C"/>
						<stop  offset="0.4" style="stop-color:#535353"/>
						<stop  offset="0.99" style="stop-color:#2C2C2C"/>
						<stop  offset="1" style="stop-color:#2C2C2C"/>
					</linearGradient>
					<polygon class="st26" points="196.3,237.9 217.7,236.5 200.9,222.9 					"/>
					
						<linearGradient id="SVGID_13_" gradientUnits="userSpaceOnUse" x1="195.9528" y1="190.8764" x2="207.5351" y2="196.6676" gradientTransform="matrix(1 0 0 -1 0 412)">
						<stop  offset="0" style="stop-color:#FFFFFF"/>
						<stop  offset="0" style="stop-color:#FFFFFF"/>
						<stop  offset="0.54" style="stop-color:#515151"/>
						<stop  offset="0.99" style="stop-color:#383838"/>
						<stop  offset="1" style="stop-color:#383838"/>
					</linearGradient>
					<polygon class="st27" points="193.8,217.9 209.8,218 200,223.4 					"/>
					
						<linearGradient id="SVGID_14_" gradientUnits="userSpaceOnUse" x1="162.3774" y1="161.0872" x2="163.3307" y2="151.5427" gradientTransform="matrix(1 0 0 -1 0 412)">
						<stop  offset="0" style="stop-color:#FFFFFF"/>
						<stop  offset="0" style="stop-color:#FFFFFF"/>
						<stop  offset="0.31" style="stop-color:#727272"/>
						<stop  offset="0.99" style="stop-color:#464646"/>
						<stop  offset="1" style="stop-color:#464646"/>
					</linearGradient>
					<polygon class="st28" points="162,247.4 161.2,263.9 165.4,256.4 					"/>
					<path class="st0" d="M161.8,247.1l3.4,9.5l14.6-3.3l16.6-15.5l4.7-14.9l-7.4-5.2l-12.6,4.7c-4,3.7-11.7,11-11.9,11.1
						C168.9,233.7,164.1,242.8,161.8,247.1z"/>
					
						<linearGradient id="SVGID_15_" gradientUnits="userSpaceOnUse" x1="155.8055" y1="148.9887" x2="200.617" y2="195.0674" gradientTransform="matrix(1 0 0 -1 0 412)">
						<stop  offset="0" style="stop-color:#282828"/>
						<stop  offset="0" style="stop-color:#282828"/>
						<stop  offset="7.000000e-02" style="stop-color:#FFFFFF"/>
						<stop  offset="0.17" style="stop-color:#FFFFFF"/>
						<stop  offset="0.27" style="stop-color:#5D5D5D"/>
						<stop  offset="0.33" style="stop-color:#171717"/>
						<stop  offset="0.46" style="stop-color:#343434"/>
						<stop  offset="0.72" style="stop-color:#3A3A3A"/>
						<stop  offset="0.99" style="stop-color:#5F5F5F"/>
						<stop  offset="1" style="stop-color:#5F5F5F"/>
					</linearGradient>
					<path class="st29" d="M173.6,230c8.6-8.5,19.7-13.5,23.9-9.3c4.2,4.3-0.3,14.7-8.8,23.2c-8.6,8.5-19.5,13.8-23.8,9.5
						C160.6,249.3,165,238.6,173.6,230z"/>
					
						<linearGradient id="SVGID_16_" gradientUnits="userSpaceOnUse" x1="190.1514" y1="144.293" x2="176.6549" y2="147.6241" gradientTransform="matrix(1 0 0 -1 0 412)">
						<stop  offset="0" style="stop-color:#1D1D1D"/>
						<stop  offset="0" style="stop-color:#1D1D1D"/>
						<stop  offset="0.54" style="stop-color:#242424"/>
						<stop  offset="0.99" style="stop-color:#303030"/>
						<stop  offset="1" style="stop-color:#303030"/>
					</linearGradient>
					<path class="st30" d="M173.2,275.4l6.7-22.1l22.2,7.1C194,267.9,185.1,274.3,173.2,275.4z"/>
					
						<linearGradient id="SVGID_17_" gradientUnits="userSpaceOnUse" x1="213.3399" y1="160.5169" x2="201.3491" y2="171.2639" gradientTransform="matrix(1 0 0 -1 0 412)">
						<stop  offset="0" style="stop-color:#161616"/>
						<stop  offset="0" style="stop-color:#161616"/>
						<stop  offset="0.99" style="stop-color:#262626"/>
						<stop  offset="1" style="stop-color:#262626"/>
					</linearGradient>
					<path class="st31" d="M196.4,237.9l5.7,22.5c6.7-7,12.7-14.6,15.6-24L196.4,237.9z"/>
					
						<linearGradient id="SVGID_18_" gradientUnits="userSpaceOnUse" x1="217.7526" y1="180.2422" x2="211.7797" y2="186.6277" gradientTransform="matrix(1 0 0 -1 0 412)">
						<stop  offset="0" style="stop-color:#131313"/>
						<stop  offset="0" style="stop-color:#131313"/>
						<stop  offset="0.99" style="stop-color:#2F2F2F"/>
						<stop  offset="1" style="stop-color:#2F2F2F"/>
					</linearGradient>
					<path class="st32" d="M217.7,236.6c2.3-6.9,2.8-16.7-7.9-18.6l-8.8,4.9L217.7,236.6z"/>
					<path class="st33" d="M161.2,263.8c0.3,11.3,8.5,11.5,12,11.6l-8-18.8L161.2,263.8z"/>
					
						<radialGradient id="SVGID_19_" cx="203.2158" cy="171.0572" r="14.6946" gradientTransform="matrix(1 0 0 -1 0 412)" gradientUnits="userSpaceOnUse">
						<stop  offset="0" style="stop-color:#2C2C2C"/>
						<stop  offset="0" style="stop-color:#2C2C2C"/>
						<stop  offset="0.99" style="stop-color:#111111"/>
						<stop  offset="1" style="stop-color:#111111"/>
					</radialGradient>
					<path class="st34" d="M196.5,237.9c5.1,3.2,15.5,9.5,15.7,9.6c0.3,0.2,4.5-7,5.4-11L196.5,237.9z"/>
					
						<radialGradient id="SVGID_20_" cx="182.8663" cy="151.694" r="19.5345" gradientTransform="matrix(1 0 0 -1 0 412)" gradientUnits="userSpaceOnUse">
						<stop  offset="0" style="stop-color:#2A2A2A"/>
						<stop  offset="0" style="stop-color:#2A2A2A"/>
						<stop  offset="0.99" style="stop-color:#161616"/>
						<stop  offset="1" style="stop-color:#161616"/>
					</radialGradient>
					<path class="st35" d="M179.9,253.3l8.9,17.2c5.3-2.9,9.4-6.3,13.2-10.1L179.9,253.3z"/>
					
						<linearGradient id="SVGID_21_" gradientUnits="userSpaceOnUse" x1="168.9764" y1="136.6249" x2="164.1087" y2="153.1394" gradientTransform="matrix(1 0 0 -1 0 412)">
						<stop  offset="0" style="stop-color:#292929"/>
						<stop  offset="0" style="stop-color:#292929"/>
						<stop  offset="0.43" style="stop-color:#2C2C2C"/>
						<stop  offset="0.99" style="stop-color:#383838"/>
						<stop  offset="1" style="stop-color:#383838"/>
					</linearGradient>
					<path class="st36" d="M165.1,256.6l-1.3,15c2.4,3.3,5.7,3.5,9.1,3.3C170.5,268.8,165.5,256.4,165.1,256.6z"/>
					
						<linearGradient id="SVGID_22_" gradientUnits="userSpaceOnUse" x1="206.3754" y1="191.3736" x2="217.2883" y2="186.5565" gradientTransform="matrix(1 0 0 -1 0 412)">
						<stop  offset="0" style="stop-color:#383838"/>
						<stop  offset="0" style="stop-color:#383838"/>
						<stop  offset="0.44" style="stop-color:#242424"/>
						<stop  offset="0.99" style="stop-color:#1D1D1D"/>
						<stop  offset="1" style="stop-color:#1D1D1D"/>
					</linearGradient>
					<path class="st37" d="M200.9,222.9l17.7,2.5c-0.9-4-3.8-6.6-8.8-7.4L200.9,222.9z"/>
				</g>
				<g>
					
						<radialGradient id="shadow_2_" cx="-70.7803" cy="-118.4898" r="4.0126" gradientTransform="matrix(9.7644 0 0 3.5865 964.0823 684.6458)" gradientUnits="userSpaceOnUse">
						<stop  offset="0.694" style="stop-color:#B6B6B6"/>
						<stop  offset="0.968" style="stop-color:#B6B6B6;stop-opacity:0"/>
					</radialGradient>
					<path id="shadow_1_" class="st38" d="M236.5,258.9c0-8.4,17-15.2,37.9-15.2s37.9,6.8,37.9,15.2s-17,15.2-37.9,15.2
						C253.4,274.1,236.5,267.3,236.5,258.9z"/>
					
						<radialGradient id="brim_2_" cx="194.9652" cy="235.2551" r="5.4793" gradientTransform="matrix(-9.6238 1.6492 -0.895 -5.2239 2375.6829 1156.6013)" gradientUnits="userSpaceOnUse">
						<stop  offset="0.476" style="stop-color:#F5F5F5"/>
						<stop  offset="0.568" style="stop-color:#F0F0F0"/>
						<stop  offset="0.688" style="stop-color:#E3E3E3"/>
						<stop  offset="0.824" style="stop-color:#CDCDCD"/>
						<stop  offset="0.963" style="stop-color:#B0B0B0"/>
					</radialGradient>
					<path id="brim_1_" class="st39" d="M235.8,260.3c0,0-6.2-12.1,14.3-18.8c9.6-3.2,20.8-5.2,30.9-5.6c11.5-0.4,21.6,1.6,26.1,8.4
						c3.2,4.9,1.3,10.9-4.9,15.5c-3.7,2.8-11.9,5.5-17.3,7.1c-5.4,1.5-16.1,3.6-24.8,3.1C251.4,269.5,240.5,268.3,235.8,260.3
						L235.8,260.3z"/>
					<path id="brim_hl_1_" class="st40" d="M235.8,260.3c0,0-6.2-12.1,14.3-18.8c9.6-3.2,20.8-5.2,30.9-5.6
						c11.5-0.4,21.6,1.6,26.1,8.4c3.2,4.9,1.3,10.9-4.9,15.5c-3.7,2.8-11.9,5.5-17.3,7.1c-5.4,1.5-16.1,3.6-24.8,3.1
						C251.4,269.5,240.5,268.3,235.8,260.3L235.8,260.3z M260.3,269.7c8.5,0.5,18.9-1.6,24.2-3.1s13.3-4.1,17-6.8
						c6-4.5,8.5-10.2,5.1-15.4c-4.3-6.6-14.7-8.7-25.8-8.3c-9.8,0.3-20.8,2.7-30.1,5.7c-20,6.6-13.9,18.4-13.9,18.4
						C241.2,267.9,251.8,269.2,260.3,269.7L260.3,269.7z"/>
					
						<linearGradient id="crown_2_" gradientUnits="userSpaceOnUse" x1="-73.0141" y1="33.6104" x2="-68.5846" y2="33.9454" gradientTransform="matrix(9.7644 0 0 9.7644 964.0823 -92.0144)">
						<stop  offset="9.400000e-02" style="stop-color:#D9D9D9"/>
						<stop  offset="0.248" style="stop-color:#CFCFCF"/>
						<stop  offset="0.401" style="stop-color:#CACACA"/>
						<stop  offset="0.525" style="stop-color:#CECECE"/>
						<stop  offset="0.669" style="stop-color:#DADADA"/>
						<stop  offset="0.78" style="stop-color:#E6E6E6"/>
						<stop  offset="0.892" style="stop-color:#EAEAEA"/>
						<stop  offset="0.934" style="stop-color:#E6E6E6"/>
						<stop  offset="0.98" style="stop-color:#DDDDDD"/>
					</linearGradient>
					<path id="crown_1_" class="st41" d="M252.2,250.7c-1.8-1.3-4.3-7.7-3.3-9c1-1.4,2.4-4.3,3.2-7.1s2-8.8,4.2-10.9
						c2.3-2.1,5.6-2.1,10.1-1.6c4.4,0.5,17.4,2.8,20.6,4c3.1,1.1,7.2,3.2,7,8.1c-0.2,4.9,0.2,7.4-0.4,10.1
						c-0.6,2.7-6.5,8.1-14.1,8.5C272.1,253.2,254,252,252.2,250.7L252.2,250.7z"/>
					
						<radialGradient id="side-dent_2_" cx="2.8919" cy="50.4599" r="1.6608" gradientTransform="matrix(0.8608 9.7263 -26.2095 2.32 1588.2048 83.7755)" gradientUnits="userSpaceOnUse">
						<stop  offset="6.700000e-02" style="stop-color:#ADADAD"/>
						<stop  offset="0.29" style="stop-color:#C5C5C5"/>
						<stop  offset="0.481" style="stop-color:#D6D6D6"/>
						<stop  offset="0.688" style="stop-color:#E3E3E3"/>
						<stop  offset="0.942" style="stop-color:#FAFAFA"/>
					</radialGradient>
					<path id="side-dent_1_" class="st42" d="M273.5,244.7c0,0,7.8-1,12.4-5.4s0.5-7.5-0.7-8.3c-1.3-0.8-5.5-2.8-12.2-2.5
						s-13.4,0.4-12.9,5.3C260.5,238.7,265.9,244.7,273.5,244.7L273.5,244.7z"/>
					
						<linearGradient id="gutter-dent_2_" gradientUnits="userSpaceOnUse" x1="-72.5307" y1="32.6191" x2="-69.2001" y2="32.6191" gradientTransform="matrix(9.7644 0 0 9.7644 964.0823 -92.0144)">
						<stop  offset="5.600001e-02" style="stop-color:#FAFAFA"/>
						<stop  offset="0.226" style="stop-color:#E8E8E8"/>
						<stop  offset="0.43" style="stop-color:#D9D9D9"/>
						<stop  offset="0.639" style="stop-color:#D0D0D0"/>
						<stop  offset="0.857" style="stop-color:#CDCDCD"/>
					</linearGradient>
					<path id="gutter-dent_1_" class="st43" d="M256.4,229.7c-0.8-0.5-1-3.5,2.2-5.5c3.1-2,11.2-0.8,16.5,0.5s13.8,3,13.3,3.5
						s-13.1-1.1-18.9-0.8C261.6,227.8,257.7,230.5,256.4,229.7z"/>
					
						<linearGradient id="ribbon_2_" gradientUnits="userSpaceOnUse" x1="-73.3565" y1="35.0574" x2="-68.6" y2="35.0574" gradientTransform="matrix(9.7644 0 0 9.7644 964.0823 -92.0144)">
						<stop  offset="1.800000e-02" style="stop-color:#000000"/>
						<stop  offset="9.600000e-02" style="stop-color:#000000"/>
						<stop  offset="0.3" style="stop-color:#000000"/>
						<stop  offset="0.402" style="stop-color:#030303"/>
						<stop  offset="0.514" style="stop-color:#030303"/>
						<stop  offset="0.78" style="stop-color:#000000"/>
						<stop  offset="1" style="stop-color:#000000"/>
					</linearGradient>
					<path id="ribbon_1_" class="st44" d="M294,243.4c-0.1,0-0.1,0.3-0.2,0.4c-1,1.6-4,4.4-10.7,4.4h-18.3
						c-11.5,0-14.9-3.1-15.7-5.3c-0.1-0.2-0.2-0.5-0.2-0.5l-0.2,0.5l-0.9,8.4c0,3.8,9.9,6.9,22.7,6.9s23.7-1.8,23.7-6.9
						c0,0,0.1-5.1,0-7.4C294.2,243.7,294.2,243.4,294,243.4L294,243.4z"/>
				</g>
			</g>
		</g>
		<g>
			<path d="M375.9,254.2c-0.3-1-1.2-1.7-2.3-1.9c-0.5-0.1-1.1,0-1.8,0.1c-1.2,0.3-2.2,0.4-2.8,0.4c2.5-4.3,4.6-9.2,5.8-13.8
				c1.9-7.5,0.9-10.9-0.3-12.4c-3.2-4.1-7.8-6.3-13.5-6.3c-3,0-5.6,0.6-7,1c-1.3-0.2-2.7-0.4-4.1-0.4c-2.7,0-5.1,0.5-7.1,1.8
				c-1.1-0.4-2.9-0.9-5-1.3c-4.9-0.8-8.9-0.2-11.8,1.9c-3.5,2.5-5.1,6.8-4.8,12.8c0.1,1.9,1.2,7.7,2.8,13.2c1,3.2,2,5.8,3.1,7.8
				c1.5,2.9,3.1,4.6,5,5.2c1,0.3,2.9,0.6,4.8-1c0.2,0.3,0.6,0.6,1,0.9c0.6,0.4,1.2,0.6,1.9,0.8c2.4,0.6,4.7,0.5,6.7-0.4
				c0,0.3,0,0.7,0,1c0,0.5,0,0.9,0,1.3c0.1,2.9,0.3,5.1,0.9,6.7c0,0.1,0.1,0.2,0.1,0.4c0.3,0.9,0.8,2.4,2,3.5
				c1.3,1.2,2.8,1.6,4.2,1.6c0.7,0,1.4-0.1,2-0.2c2.1-0.5,4.5-1.1,6.3-3.6c1.6-2.3,2.4-5.9,2.6-11.4c0-0.2,0-0.3,0.1-0.4v-0.3h0.4
				h0.1c2.2,0.1,4.8-0.4,6.4-1.1C372.7,259.3,376.8,257.2,375.9,254.2"/>
			<path class="st45" d="M372.2,254.8c-6.4,1.3-6.8-0.8-6.8-0.8c6.8-10,9.6-22.8,7.2-25.9c-6.7-8.5-18.2-4.5-18.4-4.4h-0.1
				c-1.3-0.3-2.7-0.4-4.3-0.4c-2.9,0-5.1,0.8-6.8,2c0,0-20.6-8.5-19.6,10.7c0.2,4.1,5.8,30.8,12.5,22.7c2.5-3,4.8-5.4,4.8-5.4
				c1.2,0.8,2.6,1.2,4.1,1l0.1-0.1c0,0.4,0,0.7,0,1.1c-1.7,1.9-1.2,2.3-4.7,3s-1.4,2-0.1,2.3c1.6,0.4,5.4,1,7.9-2.6l-0.1,0.4
				c0.7,0.5,1.2,3.5,1.1,6.2s-0.1,4.6,0.4,6c0.5,1.5,1.1,4.7,5.6,3.7c3.8-0.8,5.8-2.9,6-6.4c0.2-2.5,0.6-2.1,0.7-4.4l0.4-1.1
				c0.4-3.4,0.1-4.5,2.4-4h0.6c1.7,0.1,4-0.3,5.3-0.9C373.3,256.4,375,254.2,372.2,254.8L372.2,254.8"/>
			<path class="st0" d="M344.2,237.7c-0.6-0.1-1.1,0-1.4,0.2c-0.1,0.1-0.2,0.2-0.2,0.3c0,0.2,0.1,0.5,0.2,0.6
				c0.3,0.4,0.7,0.6,1.1,0.7c0.1,0,0.1,0,0.2,0c0.7,0,1.3-0.5,1.4-0.9C345.6,238.2,344.9,237.8,344.2,237.7 M363.3,237.8
				c-0.1-0.4-0.8-0.5-1.4-0.4c-0.7,0.1-1.3,0.4-1.3,0.8c0,0.3,0.6,0.8,1.3,0.8c0.1,0,0.1,0,0.2,0c0.4-0.1,0.8-0.3,0.9-0.5
				C363.2,238.2,363.4,237.9,363.3,237.8"/>
			<path class="st0" d="M374.3,254.7c-0.2-0.7-1-1-2.3-0.7c-3.9,0.8-5.3,0.2-5.7-0.1c3-4.6,5.5-10.1,6.8-15.3c0.6-2.5,1-4.7,1-6.6
				c0-2-0.3-3.5-1-4.5c-2.9-3.7-7.1-5.7-12.3-5.7c-3.5,0-6.5,0.9-7.1,1.1c-1.2-0.3-2.5-0.5-4-0.5c-2.6,0-4.9,0.6-6.8,1.9
				c-0.8-0.3-2.9-1-5.6-1.5c-4.5-0.7-8.1-0.2-10.6,1.6c-3,2.2-4.4,6-4.2,11.5c0.1,1.8,1.1,7.5,2.8,12.9c2.2,7.1,4.5,11.1,7,11.9
				c0.3,0.1,0.6,0.2,1,0.2c0.9,0,2-0.4,3.2-1.8c1.4-1.7,2.9-3.3,4.4-4.9c1,0.5,2,0.8,3.1,0.8v0.1c-0.2,0.2-0.4,0.5-0.6,0.7
				c-0.8,1-0.9,1.2-3.4,1.7c-0.7,0.1-2.5,0.5-2.6,1.8c0,1.4,2.2,2,2.4,2.1c0.9,0.2,1.7,0.3,2.5,0.3c2,0,3.7-0.6,5.1-1.9
				c0,5,0.2,10,0.8,11.5c0.5,1.2,1.7,4.3,5.5,4.3c0.6,0,1.2-0.1,1.9-0.2c4-0.9,5.7-2.6,6.4-6.5c0.4-2.1,1-7,1.3-9.7
				c0.6,0.2,1.4,0.3,2.2,0.3c1.8,0,3.8-0.4,5.1-1C372.2,257.7,374.8,256.1,374.3,254.7L374.3,254.7z M364.8,236.7
				c0,0.8-0.1,1.5-0.2,2.2c-0.1,0.8-0.3,1.6-0.3,2.6s0.1,2,0.2,3c0.2,2,0.5,4-0.5,6c-0.2-0.3-0.3-0.6-0.4-0.9
				c-0.1-0.3-0.4-0.7-0.7-1.4c-1.4-2.5-4.6-8.3-3-10.6C360.4,237,361.7,236.3,364.8,236.7L364.8,236.7z M361,223.4
				c4.6,0.1,8.2,1.8,10.8,5.1c2,2.5-0.2,14-6.5,23.9c-0.1-0.1-0.1-0.2-0.2-0.2L365,252c1.6-2.7,1.3-5.3,1-7.7
				c-0.1-1-0.2-1.9-0.2-2.7c0-0.9,0.1-1.7,0.3-2.4c0.1-0.9,0.3-1.9,0.2-3c0-0.1,0-0.3,0-0.4c-0.1-1.1-1.3-4.3-3.9-7.3
				c-1.4-1.6-3.4-3.4-6.2-4.6C357.6,223.6,359.2,223.3,361,223.4L361,223.4z M335.3,258.1c-1.3,1.5-2.1,1.2-2.4,1.1
				c-1.9-0.6-4.1-4.6-6-10.9c-1.7-5.5-2.6-10.9-2.7-12.5c-0.2-4.9,0.9-8.3,3.5-10.1c4.2-3,11.1-1.2,13.8-0.3l-0.1,0.1
				c-4.5,4.6-4.4,12.4-4.4,12.9c0,0.2,0,0.4,0,0.8c0.1,1.3,0.2,3.8-0.2,6.5c-0.4,2.6,0.4,5.1,2.2,6.9c0.2,0.2,0.4,0.4,0.6,0.5
				C338.8,254.1,337.1,255.9,335.3,258.1L335.3,258.1z M340.1,251.6c-1.4-1.5-2-3.5-1.8-5.6c0.4-2.9,0.3-5.5,0.2-6.8
				c0-0.2,0-0.4,0-0.5c0.7-0.6,3.7-2.2,5.9-1.7c1,0.2,1.6,0.9,1.9,2.1c1.3,6.1,0.2,8.6-0.7,10.6c-0.2,0.4-0.4,0.8-0.5,1.2l-0.1,0.3
				c-0.3,0.8-0.6,1.5-0.7,2.2C342.7,253.4,341.2,252.7,340.1,251.6L340.1,251.6z M340.4,259.8c-0.4-0.1-0.8-0.3-1.1-0.5
				c0.2-0.1,0.5-0.2,1.1-0.3c2.9-0.6,3.3-1,4.3-2.2c0.2-0.3,0.5-0.6,0.8-1l0,0c0.5-0.6,0.8-0.5,1.2-0.3c0.3,0.1,0.7,0.6,0.8,1.1
				c0.1,0.2,0.1,0.7-0.1,1C345.4,260.3,342.5,260.3,340.4,259.8z M355.4,273.7c-3.5,0.8-4.8-1-5.6-3.1c-0.5-1.3-0.8-7.3-0.6-13.9
				c0-0.1,0-0.2,0-0.3c0-0.2-0.1-0.3-0.1-0.5c-0.3-1-0.9-1.8-1.7-2.1c-0.3-0.1-0.9-0.4-1.6-0.2c0.1-0.6,0.4-1.3,0.7-2.1l0.1-0.3
				c0.1-0.4,0.3-0.7,0.5-1.1c1-2.1,2.3-5,0.8-11.6c-0.5-2.5-2.3-3.7-5-3.4c-1.6,0.2-3.1,0.8-3.8,1.2c-0.2,0.1-0.3,0.2-0.4,0.2
				c0.2-2.5,1-7.1,3.9-10c1.8-1.8,4.3-2.8,7.2-2.7c5.8,0.1,9.6,3.1,11.7,5.6c1.8,2.2,2.8,4.3,3.2,5.5c-3-0.3-5,0.3-6,1.7
				c-2.2,3.2,1.2,9.3,2.9,12.3c0.3,0.5,0.6,1,0.6,1.2c0.5,1.3,1.2,2.2,1.7,2.8c0.2,0.2,0.3,0.4,0.4,0.5c-0.9,0.3-2.5,0.9-2.4,3.8
				c-0.1,1.5-1,8.5-1.4,11C360,271.8,358.8,273,355.4,273.7L355.4,273.7z M370.1,257c-0.9,0.4-2.5,0.7-3.9,0.8
				c-1.6,0.1-2.4-0.2-2.6-0.3c-0.1-1.9,0.6-2.1,1.3-2.3c0.1,0,0.2-0.1,0.3-0.1c0.1,0.1,0.1,0.1,0.2,0.2c1.3,0.9,3.6,0.9,6.9,0.3l0,0
				C371.9,255.9,371.1,256.5,370.1,257L370.1,257z"/>
		</g>
	</g>
	<g>
		<g>
			<g>
				<path class="st0" d="M194.6,288.3h6.3c0,0-11.7,15.8-12.6,17.1c-0.3,0.4-0.8,0.9-1,1.4c-0.6,1.4-1.2,4.5-1.2,4.5h-5.7
					c0,0,0.9-3.2,0.9-4.9c0-1.5-0.8-3-1.2-4.5s-1-4.5-1-4.5h5.9l0.8,3.3L194.6,288.3"/>
				<path class="st0" d="M182.7,291.6c1.2,0.7,1.9,4.6,1.9,4.6s-6.1,0.1-9.4,0.1h-2.9l-3.5,15.1h-5.3c0,0,3.3-16.4,4.1-19.4
					c0.3-1,1.7-0.8,4.2-0.8h4C178.4,291.2,181.4,290.9,182.7,291.6 M158,299c0,0,0.2-1-0.6-2.1c-0.6-1-1.2-1.2-2.8-1.2
					c-4.6-0.1-4.5,3.3-4.5,3.3L158,299z M163,295.1c0.7,2.4-0.6,8.2-0.6,8.2s-6.7-0.1-10.4,0c-1.1,0-2.5-0.1-2.9,0.4
					c-0.5,0.7,0.2,1.9,0.7,2.4c0.6,0.6,1.9,0.6,2.3,0.7c3,0.4,9.2,0.1,9.2,0.1l-1.1,4.8c0,0-8.8,0.4-13.2-0.6
					c-0.9-0.2-1.7-0.6-2.2-1.2c-0.2-0.2-0.3-0.4-0.4-0.6c-0.1-0.2-0.4-0.7-0.6-1.1c-1-2.7,0.1-7.8,1.2-10.6c0.1-0.3,0.3-0.7,0.5-1.1
					s0.4-0.9,0.6-1.2c0.1-0.2,0.3-0.3,0.4-0.5c0.1-0.2,0.3-0.4,0.4-0.6c0.4-0.5,0.9-0.8,1.4-1.2c1.8-1.4,5.2-2.4,9.2-2
					c1.5,0.2,3.8,0.7,4.9,2.2C162.7,293.6,162.9,294.5,163,295.1L163,295.1z M138.7,291.2h5.1c0,0-2.9,13.6-4.3,20.2h-5.9
					c-4.1,0-7.8,0.5-9.4-2.4c-1.5-2.9-0.1-7.6,0.6-10.8c0.5-2.3,1.5-6.9,1.5-6.9h5.3c0,0-1.5,7.2-2.1,10.8c-0.2,1.3-0.7,2.5-0.2,3.5
					c0.5,0.9,1.1,1,3.1,1c0.6,0,2.6,0,2.6,0L138.7,291.2 M114.7,301c0.5-1.9,1.3-4,1.2-5.7c-0.1-1.8-1.7-3.5-2.6-3.9
					c-3-1.1-5.8,0.4-6.9,1.6c-1.4,1.6-1.9,3.4-2.4,5.9c-0.4,1.9-0.7,3.8,0,5.3c1.2,2.6,5.1,2,9.2,2
					C113.7,304.6,114.2,302.8,114.7,301L114.7,301z M121.8,293.4c0.6,4.3-1.7,9-3.2,13.1c1.6,0.1,3,0,3.1,0.1
					c0.1,0.2-1.1,4.9-1.5,4.9c-1.3,0-5.4,0.1-7.1,0.1c-5.7,0-11,0.4-13.7-2.4c-1.1-1.1-1.9-3.1-2-4.5c-0.3-2.3,0.1-4.8,0.6-6.9
					c0.5-1.9,1.1-3.7,2-5.3c2.4-4.2,6.5-7.2,13.4-6.5c1.3,0.1,3.3,0.7,4.5,1.4c0.1,0,0.4,0.3,0.4,0.3
					C120,288.7,121.5,291.1,121.8,293.4L121.8,293.4z M96.8,291.2c-0.3,1.6-0.7,3.3-1,4.9H90c0.4-1.7,0.8-3.4,1.2-4.9
					C93.1,291.2,94.8,291.2,96.8,291.2 M89.8,297.5h5.5c-0.7,4-2.1,10.4-3.3,14.9c-0.7,2.8-1.2,4.8-3.1,6.3
					c-0.2,0.1-0.3,0.1-0.4,0.2c-0.3,0.3-2,0.7-2.9,0.8c-1.5,0.2-3.1,0-4.9,0c0.5-1.7,1-3.8,1.4-5.3c4.3,0.5,4.5-3.6,5.3-7.5
					C88.1,304.6,89.5,298.4,89.8,297.5"/>
				<g>
					<path class="st10" d="M77,307.9l-0.1,0.3c-2,3.9-5.6,6.3-10.6,6.4c-2.4,0-4.6-0.6-6.1-1.2c-3.2-1.4-5.9-4.1-7.3-6.9
						c-2.1-4.1-2.5-9.7,1.9-14c0.1,0-0.5,0.9-0.5,0.9l-0.1,0.4c-3.1,9.9,6.6,18.3,16,17.3C72.3,310.9,75.2,309.7,77,307.9"/>
					<path class="st10" d="M71.3,303.8c2.4,0,4.8-1.1,6.3-2.6c-1.3,3.3-5,5.4-10,4.7c-4.2-0.6-8.1-4.8-8.6-9
						c-0.3-3.1,0.8-4.9,2.5-7.1c-0.6,1.2-0.8,2.1-0.9,2.6C60,299,66,303.8,71.3,303.8"/>
					<path class="st10" d="M77.4,295.6c-0.4,0.8-2.5,2.4-3.4,2.6c-3.7,0.8-6.1-1-7.3-3c-0.2-0.3-0.5-1.1-0.6-1.3
						c-0.5-1.6-0.3-4.1,1.2-5.4c-0.4,1.2-0.5,2.6-0.3,3.6c0.1,0.6,0.6,1.5,1,2.1c0.8,1.1,1.3,1.4,2.2,2c0.4,0.3,0.9,0.5,1.1,0.5
						C72.2,297,74.2,297.8,77.4,295.6"/>
				</g>
			</g>
		</g>
		<g>
			<path class="st0" d="M263.9,306.8l-1.6,7.6h-3.7l6.2-27.4h4.4l5.8,27.4h-3.8l-1.6-7.6H263.9L263.9,306.8z M269.2,303.7l-1.3-6.5
				c-0.4-1.9-0.7-4.3-1-6.3h-0.2c-0.3,2-0.7,4.5-1.1,6.3l-1.3,6.5H269.2L269.2,303.7z M289.3,286.2v23.1c0,1.5,0.1,3.7,0.2,5.1h-3.3
				L286,312h-0.1c-0.7,1.4-2.2,2.7-4.1,2.7c-3.7,0-5.9-4-5.9-10.1c0-7,3-10.3,6.1-10.3c1.6,0,2.8,0.7,3.5,2.2h0.1v-10.3L289.3,286.2
				L289.3,286.2z M285.4,302.1c0-0.4,0-0.8,0-1.2c-0.2-1.8-1.2-3.3-2.6-3.3c-2.4,0-3.2,3.3-3.2,7c0,4.1,1.1,6.9,3.1,6.9
				c0.9,0,2-0.4,2.6-2.8c0.1-0.3,0.1-0.8,0.1-1.3V302.1L285.4,302.1z M298.4,314.7c-3.9,0-6.8-3.4-6.8-10.2c0-7.2,3.4-10.2,7-10.2
				c3.9,0,6.7,3.5,6.7,10.2C305.3,312.3,301.4,314.7,298.4,314.7L298.4,314.7L298.4,314.7z M298.5,311.7c2.4,0,2.9-4.2,2.9-7.2
				s-0.5-7.2-3-7.2s-3,4.2-3,7.2C295.4,307.7,296,311.7,298.5,311.7L298.5,311.7z M307.6,286.2h3.8v10.6h0.1c1-1.8,2.4-2.6,4.1-2.6
				c3.4,0,5.5,3.8,5.5,9.9c0,7.1-2.9,10.5-6.1,10.5c-2,0-3-1.1-3.9-2.8h-0.2l-0.2,2.5h-3.3c0.1-1.3,0.2-3.6,0.2-5.1V286.2
				L307.6,286.2z M311.4,307.3c0,0.4,0,0.9,0.2,1.2c0.6,2.4,1.8,2.9,2.6,2.9c2.3,0,3.1-3,3.1-7.1c0-3.8-0.9-6.8-3.2-6.8
				c-1.3,0-2.3,1.5-2.6,2.9c-0.1,0.4-0.1,0.9-0.1,1.3V307.3L311.4,307.3L311.4,307.3z M326.8,305.2c0,5.1,2.2,6.3,4.6,6.3
				c1.4,0,2.6-0.3,3.4-0.7l0.6,2.8c-1.2,0.6-3,0.9-4.7,0.9c-5,0-7.6-3.7-7.6-9.8c0-6.5,3-10.4,7.1-10.4s6,3.9,6,8.9
				c0,1,0,1.6-0.1,2.1L326.8,305.2L326.8,305.2z M332.5,302.5c0-3.5-1.2-5.4-2.7-5.4c-2,0-2.9,2.9-3,5.4H332.5z"/>
			<path class="st10" d="M237,287h11.4v27.3L237,287z M229,287h-11.4v27.3L229,287z M233,297.1l7.3,17.3h-4.8l-2.2-5.5H228
				L233,297.1L233,297.1z"/>
			<path class="st0" d="M335.8,294.2c0.5,0,0.9,0.4,0.9,0.9l0,0c0,0.5-0.4,0.9-0.9,0.9s-0.9-0.4-0.9-0.9S335.3,294.2,335.8,294.2
				L335.8,294.2L335.8,294.2z M335.8,294.3c-0.4,0-0.7,0.3-0.7,0.7c0,0.4,0.3,0.7,0.7,0.7c0.4,0,0.7-0.3,0.7-0.7
				C336.5,294.7,336.2,294.3,335.8,294.3L335.8,294.3L335.8,294.3z M335.6,295.6h-0.2v-1c0.1,0,0.2,0,0.3,0c0.1,0,0.2,0,0.3,0.1
				s0.1,0.1,0.1,0.2s-0.1,0.2-0.2,0.2l0,0c0.1,0,0.1,0.1,0.2,0.2c0,0.2,0,0.2,0.1,0.2H336c0,0,0-0.1-0.1-0.3c0-0.1-0.1-0.2-0.2-0.2
				h-0.1L335.6,295.6L335.6,295.6z M335.6,295h0.1c0.1,0,0.2,0,0.2-0.2c0-0.1-0.1-0.2-0.2-0.2s-0.1,0-0.1,0V295z M249.9,287
				c0.5,0,0.9,0.4,0.9,0.9l0,0c0,0.5-0.4,0.9-0.9,0.9s-0.9-0.4-0.9-0.9C249.1,287.4,249.5,287,249.9,287L249.9,287L249.9,287z
				 M249.9,287.1c-0.4,0-0.7,0.3-0.7,0.7c0,0.4,0.3,0.7,0.7,0.7s0.7-0.3,0.7-0.7C250.6,287.5,250.3,287.1,249.9,287.1L249.9,287.1z
				 M249.8,288.4h-0.2v-1c0.1,0,0.2,0,0.3,0s0.2,0,0.3,0.1c0.1,0,0.1,0.1,0.1,0.2s-0.1,0.2-0.2,0.2l0,0c0.1,0,0.1,0.1,0.2,0.2
				c0,0.2,0,0.2,0.1,0.2h-0.2c0,0,0-0.1-0.1-0.3c0-0.1-0.1-0.2-0.2-0.2h-0.1L249.8,288.4L249.8,288.4z M249.8,287.9h0.1
				c0.1,0,0.2,0,0.2-0.2c0-0.1-0.1-0.2-0.2-0.2c-0.1,0-0.1,0-0.1,0V287.9z"/>
		</g>
	</g>
</g>
</svg>
