<svg xmlns="http://www.w3.org/2000/svg" viewBox="0 0 200 200"><title>web</title><rect x="46.019" y="63.094" width="107.962" height="72.522" style="fill:none;stroke:#231f20;stroke-miterlimit:10;stroke-width:4px"/><rect x="46.019" y="52.864" width="107.962" height="10.413" style="fill:none;stroke:#231f20;stroke-miterlimit:10;stroke-width:4px"/><line x1="49.855" y1="57.979" x2="53.244" y2="57.979" style="fill:none;stroke:#231f20;stroke-miterlimit:10;stroke-width:4px"/><line x1="55.72" y1="57.979" x2="59.107" y2="57.979" style="fill:none;stroke:#231f20;stroke-miterlimit:10;stroke-width:4px"/><line x1="61.584" y1="57.979" x2="64.973" y2="57.979" style="fill:none;stroke:#231f20;stroke-miterlimit:10;stroke-width:4px"/><polyline points="85.728 109.828 78.979 104.48 72.23 99.129 78.979 93.778 85.728 88.428" style="fill:none;stroke:#231f20;stroke-miterlimit:10;stroke-width:4px"/><polyline points="108.701 109.828 115.45 104.48 122.2 99.129 115.45 93.778 108.701 88.431" style="fill:none;stroke:#231f20;stroke-miterlimit:10;stroke-width:4px"/><line x1="102.515" y1="82.419" x2="92.784" y2="115.84" style="fill:none;stroke:#231f20;stroke-miterlimit:10;stroke-width:4px"/><path d="M90.186,167.256l.286,1.434.349-1.371,2.006-6.811h.705l1.98,6.811.343,1.385.3-1.447,1.669-6.748h.8l-2.368,9.242h-.749l-2.095-7.23-.235-.914-.229.914-2.145,7.23h-.75L87.7,160.508h.8Z"/><path d="M102.418,169.877a2.988,2.988,0,0,1-1.584-.432,2.939,2.939,0,0,1-1.1-1.2,3.742,3.742,0,0,1-.394-1.729v-.272a4.044,4.044,0,0,1,.384-1.784,3.06,3.06,0,0,1,1.07-1.247,2.635,2.635,0,0,1,1.484-.454,2.481,2.481,0,0,1,1.984.854,3.466,3.466,0,0,1,.732,2.333v.426h-4.9v.146a2.877,2.877,0,0,0,.67,1.945,2.131,2.131,0,0,0,1.686.778,2.473,2.473,0,0,0,1.076-.223,2.391,2.391,0,0,0,.848-.711l.476.361A2.771,2.771,0,0,1,102.418,169.877Zm-.141-6.475a1.9,1.9,0,0,0-1.443.629,2.9,2.9,0,0,0-.715,1.688h4.12v-.082a2.523,2.523,0,0,0-.565-1.612A1.749,1.749,0,0,0,102.278,163.4Z"/><path d="M112,166.386a4.139,4.139,0,0,1-.711,2.549,2.273,2.273,0,0,1-1.911.942,2.469,2.469,0,0,1-2.171-1.066l-.031.939h-.711V160h.755v3.879a2.385,2.385,0,0,1,2.146-1.124,2.291,2.291,0,0,1,1.927.93,4.188,4.188,0,0,1,.708,2.587Zm-.762-.134a3.575,3.575,0,0,0-.527-2.1,1.72,1.72,0,0,0-1.485-.739,2.094,2.094,0,0,0-1.237.358,2.184,2.184,0,0,0-.769,1.051v3.1a2.035,2.035,0,0,0,2.019,1.295,1.708,1.708,0,0,0,1.47-.742A3.828,3.828,0,0,0,111.243,166.252Z"/></svg>